<?xml version="1.0" encoding="utf-8" standalone="no"?>
<!DOCTYPE svg PUBLIC "-//W3C//DTD SVG 1.1//EN"
  "http://www.w3.org/Graphics/SVG/1.1/DTD/svg11.dtd">
<svg xmlns:xlink="http://www.w3.org/1999/xlink" width="184.251969pt" height="277.795276pt" viewBox="0 0 184.251969 277.795276" xmlns="http://www.w3.org/2000/svg" version="1.1">
 <metadata>
  <rdf:RDF xmlns:dc="http://purl.org/dc/elements/1.1/" xmlns:cc="http://creativecommons.org/ns#" xmlns:rdf="http://www.w3.org/1999/02/22-rdf-syntax-ns#">
   <cc:Work>
    <dc:type rdf:resource="http://purl.org/dc/dcmitype/StillImage"/>
    <dc:date>2026-05-28T03:13:22.904550</dc:date>
    <dc:format>image/svg+xml</dc:format>
    <dc:creator>
     <cc:Agent>
      <dc:title>Matplotlib v3.10.8, https://matplotlib.org/</dc:title>
     </cc:Agent>
    </dc:creator>
   </cc:Work>
  </rdf:RDF>
 </metadata>
 <defs>
  <style type="text/css">*{stroke-linejoin: round; stroke-linecap: butt}</style>
 </defs>
 <g id="figure_1">
  <g id="patch_1">
   <path d="M 0 277.795276 
L 184.251969 277.795276 
L 184.251969 0 
L 0 0 
z
" style="fill: #ffffff"/>
  </g>
  <g id="axes_1">
   <g id="patch_2">
    <path d="M 31.322835 98.233138 
L 178.724409 98.233138 
L 178.724409 16.667717 
L 31.322835 16.667717 
z
" style="fill: #ffffff"/>
   </g>
   <g id="FillBetweenPolyCollection_1">
    <defs>
     <path id="m3a6af81df9" d="M 31.322835 -197.419854 
L 31.322835 -189.43349 
L 32.87443 -188.798676 
L 34.426026 -188.57342 
L 35.977621 -188.225297 
L 37.529217 -187.79526 
L 39.080812 -187.201403 
L 40.632408 -186.79185 
L 42.184003 -185.849866 
L 43.735599 -185.583653 
L 45.287194 -184.723583 
L 46.83879 -184.252594 
L 48.390385 -184.027333 
L 49.941981 -183.863514 
L 51.493576 -183.699689 
L 53.045172 -183.494912 
L 54.596768 -183.761125 
L 56.148363 -183.269657 
L 57.699959 -183.474434 
L 59.251554 -183.699689 
L 60.80315 -183.658737 
L 62.354745 -184.006859 
L 63.906341 -184.273068 
L 65.457936 -185.542696 
L 67.009532 -186.464201 
L 68.561127 -188.327686 
L 70.112723 -190.068304 
L 71.664318 -192.228717 
L 73.215914 -195.208247 
L 74.767509 -197.430096 
L 76.319105 -199.805523 
L 77.8707 -201.669008 
L 79.422296 -203.916458 
L 80.973891 -205.59564 
L 82.525487 -206.803828 
L 84.077082 -207.773966 
L 85.628678 -208.250083 
L 87.180274 -208.587969 
L 88.731869 -209.44292 
L 90.283465 -209.820478 
L 91.83506 -210.166039 
L 93.386656 -210.359302 
L 94.938251 -210.475766 
L 96.489847 -210.670306 
L 98.041442 -210.103322 
L 99.593038 -209.542747 
L 101.144633 -208.360148 
L 102.696229 -207.415607 
L 104.247824 -205.810654 
L 105.79942 -204.402804 
L 107.351015 -203.634881 
L 108.902611 -202.703139 
L 110.454206 -202.191196 
L 112.005802 -201.617814 
L 113.557397 -201.136582 
L 115.108993 -200.860137 
L 116.660588 -200.880611 
L 118.212184 -200.4301 
L 119.76378 -200.348186 
L 121.315375 -200.491531 
L 122.866971 -200.26628 
L 124.418566 -200.727028 
L 125.970162 -201.269691 
L 127.521757 -202.257751 
L 129.073353 -203.532493 
L 130.624948 -204.899395 
L 132.176544 -207.070045 
L 133.728139 -209.166466 
L 135.279735 -211.118898 
L 136.83133 -212.467397 
L 138.382926 -214.146427 
L 139.934521 -215.425007 
L 141.486117 -216.169894 
L 143.037712 -216.894298 
L 144.589308 -217.229622 
L 146.140903 -217.57006 
L 147.692499 -216.950606 
L 149.244094 -217.219385 
L 150.79569 -216.372109 
L 152.347286 -216.169894 
L 153.898881 -215.284223 
L 155.450477 -214.544459 
L 157.002072 -213.230678 
L 158.553668 -212.601621 
L 160.105263 -211.685239 
L 161.656859 -210.080287 
L 163.208454 -208.769702 
L 164.76005 -206.424994 
L 166.311645 -204.715092 
L 167.863241 -203.071745 
L 169.414836 -200.419863 
L 170.966432 -198.31064 
L 172.518027 -196.139989 
L 174.069623 -194.051249 
L 175.621218 -192.453972 
L 177.172814 -190.825985 
L 178.724409 -189.228713 
L 178.724409 -197.184357 
L 178.724409 -197.184357 
L 177.172814 -199.017126 
L 175.621218 -200.880611 
L 174.069623 -202.698025 
L 172.518027 -205.088812 
L 170.966432 -207.574312 
L 169.414836 -209.986859 
L 167.863241 -213.015022 
L 166.311645 -214.890029 
L 164.76005 -216.848218 
L 163.208454 -219.525696 
L 161.656859 -221.025707 
L 160.105263 -222.863595 
L 158.553668 -223.907963 
L 157.002072 -224.624683 
L 155.450477 -226.129808 
L 153.898881 -226.979645 
L 152.347286 -227.983055 
L 150.79569 -228.218552 
L 149.244094 -229.191252 
L 147.692499 -228.884078 
L 146.140903 -229.590569 
L 144.589308 -229.201489 
L 143.037712 -228.812409 
L 141.486117 -227.983055 
L 139.934521 -227.133227 
L 138.382926 -225.679296 
L 136.83133 -223.75438 
L 135.279735 -222.213421 
L 133.728139 -219.981331 
L 132.176544 -217.582859 
L 130.624948 -215.102481 
L 129.073353 -213.544243 
L 127.521757 -212.081682 
L 125.970162 -210.949322 
L 124.418566 -210.336258 
L 122.866971 -209.802556 
L 121.315375 -210.061089 
L 119.76378 -209.902383 
L 118.212184 -209.991982 
L 116.660588 -210.505201 
L 115.108993 -210.484727 
L 113.557397 -210.807252 
L 112.005802 -211.351834 
L 110.454206 -212.007764 
L 108.902611 -212.592187 
L 107.351015 -213.658154 
L 105.79942 -214.53806 
L 104.247824 -216.144297 
L 102.696229 -217.979623 
L 101.144633 -219.059825 
L 99.593038 -220.411368 
L 98.041442 -221.051305 
L 96.489847 -221.70147 
L 94.938251 -221.476219 
L 93.386656 -221.348233 
L 91.83506 -221.122973 
L 90.283465 -220.72877 
L 88.731869 -220.298742 
L 87.180274 -219.320919 
L 85.628678 -218.936963 
L 84.077082 -218.389177 
L 82.525487 -217.283378 
L 80.973891 -215.898563 
L 79.422296 -213.977484 
L 77.8707 -211.415193 
L 76.319105 -209.284214 
L 74.767509 -206.56834 
L 73.215914 -204.018847 
L 71.664318 -200.62464 
L 70.112723 -198.146815 
L 68.561127 -196.170705 
L 67.009532 -194.03077 
L 65.457936 -192.976161 
L 63.906341 -191.511993 
L 62.354745 -191.215064 
L 60.80315 -190.825985 
L 59.251554 -190.866942 
L 57.699959 -190.600729 
L 56.148363 -190.375473 
L 54.596768 -190.948852 
L 53.045172 -190.621208 
L 51.493576 -190.866942 
L 49.941981 -191.05124 
L 48.390385 -191.235539 
L 46.83879 -191.491514 
L 45.287194 -192.044418 
L 43.735599 -193.017118 
L 42.184003 -193.33452 
L 40.632408 -194.419846 
L 39.080812 -194.880598 
L 37.529217 -195.556369 
L 35.977621 -196.037596 
L 34.426026 -196.447155 
L 32.87443 -196.70313 
L 31.322835 -197.419854 
z
"/>
    </defs>
    <g clip-path="url(#pe7f7f3a67a)">
     <use xlink:href="#m3a6af81df9" x="0" y="277.795276" style="fill: #e63946; fill-opacity: 0.13"/>
    </g>
   </g>
   <g id="matplotlib.axis_1">
    <g id="xtick_1">
     <g id="line2d_1">
      <path d="M 31.322835 98.233138 
L 31.322835 16.667717 
" clip-path="url(#pe7f7f3a67a)" style="fill: none; stroke-dasharray: 0.25,0.4125; stroke-dashoffset: 0; stroke: #b0b0b0; stroke-opacity: 0.45; stroke-width: 0.25"/>
     </g>
     <g id="line2d_2">
      <defs>
       <path id="mb3708df902" d="M 0 0 
L 0 2 
" style="stroke: #000000; stroke-width: 0.5"/>
      </defs>
      <g>
       <use xlink:href="#mb3708df902" x="31.322835" y="98.233138" style="stroke: #000000; stroke-width: 0.5"/>
      </g>
     </g>
     <g id="text_1">
      <text style="font-size: 6.5px; font-family: 'SimSun', 'Times New Roman'; text-anchor: middle" x="31.322835" y="106.379622" transform="rotate(-0 31.322835 106.379622)">0</text>
     </g>
    </g>
    <g id="xtick_2">
     <g id="line2d_3">
      <path d="M 68.561127 98.233138 
L 68.561127 16.667717 
" clip-path="url(#pe7f7f3a67a)" style="fill: none; stroke-dasharray: 0.25,0.4125; stroke-dashoffset: 0; stroke: #b0b0b0; stroke-opacity: 0.45; stroke-width: 0.25"/>
     </g>
     <g id="line2d_4">
      <g>
       <use xlink:href="#mb3708df902" x="68.561127" y="98.233138" style="stroke: #000000; stroke-width: 0.5"/>
      </g>
     </g>
     <g id="text_2">
      <text style="font-size: 6.5px; font-family: 'SimSun', 'Times New Roman'; text-anchor: middle" x="68.561127" y="106.379622" transform="rotate(-0 68.561127 106.379622)">6</text>
     </g>
    </g>
    <g id="xtick_3">
     <g id="line2d_5">
      <path d="M 105.79942 98.233138 
L 105.79942 16.667717 
" clip-path="url(#pe7f7f3a67a)" style="fill: none; stroke-dasharray: 0.25,0.4125; stroke-dashoffset: 0; stroke: #b0b0b0; stroke-opacity: 0.45; stroke-width: 0.25"/>
     </g>
     <g id="line2d_6">
      <g>
       <use xlink:href="#mb3708df902" x="105.79942" y="98.233138" style="stroke: #000000; stroke-width: 0.5"/>
      </g>
     </g>
     <g id="text_3">
      <text style="font-size: 6.5px; font-family: 'SimSun', 'Times New Roman'; text-anchor: middle" x="105.79942" y="106.379622" transform="rotate(-0 105.79942 106.379622)">12</text>
     </g>
    </g>
    <g id="xtick_4">
     <g id="line2d_7">
      <path d="M 143.037712 98.233138 
L 143.037712 16.667717 
" clip-path="url(#pe7f7f3a67a)" style="fill: none; stroke-dasharray: 0.25,0.4125; stroke-dashoffset: 0; stroke: #b0b0b0; stroke-opacity: 0.45; stroke-width: 0.25"/>
     </g>
     <g id="line2d_8">
      <g>
       <use xlink:href="#mb3708df902" x="143.037712" y="98.233138" style="stroke: #000000; stroke-width: 0.5"/>
      </g>
     </g>
     <g id="text_4">
      <text style="font-size: 6.5px; font-family: 'SimSun', 'Times New Roman'; text-anchor: middle" x="143.037712" y="106.379622" transform="rotate(-0 143.037712 106.379622)">18</text>
     </g>
    </g>
    <g id="xtick_5">
     <g id="line2d_9">
      <path d="M 178.724409 98.233138 
L 178.724409 16.667717 
" clip-path="url(#pe7f7f3a67a)" style="fill: none; stroke-dasharray: 0.25,0.4125; stroke-dashoffset: 0; stroke: #b0b0b0; stroke-opacity: 0.45; stroke-width: 0.25"/>
     </g>
     <g id="line2d_10">
      <g>
       <use xlink:href="#mb3708df902" x="178.724409" y="98.233138" style="stroke: #000000; stroke-width: 0.5"/>
      </g>
     </g>
     <g id="text_5">
      <text style="font-size: 6.5px; font-family: 'SimSun', 'Times New Roman'; text-anchor: middle" x="178.724409" y="106.379622" transform="rotate(-0 178.724409 106.379622)">24</text>
     </g>
    </g>
   </g>
   <g id="matplotlib.axis_2">
    <g id="ytick_1">
     <g id="line2d_11">
      <path d="M 31.322835 93.727686 
L 178.724409 93.727686 
" clip-path="url(#pe7f7f3a67a)" style="fill: none; stroke-dasharray: 0.25,0.4125; stroke-dashoffset: 0; stroke: #b0b0b0; stroke-opacity: 0.45; stroke-width: 0.25"/>
     </g>
     <g id="line2d_12">
      <defs>
       <path id="m852a4297bc" d="M 0 0 
L -2 0 
" style="stroke: #000000; stroke-width: 0.5"/>
      </defs>
      <g>
       <use xlink:href="#m852a4297bc" x="31.322835" y="93.727686" style="stroke: #000000; stroke-width: 0.5"/>
      </g>
     </g>
     <g id="text_6">
      <text style="font-size: 6.5px; font-family: 'SimSun', 'Times New Roman'; text-anchor: end" x="27.822835" y="96.050929" transform="rotate(-0 27.822835 96.050929)">0.4</text>
     </g>
    </g>
    <g id="ytick_2">
     <g id="line2d_13">
      <path d="M 31.322835 78.753891 
L 178.724409 78.753891 
" clip-path="url(#pe7f7f3a67a)" style="fill: none; stroke-dasharray: 0.25,0.4125; stroke-dashoffset: 0; stroke: #b0b0b0; stroke-opacity: 0.45; stroke-width: 0.25"/>
     </g>
     <g id="line2d_14">
      <g>
       <use xlink:href="#m852a4297bc" x="31.322835" y="78.753891" style="stroke: #000000; stroke-width: 0.5"/>
      </g>
     </g>
     <g id="text_7">
      <text style="font-size: 6.5px; font-family: 'SimSun', 'Times New Roman'; text-anchor: end" x="27.822835" y="81.077133" transform="rotate(-0 27.822835 81.077133)">0.5</text>
     </g>
    </g>
    <g id="ytick_3">
     <g id="line2d_15">
      <path d="M 31.322835 63.780095 
L 178.724409 63.780095 
" clip-path="url(#pe7f7f3a67a)" style="fill: none; stroke-dasharray: 0.25,0.4125; stroke-dashoffset: 0; stroke: #b0b0b0; stroke-opacity: 0.45; stroke-width: 0.25"/>
     </g>
     <g id="line2d_16">
      <g>
       <use xlink:href="#m852a4297bc" x="31.322835" y="63.780095" style="stroke: #000000; stroke-width: 0.5"/>
      </g>
     </g>
     <g id="text_8">
      <text style="font-size: 6.5px; font-family: 'SimSun', 'Times New Roman'; text-anchor: end" x="27.822835" y="66.103337" transform="rotate(-0 27.822835 66.103337)">0.6</text>
     </g>
    </g>
    <g id="ytick_4">
     <g id="line2d_17">
      <path d="M 31.322835 48.8063 
L 178.724409 48.8063 
" clip-path="url(#pe7f7f3a67a)" style="fill: none; stroke-dasharray: 0.25,0.4125; stroke-dashoffset: 0; stroke: #b0b0b0; stroke-opacity: 0.45; stroke-width: 0.25"/>
     </g>
     <g id="line2d_18">
      <g>
       <use xlink:href="#m852a4297bc" x="31.322835" y="48.8063" style="stroke: #000000; stroke-width: 0.5"/>
      </g>
     </g>
     <g id="text_9">
      <text style="font-size: 6.5px; font-family: 'SimSun', 'Times New Roman'; text-anchor: end" x="27.822835" y="51.129542" transform="rotate(-0 27.822835 51.129542)">0.7</text>
     </g>
    </g>
    <g id="ytick_5">
     <g id="line2d_19">
      <path d="M 31.322835 33.832504 
L 178.724409 33.832504 
" clip-path="url(#pe7f7f3a67a)" style="fill: none; stroke-dasharray: 0.25,0.4125; stroke-dashoffset: 0; stroke: #b0b0b0; stroke-opacity: 0.45; stroke-width: 0.25"/>
     </g>
     <g id="line2d_20">
      <g>
       <use xlink:href="#m852a4297bc" x="31.322835" y="33.832504" style="stroke: #000000; stroke-width: 0.5"/>
      </g>
     </g>
     <g id="text_10">
      <text style="font-size: 6.5px; font-family: 'SimSun', 'Times New Roman'; text-anchor: end" x="27.822835" y="36.155746" transform="rotate(-0 27.822835 36.155746)">0.8</text>
     </g>
    </g>
    <g id="ytick_6">
     <g id="line2d_21">
      <path d="M 31.322835 18.858709 
L 178.724409 18.858709 
" clip-path="url(#pe7f7f3a67a)" style="fill: none; stroke-dasharray: 0.25,0.4125; stroke-dashoffset: 0; stroke: #b0b0b0; stroke-opacity: 0.45; stroke-width: 0.25"/>
     </g>
     <g id="line2d_22">
      <g>
       <use xlink:href="#m852a4297bc" x="31.322835" y="18.858709" style="stroke: #000000; stroke-width: 0.5"/>
      </g>
     </g>
     <g id="text_11">
      <text style="font-size: 6.5px; font-family: 'SimSun', 'Times New Roman'; text-anchor: end" x="27.822835" y="21.181951" transform="rotate(-0 27.822835 21.181951)">0.9</text>
     </g>
    </g>
    <g id="text_12">
     <text style="font-size: 7.5px; font-family: 'SimSun', 'Times New Roman'; text-anchor: middle" x="13.106038" y="57.450427" transform="rotate(-90 13.106038 57.450427)">归一化负荷</text>
    </g>
   </g>
   <g id="line2d_23">
    <path d="M 31.322835 83.991485 
L 32.87443 83.337191 
L 34.426026 81.43494 
L 35.977621 78.365623 
L 37.529217 74.255694 
L 39.080812 69.271977 
L 40.632408 63.6149 
L 42.184003 57.510446 
L 43.735599 51.201128 
L 45.287194 44.936363 
L 46.83879 38.962618 
L 48.390385 33.513718 
L 49.941981 28.801699 
L 51.493576 25.008566 
L 53.045172 22.27927 
L 54.596768 20.716175 
L 56.148363 20.375236 
L 57.699959 21.264014 
L 59.251554 23.341615 
L 60.80315 26.520529 
L 62.354745 30.670301 
L 63.906341 35.622873 
L 65.457936 41.179383 
L 67.009532 47.118142 
L 68.561127 53.203474 
L 70.112723 59.19506 
L 71.664318 64.857426 
L 73.215914 69.969192 
L 74.767509 74.33172 
L 76.319105 77.776824 
L 77.8707 80.173253 
L 79.422296 81.431674 
L 80.973891 81.507997 
L 82.525487 80.404885 
L 84.077082 78.171432 
L 85.628678 74.901004 
L 87.180274 70.727351 
L 88.731869 65.819147 
L 90.283465 60.373179 
L 91.83506 54.606466 
L 93.386656 48.747616 
L 94.938251 43.027768 
L 96.489847 37.671477 
L 98.041442 32.887909 
L 99.593038 28.862673 
L 101.144633 25.750628 
L 102.696229 23.669932 
L 104.247824 22.697569 
L 105.79942 22.866509 
L 107.351015 24.164624 
L 108.902611 26.535385 
L 110.454206 29.880296 
L 112.005802 34.062974 
L 113.557397 38.914706 
L 115.108993 44.241241 
L 116.660588 49.830565 
L 118.212184 55.461334 
L 119.76378 60.911633 
L 121.315375 65.967717 
L 122.866971 70.432391 
L 124.418566 74.132691 
L 125.970162 76.926582 
L 127.521757 78.708399 
L 129.073353 79.412838 
L 130.624948 79.017327 
L 132.176544 77.542718 
L 133.728139 75.05225 
L 135.279735 71.648861 
L 136.83133 67.470939 
L 138.382926 62.686711 
L 139.934521 57.487466 
L 141.486117 52.07992 
L 143.037712 46.677999 
L 144.589308 41.49438 
L 146.140903 36.732125 
L 147.692499 32.576731 
L 149.244094 29.188909 
L 150.79569 26.698374 
L 152.347286 25.19889 
L 153.898881 24.744746 
L 155.450477 25.348809 
L 157.002072 26.982219 
L 158.553668 29.575721 
L 160.105263 33.022588 
L 161.656859 37.183004 
L 163.208454 41.889727 
L 164.76005 46.954804 
L 166.311645 52.177077 
L 167.863241 57.350158 
L 169.414836 62.270592 
L 170.966432 66.745842 
L 172.518027 70.601829 
L 174.069623 73.68969 
L 175.621218 75.891522 
L 177.172814 77.124878 
L 178.724409 77.345839 
" clip-path="url(#pe7f7f3a67a)" style="fill: none; stroke-dasharray: 0.6,0.5; stroke-dashoffset: 0; stroke: #8c510a; stroke-width: 0.5"/>
   </g>
   <g id="line2d_24">
    <path d="M 31.322835 84.660516 
L 32.87443 86.749114 
L 34.426026 87.198424 
L 35.977621 87.12477 
L 37.529217 85.974712 
L 39.080812 87.594863 
L 40.632408 89.430738 
L 42.184003 89.167819 
L 43.735599 89.128174 
L 45.287194 89.027717 
L 46.83879 88.508447 
L 48.390385 89.19085 
L 49.941981 90.176187 
L 51.493576 88.887402 
L 53.045172 87.838237 
L 54.596768 86.840627 
L 56.148363 87.02161 
L 57.699959 86.701592 
L 59.251554 87.045774 
L 60.80315 84.992404 
L 62.354745 83.70618 
L 63.906341 81.389761 
L 65.457936 82.169308 
L 67.009532 80.464494 
L 68.561127 78.526828 
L 70.112723 77.474543 
L 71.664318 77.540321 
L 73.215914 74.918089 
L 74.767509 74.139697 
L 76.319105 71.95266 
L 77.8707 70.448838 
L 79.422296 70.519819 
L 80.973891 66.535602 
L 82.525487 65.788207 
L 84.077082 65.089294 
L 85.628678 63.923937 
L 87.180274 63.042514 
L 88.731869 60.2153 
L 90.283465 59.834761 
L 91.83506 59.681241 
L 93.386656 61.437643 
L 94.938251 58.948599 
L 96.489847 60.611296 
L 98.041442 60.106467 
L 99.593038 61.783356 
L 101.144633 62.428621 
L 102.696229 62.317334 
L 104.247824 64.458192 
L 105.79942 64.659471 
L 107.351015 65.256942 
L 108.902611 67.745923 
L 110.454206 65.8977 
L 112.005802 69.778663 
L 113.557397 68.815388 
L 115.108993 71.006727 
L 116.660588 71.671601 
L 118.212184 70.053377 
L 119.76378 70.844416 
L 121.315375 70.487654 
L 122.866971 69.741044 
L 124.418566 69.161387 
L 125.970162 70.532056 
L 127.521757 69.725175 
L 129.073353 68.424729 
L 130.624948 68.777814 
L 132.176544 68.951157 
L 133.728139 65.514689 
L 135.279735 64.766232 
L 136.83133 63.571522 
L 138.382926 61.98633 
L 139.934521 62.006456 
L 141.486117 61.565735 
L 143.037712 61.233767 
L 144.589308 59.338268 
L 146.140903 57.83724 
L 147.692499 58.09081 
L 149.244094 58.868952 
L 150.79569 59.752642 
L 152.347286 58.842078 
L 153.898881 58.829788 
L 155.450477 58.887712 
L 157.002072 58.887311 
L 158.553668 61.151665 
L 160.105263 62.040326 
L 161.656859 63.905569 
L 163.208454 63.497765 
L 164.76005 67.517825 
L 166.311645 67.135609 
L 167.863241 70.684969 
L 169.414836 72.47384 
L 170.966432 76.806885 
L 172.518027 76.560669 
L 174.069623 79.214153 
L 175.621218 81.209265 
L 177.172814 82.621087 
L 178.724409 84.288702 
" clip-path="url(#pe7f7f3a67a)" style="fill: none; stroke-dasharray: 2.4,0.6; stroke-dashoffset: 0; stroke: #7209b7; stroke-width: 0.5"/>
   </g>
   <g id="line2d_25">
    <path d="M 31.322835 82.129538 
L 32.87443 82.398536 
L 34.426026 83.107115 
L 35.977621 83.324776 
L 37.529217 83.883619 
L 39.080812 82.964662 
L 40.632408 83.451472 
L 42.184003 83.908422 
L 43.735599 84.525721 
L 45.287194 85.116583 
L 46.83879 85.722766 
L 48.390385 86.334267 
L 49.941981 86.879621 
L 51.493576 87.301822 
L 53.045172 87.626494 
L 54.596768 87.885722 
L 56.148363 87.918866 
L 57.699959 87.897504 
L 59.251554 87.761369 
L 60.80315 87.821783 
L 62.354745 87.871929 
L 63.906341 92.799103 
L 65.457936 91.898509 
L 67.009532 86.605331 
L 68.561127 84.603409 
L 70.112723 83.111167 
L 71.664318 81.684355 
L 73.215914 83.126675 
L 74.767509 77.45921 
L 76.319105 76.35657 
L 77.8707 72.558209 
L 79.422296 74.042878 
L 80.973891 70.942529 
L 82.525487 74.920677 
L 84.077082 73.611814 
L 85.628678 67.681957 
L 87.180274 74.335647 
L 88.731869 73.164704 
L 90.283465 66.406064 
L 91.83506 72.243056 
L 93.386656 72.140819 
L 94.938251 71.980542 
L 96.489847 71.77772 
L 98.041442 71.645272 
L 99.593038 71.209344 
L 101.144633 71.474553 
L 102.696229 71.602887 
L 104.247824 71.609098 
L 105.79942 71.556539 
L 107.351015 71.491332 
L 108.902611 71.452437 
L 110.454206 71.387337 
L 112.005802 71.416665 
L 113.557397 71.368675 
L 115.108993 71.298425 
L 116.660588 71.170716 
L 118.212184 71.006308 
L 119.76378 70.830751 
L 121.315375 70.546702 
L 122.866971 70.306698 
L 124.418566 70.312749 
L 125.970162 71.436898 
L 127.521757 71.888364 
L 129.073353 72.41107 
L 130.624948 71.319953 
L 132.176544 69.748488 
L 133.728139 67.618893 
L 135.279735 67.12937 
L 136.83133 66.506917 
L 138.382926 66.751384 
L 139.934521 68.46532 
L 141.486117 68.522173 
L 143.037712 67.193532 
L 144.589308 65.646245 
L 146.140903 66.790244 
L 147.692499 64.088587 
L 149.244094 67.691427 
L 150.79569 67.994951 
L 152.347286 68.231635 
L 153.898881 68.523503 
L 155.450477 68.828053 
L 157.002072 69.101607 
L 158.553668 69.508992 
L 160.105263 69.925231 
L 161.656859 70.471954 
L 163.208454 70.944368 
L 164.76005 71.416522 
L 166.311645 71.93631 
L 167.863241 72.435703 
L 169.414836 73.08494 
L 170.966432 73.784997 
L 172.518027 74.441043 
L 174.069623 75.034552 
L 175.621218 75.55417 
L 177.172814 76.031126 
L 178.724409 76.544506 
" clip-path="url(#pe7f7f3a67a)" style="fill: none; stroke-dasharray: 1.2,0.6; stroke-dashoffset: 0; stroke: #4b5563; stroke-width: 0.5"/>
   </g>
   <g id="line2d_26">
    <path d="M 31.322835 81.17555 
L 32.87443 84.244148 
L 34.426026 84.615172 
L 35.977621 83.678499 
L 37.529217 83.497878 
L 39.080812 83.331353 
L 40.632408 86.46485 
L 42.184003 86.786684 
L 43.735599 88.160102 
L 45.287194 85.403681 
L 46.83879 88.223795 
L 48.390385 86.260452 
L 49.941981 86.195741 
L 51.493576 88.890949 
L 53.045172 89.512304 
L 54.596768 88.535504 
L 56.148363 88.041746 
L 57.699959 87.012832 
L 59.251554 89.409974 
L 60.80315 88.461975 
L 62.354745 88.083462 
L 63.906341 87.772726 
L 65.457936 87.147708 
L 67.009532 85.33946 
L 68.561127 84.169003 
L 70.112723 82.863189 
L 71.664318 80.158569 
L 73.215914 78.749027 
L 74.767509 75.752503 
L 76.319105 76.301128 
L 77.8707 74.713678 
L 79.422296 68.799448 
L 80.973891 67.010265 
L 82.525487 65.407892 
L 84.077082 66.835967 
L 85.628678 64.533574 
L 87.180274 66.666426 
L 88.731869 66.489522 
L 90.283465 65.504015 
L 91.83506 65.762066 
L 93.386656 64.137729 
L 94.938251 63.381837 
L 96.489847 63.91412 
L 98.041442 63.791757 
L 99.593038 65.495983 
L 101.144633 65.498544 
L 102.696229 67.0798 
L 104.247824 67.925041 
L 105.79942 70.779129 
L 107.351015 69.051582 
L 108.902611 70.757441 
L 110.454206 72.147896 
L 112.005802 73.359494 
L 113.557397 73.872266 
L 115.108993 72.981811 
L 116.660588 72.573623 
L 118.212184 71.897923 
L 119.76378 73.553614 
L 121.315375 68.749691 
L 122.866971 72.621729 
L 124.418566 70.069692 
L 125.970162 68.925827 
L 127.521757 68.050206 
L 129.073353 69.583579 
L 130.624948 66.997207 
L 132.176544 64.607839 
L 133.728139 65.29706 
L 135.279735 60.917855 
L 136.83133 60.032005 
L 138.382926 60.26686 
L 139.934521 56.540158 
L 141.486117 56.1186 
L 143.037712 55.213829 
L 144.589308 55.476199 
L 146.140903 54.230607 
L 147.692499 55.719506 
L 149.244094 55.864771 
L 150.79569 56.057026 
L 152.347286 56.454959 
L 153.898881 56.374473 
L 155.450477 58.546872 
L 157.002072 56.424105 
L 158.553668 56.358417 
L 160.105263 60.365937 
L 161.656859 62.651507 
L 163.208454 63.605624 
L 164.76005 68.651542 
L 166.311645 69.377731 
L 167.863241 68.890404 
L 169.414836 71.597308 
L 170.966432 75.884336 
L 172.518027 78.36623 
L 174.069623 78.425109 
L 175.621218 80.924671 
L 177.172814 81.863018 
L 178.724409 84.27535 
" clip-path="url(#pe7f7f3a67a)" style="fill: none; stroke-dasharray: 2.5,0.5,0.5,0.5; stroke-dashoffset: 0; stroke: #c51b7d; stroke-width: 0.5"/>
   </g>
   <g id="line2d_27">
    <path d="M 31.322835 84.942049 
L 32.87443 85.865259 
L 34.426026 86.229353 
L 35.977621 86.927459 
L 37.529217 87.670646 
L 39.080812 87.575768 
L 40.632408 88.756591 
L 42.184003 89.201453 
L 43.735599 89.895766 
L 45.287194 90.111623 
L 46.83879 90.745005 
L 48.390385 91.768511 
L 49.941981 91.210698 
L 51.493576 92.069027 
L 53.045172 92.007319 
L 54.596768 92.202015 
L 56.148363 91.663855 
L 57.699959 92.349703 
L 59.251554 92.575904 
L 60.80315 92.348716 
L 62.354745 92.627674 
L 63.906341 91.470328 
L 65.457936 90.726048 
L 67.009532 89.320839 
L 68.561127 87.942727 
L 70.112723 85.50677 
L 71.664318 82.966992 
L 73.215914 79.875907 
L 74.767509 76.968911 
L 76.319105 74.712883 
L 77.8707 72.036378 
L 79.422296 70.679257 
L 80.973891 69.442679 
L 82.525487 67.262336 
L 84.077082 67.119642 
L 85.628678 65.902564 
L 87.180274 65.88458 
L 88.731869 65.077869 
L 90.283465 64.8942 
L 91.83506 64.225765 
L 93.386656 63.34636 
L 94.938251 63.245024 
L 96.489847 62.850143 
L 98.041442 63.474033 
L 99.593038 64.303021 
L 101.144633 65.558146 
L 102.696229 67.21356 
L 104.247824 68.968936 
L 105.79942 70.134551 
L 107.351015 70.988823 
L 108.902611 71.388845 
L 110.454206 72.069079 
L 112.005802 72.592035 
L 113.557397 72.357743 
L 115.108993 73.104147 
L 116.660588 74.038273 
L 118.212184 73.768182 
L 119.76378 73.850623 
L 121.315375 74.509079 
L 122.866971 74.050848 
L 124.418566 73.99072 
L 125.970162 72.761728 
L 127.521757 72.232694 
L 129.073353 70.627706 
L 130.624948 68.791791 
L 132.176544 66.461988 
L 133.728139 63.517686 
L 135.279735 61.996219 
L 136.83133 60.094909 
L 138.382926 57.649688 
L 139.934521 56.751781 
L 141.486117 55.670213 
L 143.037712 56.241302 
L 144.589308 55.556739 
L 146.140903 55.235169 
L 147.692499 55.325446 
L 149.244094 55.265719 
L 150.79569 55.584443 
L 152.347286 55.506812 
L 153.898881 55.993756 
L 155.450477 57.257672 
L 157.002072 58.282003 
L 158.553668 59.51303 
L 160.105263 61.092644 
L 161.656859 62.526002 
L 163.208454 64.701713 
L 164.76005 66.780462 
L 166.311645 68.91169 
L 167.863241 71.165834 
L 169.414836 73.177725 
L 170.966432 75.800145 
L 172.518027 77.644406 
L 174.069623 80.760762 
L 175.621218 82.112478 
L 177.172814 84.051862 
L 178.724409 85.355815 
" clip-path="url(#pe7f7f3a67a)" style="fill: none; stroke-dasharray: 1.8,0.5,0.5,0.5; stroke-dashoffset: 0; stroke: #009e73; stroke-width: 0.5"/>
   </g>
   <g id="line2d_28">
    <path d="M 31.322835 87.283231 
L 32.87443 87.306775 
L 34.426026 87.132049 
L 35.977621 87.168289 
L 37.529217 87.716583 
L 39.080812 88.645474 
L 40.632408 89.715359 
L 42.184003 90.686644 
L 43.735599 91.376137 
L 45.287194 91.826403 
L 46.83879 92.136393 
L 48.390385 92.405083 
L 49.941981 92.707509 
L 51.493576 93.022957 
L 53.045172 93.306765 
L 54.596768 93.5143 
L 56.148363 93.609964 
L 57.699959 93.594434 
L 59.251554 93.477431 
L 60.80315 93.2687 
L 62.354745 92.962141 
L 63.906341 92.488358 
L 65.457936 91.762111 
L 67.009532 90.698179 
L 68.561127 89.234016 
L 70.112723 87.397793 
L 71.664318 85.240401 
L 73.215914 82.812686 
L 74.767509 80.180136 
L 76.319105 77.466645 
L 77.8707 74.810738 
L 79.422296 72.350933 
L 80.973891 70.20737 
L 82.525487 68.426844 
L 84.077082 67.037745 
L 85.628678 66.068491 
L 87.180274 65.506594 
L 88.731869 65.176072 
L 90.283465 64.85999 
L 91.83506 64.341443 
L 93.386656 63.495971 
L 94.938251 62.568834 
L 96.489847 61.897739 
L 98.041442 61.820377 
L 99.593038 62.565353 
L 101.144633 63.924964 
L 102.696229 65.582386 
L 104.247824 67.220798 
L 105.79942 68.580489 
L 107.351015 69.630052 
L 108.902611 70.39519 
L 110.454206 70.901599 
L 112.005802 71.188701 
L 113.557397 71.350709 
L 115.108993 71.495589 
L 116.660588 71.731292 
L 118.212184 72.127306 
L 119.76378 72.599264 
L 121.315375 73.024375 
L 122.866971 73.279837 
L 124.418566 73.24561 
L 125.970162 72.812788 
L 127.521757 71.875226 
L 129.073353 70.326806 
L 130.624948 68.132834 
L 132.176544 65.544481 
L 133.728139 62.884335 
L 135.279735 60.475011 
L 136.83133 58.571675 
L 138.382926 57.159621 
L 139.934521 56.156683 
L 141.486117 55.480742 
L 143.037712 55.065646 
L 144.589308 54.909359 
L 146.140903 55.025894 
L 147.692499 55.429236 
L 149.244094 56.116172 
L 150.79569 57.014669 
L 152.347286 58.035465 
L 153.898881 59.089303 
L 155.450477 60.118525 
L 157.002072 61.191917 
L 158.553668 62.409825 
L 160.105263 63.8726 
L 161.656859 65.640426 
L 163.208454 67.612574 
L 164.76005 69.648134 
L 166.311645 71.606189 
L 167.863241 73.394614 
L 169.414836 75.116359 
L 170.966432 76.923179 
L 172.518027 78.966843 
L 174.069623 81.320208 
L 175.621218 83.74064 
L 177.172814 85.906636 
L 178.724409 86.652187 
" clip-path="url(#pe7f7f3a67a)" style="fill: none; stroke-dasharray: 0.5,0.6,2,0.6; stroke-dashoffset: 0; stroke: #a6611a; stroke-width: 0.5"/>
   </g>
   <g id="line2d_29">
    <path d="M 31.322835 86.919967 
L 32.87443 85.899036 
L 34.426026 87.411631 
L 35.977621 87.295172 
L 37.529217 86.775193 
L 39.080812 89.977783 
L 40.632408 87.713495 
L 42.184003 90.22843 
L 43.735599 90.836366 
L 45.287194 91.350844 
L 46.83879 93.507504 
L 48.390385 91.687395 
L 49.941981 92.165105 
L 51.493576 90.788617 
L 53.045172 91.637178 
L 54.596768 88.790431 
L 56.148363 89.431729 
L 57.699959 90.98783 
L 59.251554 90.81932 
L 60.80315 89.518641 
L 62.354745 91.868378 
L 63.906341 91.698636 
L 65.457936 91.070128 
L 67.009532 86.789156 
L 68.561127 88.861626 
L 70.112723 86.544957 
L 71.664318 85.115722 
L 73.215914 81.105926 
L 74.767509 78.061492 
L 76.319105 76.100456 
L 77.8707 73.363144 
L 79.422296 72.849176 
L 80.973891 70.672813 
L 82.525487 67.277723 
L 84.077082 63.990581 
L 85.628678 65.442432 
L 87.180274 65.212772 
L 88.731869 65.721019 
L 90.283465 66.15128 
L 91.83506 63.165877 
L 93.386656 64.04447 
L 94.938251 64.632214 
L 96.489847 64.070228 
L 98.041442 62.830178 
L 99.593038 64.124725 
L 101.144633 65.184578 
L 102.696229 63.66195 
L 104.247824 65.350807 
L 105.79942 67.063717 
L 107.351015 68.006116 
L 108.902611 70.058223 
L 110.454206 70.325538 
L 112.005802 73.592875 
L 113.557397 72.749018 
L 115.108993 74.040923 
L 116.660588 74.650015 
L 118.212184 75.518506 
L 119.76378 71.030093 
L 121.315375 72.685632 
L 122.866971 73.413722 
L 124.418566 72.400298 
L 125.970162 71.583251 
L 127.521757 72.141015 
L 129.073353 71.191851 
L 130.624948 68.916385 
L 132.176544 66.829425 
L 133.728139 68.288327 
L 135.279735 64.645619 
L 136.83133 61.371499 
L 138.382926 60.708455 
L 139.934521 59.141782 
L 141.486117 57.392021 
L 143.037712 56.527226 
L 144.589308 57.044407 
L 146.140903 55.153254 
L 147.692499 56.205735 
L 149.244094 57.538767 
L 150.79569 57.087078 
L 152.347286 60.143703 
L 153.898881 60.805283 
L 155.450477 60.119284 
L 157.002072 63.708316 
L 158.553668 63.73286 
L 160.105263 66.52956 
L 161.656859 66.100424 
L 163.208454 70.472356 
L 164.76005 71.373932 
L 166.311645 70.985334 
L 167.863241 77.543159 
L 169.414836 77.957667 
L 170.966432 80.911113 
L 172.518027 85.475385 
L 174.069623 85.327407 
L 175.621218 86.799291 
L 177.172814 86.072013 
L 178.724409 89.628246 
" clip-path="url(#pe7f7f3a67a)" style="fill: none; stroke-dasharray: 1.5,0.5,0.5,0.5,0.5,0.5; stroke-dashoffset: 0; stroke: #023e8a; stroke-width: 0.5"/>
   </g>
   <g id="line2d_30">
    <path d="M 31.322835 84.982939 
L 32.87443 86.058027 
L 34.426026 86.477823 
L 35.977621 85.771336 
L 37.529217 87.440285 
L 39.080812 86.784988 
L 40.632408 88.054616 
L 42.184003 88.873733 
L 43.735599 90.286707 
L 45.287194 90.839606 
L 46.83879 91.08534 
L 48.390385 90.901038 
L 49.941981 91.761112 
L 51.493576 91.08534 
L 53.045172 91.372032 
L 54.596768 92.006846 
L 56.148363 91.331075 
L 57.699959 91.781586 
L 59.251554 91.47442 
L 60.80315 91.494894 
L 62.354745 91.47442 
L 63.906341 90.941995 
L 65.457936 90.143361 
L 67.009532 88.60752 
L 68.561127 87.133111 
L 70.112723 83.948808 
L 71.664318 81.102387 
L 73.215914 79.566546 
L 74.767509 76.003396 
L 76.319105 74.979511 
L 77.8707 72.726947 
L 79.422296 72.122844 
L 80.973891 70.430863 
L 82.525487 69.898438 
L 84.077082 68.902703 
L 85.628678 69.286659 
L 87.180274 68.18086 
L 88.731869 68.55458 
L 90.283465 67.80714 
L 91.83506 67.491014 
L 93.386656 66.55223 
L 94.938251 66.819081 
L 96.489847 65.954848 
L 98.041442 66.154189 
L 99.593038 66.46712 
L 101.144633 67.18384 
L 102.696229 68.078472 
L 104.247824 70.36687 
L 105.79942 72.214995 
L 107.351015 72.28155 
L 108.902611 73.945371 
L 110.454206 74.365171 
L 112.005802 74.774725 
L 113.557397 74.165508 
L 115.108993 74.728654 
L 116.660588 74.528991 
L 118.212184 74.27302 
L 119.76378 75.291791 
L 121.315375 75.670634 
L 122.866971 75.071654 
L 124.418566 74.651863 
L 125.970162 74.621143 
L 127.521757 72.839572 
L 129.073353 70.889059 
L 130.624948 69.624545 
L 132.176544 67.874971 
L 133.728139 65.772633 
L 135.279735 63.447909 
L 136.83133 61.430842 
L 138.382926 59.534084 
L 139.934521 57.342951 
L 141.486117 56.974354 
L 143.037712 57.184245 
L 144.589308 56.692777 
L 146.140903 55.960697 
L 147.692499 56.508483 
L 149.244094 57.429979 
L 150.79569 57.445339 
L 152.347286 58.68937 
L 153.898881 58.981185 
L 155.450477 60.194495 
L 157.002072 61.69962 
L 158.553668 62.807981 
L 160.105263 64.204319 
L 161.656859 65.312599 
L 163.208454 66.852353 
L 164.76005 68.354917 
L 166.311645 70.873699 
L 167.863241 72.430009 
L 169.414836 73.72012 
L 170.966432 76.996579 
L 172.518027 78.645041 
L 174.069623 81.081908 
L 175.621218 83.354947 
L 177.172814 84.972698 
L 178.724409 86.928334 
" clip-path="url(#pe7f7f3a67a)" style="fill: none; stroke-dasharray: 3,0.6; stroke-dashoffset: 0; stroke: #2166ac; stroke-width: 0.5"/>
   </g>
   <g id="line2d_31">
    <path d="M 31.322835 83.825941 
L 32.87443 84.440277 
L 34.426026 84.870309 
L 35.977621 85.146763 
L 37.529217 85.689426 
L 39.080812 86.180894 
L 40.632408 87.153594 
L 42.184003 87.849839 
L 43.735599 87.931754 
L 45.287194 89.46759 
L 46.83879 89.836191 
L 48.390385 90.102404 
L 49.941981 90.430048 
L 51.493576 90.798649 
L 53.045172 91.208208 
L 54.596768 90.511958 
L 56.148363 90.860085 
L 57.699959 90.982952 
L 59.251554 90.757692 
L 60.80315 91.064862 
L 62.354745 90.798649 
L 63.906341 90.778175 
L 65.457936 89.447111 
L 67.009532 88.587042 
L 68.561127 86.477823 
L 70.112723 84.583618 
L 71.664318 82.044366 
L 73.215914 78.716718 
L 74.767509 76.66893 
L 76.319105 73.392472 
L 77.8707 71.498267 
L 79.422296 68.820788 
L 80.973891 66.781961 
L 82.525487 65.228525 
L 84.077082 64.000818 
L 85.628678 63.136906 
L 87.180274 62.65696 
L 88.731869 61.300295 
L 90.283465 60.621971 
L 91.83506 60.289208 
L 93.386656 59.851487 
L 94.938251 59.493127 
L 96.489847 59.191076 
L 98.041442 59.958998 
L 99.593038 60.163775 
L 101.144633 61.714972 
L 102.696229 62.651837 
L 104.247824 64.903125 
L 105.79942 66.463274 
L 107.351015 67.219683 
L 108.902611 68.41891 
L 110.454206 68.956458 
L 112.005802 69.614308 
L 113.557397 70.428302 
L 115.108993 70.889059 
L 116.660588 70.970964 
L 118.212184 71.564821 
L 119.76378 72.245715 
L 121.315375 72.148441 
L 122.866971 72.880529 
L 124.418566 72.593838 
L 125.970162 72.353218 
L 127.521757 71.175741 
L 129.073353 69.944518 
L 130.624948 68.372839 
L 132.176544 65.872621 
L 133.728139 63.569505 
L 135.279735 61.38477 
L 136.83133 59.918041 
L 138.382926 57.865139 
L 139.934521 56.656943 
L 141.486117 55.5153 
L 143.037712 54.726904 
L 144.589308 54.460695 
L 146.140903 53.805407 
L 147.692499 54.399264 
L 149.244094 53.918033 
L 150.79569 54.604041 
L 152.347286 54.998235 
L 153.898881 55.54602 
L 155.450477 56.242266 
L 157.002072 57.624519 
L 158.553668 58.121111 
L 160.105263 59.10917 
L 161.656859 60.726921 
L 163.208454 62.421463 
L 164.76005 64.949839 
L 166.311645 66.659099 
L 167.863241 68.32932 
L 169.414836 71.569944 
L 170.966432 73.842983 
L 172.518027 76.587016 
L 174.069623 78.911253 
L 175.621218 80.795217 
L 177.172814 82.40273 
L 178.724409 84.593859 
" clip-path="url(#pe7f7f3a67a)" style="fill: none; stroke-dasharray: 1,0.5,2.5,0.5; stroke-dashoffset: 0; stroke: #b35806; stroke-width: 0.5"/>
   </g>
   <g id="line2d_32">
    <path d="M 31.322835 84.389082 
L 32.87443 85.075091 
L 34.426026 85.320825 
L 35.977621 85.720142 
L 37.529217 86.170657 
L 39.080812 86.825945 
L 40.632408 87.255982 
L 42.184003 88.30035 
L 43.735599 88.60752 
L 45.287194 89.529021 
L 46.83879 90.061447 
L 48.390385 90.307181 
L 49.941981 90.491484 
L 51.493576 90.655303 
L 53.045172 90.880563 
L 54.596768 90.573394 
L 56.148363 91.126298 
L 57.699959 90.901038 
L 59.251554 90.655303 
L 60.80315 90.696261 
L 62.354745 90.327659 
L 63.906341 90.040972 
L 65.457936 88.648473 
L 67.009532 87.624584 
L 68.561127 85.587037 
L 70.112723 83.692832 
L 71.664318 81.327642 
L 73.215914 78.071658 
L 74.767509 75.639913 
L 76.319105 73.044349 
L 77.8707 71.001684 
L 79.422296 68.552018 
L 80.973891 66.715407 
L 82.525487 65.390551 
L 84.077082 64.330385 
L 85.628678 63.810116 
L 87.180274 63.44151 
L 88.731869 62.50593 
L 90.283465 62.093814 
L 91.83506 61.717533 
L 93.386656 61.505081 
L 94.938251 61.377086 
L 96.489847 61.164633 
L 98.041442 61.784087 
L 99.593038 62.395866 
L 101.144633 63.691091 
L 102.696229 64.723303 
L 104.247824 66.479919 
L 105.79942 68.015755 
L 107.351015 68.856631 
L 108.902611 69.877964 
L 110.454206 70.435986 
L 112.005802 71.063116 
L 113.557397 71.585304 
L 115.108993 71.89247 
L 116.660588 71.871996 
L 118.212184 72.363464 
L 119.76378 72.450492 
L 121.315375 72.29691 
L 122.866971 72.547758 
L 124.418566 72.035815 
L 125.970162 71.447073 
L 127.521757 70.36687 
L 129.073353 68.966695 
L 130.624948 67.475654 
L 132.176544 65.103422 
L 133.728139 62.810543 
L 135.279735 60.673165 
L 136.83133 59.201322 
L 138.382926 57.363434 
L 139.934521 55.96582 
L 141.486117 55.151826 
L 143.037712 54.358307 
L 144.589308 53.989701 
L 146.140903 53.621104 
L 147.692499 54.296875 
L 149.244094 53.999938 
L 150.79569 54.93168 
L 152.347286 55.151826 
L 153.898881 56.119403 
L 155.450477 56.928274 
L 157.002072 58.366845 
L 158.553668 59.052853 
L 160.105263 60.056273 
L 161.656859 61.809684 
L 163.208454 63.243132 
L 164.76005 65.806388 
L 166.311645 67.679155 
L 167.863241 69.473524 
L 169.414836 72.368578 
L 170.966432 74.67746 
L 172.518027 77.05801 
L 174.069623 79.34129 
L 175.621218 81.081908 
L 177.172814 82.863479 
L 178.724409 84.614338 
" clip-path="url(#pe7f7f3a67a)" style="fill: none; stroke: #e63946; stroke-width: 0.5; stroke-linecap: square"/>
   </g>
   <g id="patch_3">
    <path d="M 31.322835 98.233138 
L 31.322835 16.667717 
" style="fill: none; stroke: #000000; stroke-width: 0.5; stroke-linejoin: miter; stroke-linecap: square"/>
   </g>
   <g id="patch_4">
    <path d="M 178.724409 98.233138 
L 178.724409 16.667717 
" style="fill: none; stroke: #000000; stroke-width: 0.5; stroke-linejoin: miter; stroke-linecap: square"/>
   </g>
   <g id="patch_5">
    <path d="M 31.322835 98.233138 
L 178.724409 98.233138 
" style="fill: none; stroke: #000000; stroke-width: 0.5; stroke-linejoin: miter; stroke-linecap: square"/>
   </g>
   <g id="patch_6">
    <path d="M 31.322835 16.667717 
L 178.724409 16.667717 
" style="fill: none; stroke: #000000; stroke-width: 0.5; stroke-linejoin: miter; stroke-linecap: square"/>
   </g>
   <g id="text_13">
    <text style="font-size: 6.5px; font-family: 'SimSun', 'Times New Roman'; text-anchor: start" x="33.533858" y="27.556984" transform="rotate(-0 33.533858 27.556984)">2024年11月24日</text>
   </g>
   <g id="text_14">
    <text style="font-size: 7.5px; font-family: 'SimSun', 'Times New Roman'; text-anchor: middle" x="105.023622" y="14.667717" transform="rotate(-0 105.023622 14.667717)">（a）负荷预测曲线</text>
   </g>
   <g id="line2d_33">
    <path d="M 31.322835 84.221902 
L 32.87443 84.501851 
L 34.426026 84.575621 
L 35.977621 84.813086 
L 37.529217 85.486791 
L 39.080812 86.480045 
L 40.632408 87.578838 
L 42.184003 88.569156 
L 43.735599 89.289664 
L 45.287194 89.78974 
L 46.83879 90.171426 
L 48.390385 90.536765 
L 49.941981 90.962192 
L 51.493576 91.421682 
L 53.045172 91.863612 
L 54.596768 92.236336 
L 56.148363 92.492236 
L 57.699959 92.599694 
L 59.251554 92.531096 
L 60.80315 92.258841 
L 62.354745 91.762834 
L 63.906341 91.053081 
L 65.457936 90.147105 
L 67.009532 89.062427 
L 68.561127 87.794231 
L 70.112723 86.248305 
L 71.664318 84.308109 
L 73.215914 81.857082 
L 74.767509 78.853102 
L 76.319105 75.551716 
L 77.8707 72.282888 
L 79.422296 69.376588 
L 80.973891 67.100033 
L 82.525487 65.469413 
L 84.077082 64.438191 
L 85.628678 63.959798 
L 87.180274 63.949508 
L 88.731869 64.169796 
L 90.283465 64.34496 
L 91.83506 64.199285 
L 93.386656 63.567818 
L 94.938251 62.728521 
L 96.489847 62.070109 
L 98.041442 61.981269 
L 99.593038 62.735563 
L 101.144633 64.145815 
L 102.696229 65.909696 
L 104.247824 67.724896 
L 105.79942 69.330107 
L 107.351015 70.628206 
L 108.902611 71.563099 
L 110.454206 72.0787 
L 112.005802 72.164149 
L 113.557397 71.989521 
L 115.108993 71.770134 
L 116.660588 71.721313 
L 118.212184 71.991618 
L 119.76378 72.462532 
L 121.315375 72.948806 
L 122.866971 73.265164 
L 124.418566 73.247921 
L 125.970162 72.819678 
L 127.521757 71.924618 
L 129.073353 70.506923 
L 130.624948 68.550403 
L 132.176544 66.197413 
L 133.728139 63.629945 
L 135.279735 61.02999 
L 136.83133 58.568989 
L 138.382926 56.376231 
L 139.934521 54.570465 
L 141.486117 53.27042 
L 143.037712 52.557467 
L 144.589308 52.363338 
L 146.140903 52.582386 
L 147.692499 53.108957 
L 149.244094 53.843178 
L 150.79569 54.708259 
L 152.347286 55.633192 
L 153.898881 56.546959 
L 155.450477 57.408131 
L 157.002072 58.293623 
L 158.553668 59.309958 
L 160.105263 60.563628 
L 161.656859 62.126123 
L 163.208454 63.928757 
L 164.76005 65.867837 
L 166.311645 67.839663 
L 167.863241 69.774629 
L 169.414836 71.739538 
L 170.966432 73.835325 
L 172.518027 76.162887 
L 174.069623 78.749196 
L 175.621218 81.325456 
L 177.172814 83.548929 
L 178.724409 85.076871 
" clip-path="url(#pe7f7f3a67a)" style="fill: none; stroke: #000000; stroke-width: 0.5; stroke-linecap: square"/>
   </g>
  </g>
  <g id="axes_2">
   <g id="patch_7">
    <path d="M 31.322835 208.346457 
L 178.724409 208.346457 
L 178.724409 126.781035 
L 31.322835 126.781035 
z
" style="fill: #ffffff"/>
   </g>
   <g id="matplotlib.axis_3">
    <g id="xtick_6">
     <g id="line2d_34">
      <path d="M 31.322835 208.346457 
L 31.322835 126.781035 
" clip-path="url(#p4f975fe4ba)" style="fill: none; stroke-dasharray: 0.25,0.4125; stroke-dashoffset: 0; stroke: #b0b0b0; stroke-opacity: 0.45; stroke-width: 0.25"/>
     </g>
     <g id="line2d_35">
      <g>
       <use xlink:href="#mb3708df902" x="31.322835" y="208.346457" style="stroke: #000000; stroke-width: 0.5"/>
      </g>
     </g>
     <g id="text_15">
      <text style="font-size: 6.5px; font-family: 'SimSun', 'Times New Roman'; text-anchor: start" x="31.322835" y="216.492941" transform="rotate(-0 31.322835 216.492941)">0</text>
     </g>
    </g>
    <g id="xtick_7">
     <g id="line2d_36">
      <path d="M 68.561127 208.346457 
L 68.561127 126.781035 
" clip-path="url(#p4f975fe4ba)" style="fill: none; stroke-dasharray: 0.25,0.4125; stroke-dashoffset: 0; stroke: #b0b0b0; stroke-opacity: 0.45; stroke-width: 0.25"/>
     </g>
     <g id="line2d_37">
      <g>
       <use xlink:href="#mb3708df902" x="68.561127" y="208.346457" style="stroke: #000000; stroke-width: 0.5"/>
      </g>
     </g>
     <g id="text_16">
      <text style="font-size: 6.5px; font-family: 'SimSun', 'Times New Roman'; text-anchor: middle" x="68.561127" y="216.492941" transform="rotate(-0 68.561127 216.492941)">6</text>
     </g>
    </g>
    <g id="xtick_8">
     <g id="line2d_38">
      <path d="M 105.79942 208.346457 
L 105.79942 126.781035 
" clip-path="url(#p4f975fe4ba)" style="fill: none; stroke-dasharray: 0.25,0.4125; stroke-dashoffset: 0; stroke: #b0b0b0; stroke-opacity: 0.45; stroke-width: 0.25"/>
     </g>
     <g id="line2d_39">
      <g>
       <use xlink:href="#mb3708df902" x="105.79942" y="208.346457" style="stroke: #000000; stroke-width: 0.5"/>
      </g>
     </g>
     <g id="text_17">
      <text style="font-size: 6.5px; font-family: 'SimSun', 'Times New Roman'; text-anchor: middle" x="105.79942" y="216.492941" transform="rotate(-0 105.79942 216.492941)">12</text>
     </g>
    </g>
    <g id="xtick_9">
     <g id="line2d_40">
      <path d="M 143.037712 208.346457 
L 143.037712 126.781035 
" clip-path="url(#p4f975fe4ba)" style="fill: none; stroke-dasharray: 0.25,0.4125; stroke-dashoffset: 0; stroke: #b0b0b0; stroke-opacity: 0.45; stroke-width: 0.25"/>
     </g>
     <g id="line2d_41">
      <g>
       <use xlink:href="#mb3708df902" x="143.037712" y="208.346457" style="stroke: #000000; stroke-width: 0.5"/>
      </g>
     </g>
     <g id="text_18">
      <text style="font-size: 6.5px; font-family: 'SimSun', 'Times New Roman'; text-anchor: middle" x="143.037712" y="216.492941" transform="rotate(-0 143.037712 216.492941)">18</text>
     </g>
    </g>
    <g id="xtick_10">
     <g id="line2d_42">
      <path d="M 178.724409 208.346457 
L 178.724409 126.781035 
" clip-path="url(#p4f975fe4ba)" style="fill: none; stroke-dasharray: 0.25,0.4125; stroke-dashoffset: 0; stroke: #b0b0b0; stroke-opacity: 0.45; stroke-width: 0.25"/>
     </g>
     <g id="line2d_43">
      <g>
       <use xlink:href="#mb3708df902" x="178.724409" y="208.346457" style="stroke: #000000; stroke-width: 0.5"/>
      </g>
     </g>
     <g id="text_19">
      <text style="font-size: 6.5px; font-family: 'SimSun', 'Times New Roman'; text-anchor: end" x="178.724409" y="216.492941" transform="rotate(-0 178.724409 216.492941)">24</text>
     </g>
    </g>
    <g id="text_20">
     <text style="font-size: 7.5px; font-family: 'SimSun', 'Times New Roman'; text-anchor: middle" x="105.023622" y="227.2488" transform="rotate(-0 105.023622 227.2488)">时刻/h</text>
    </g>
   </g>
   <g id="matplotlib.axis_4">
    <g id="ytick_7">
     <g id="line2d_44">
      <path d="M 31.322835 204.641314 
L 178.724409 204.641314 
" clip-path="url(#p4f975fe4ba)" style="fill: none; stroke-dasharray: 0.25,0.4125; stroke-dashoffset: 0; stroke: #b0b0b0; stroke-opacity: 0.45; stroke-width: 0.25"/>
     </g>
     <g id="line2d_45">
      <g>
       <use xlink:href="#m852a4297bc" x="31.322835" y="204.641314" style="stroke: #000000; stroke-width: 0.5"/>
      </g>
     </g>
     <g id="text_21">
      <text style="font-size: 6.5px; font-family: 'SimSun', 'Times New Roman'; text-anchor: end" x="27.822835" y="206.964557" transform="rotate(-0 27.822835 206.964557)">0.0</text>
     </g>
    </g>
    <g id="ytick_8">
     <g id="line2d_46">
      <path d="M 31.322835 189.24483 
L 178.724409 189.24483 
" clip-path="url(#p4f975fe4ba)" style="fill: none; stroke-dasharray: 0.25,0.4125; stroke-dashoffset: 0; stroke: #b0b0b0; stroke-opacity: 0.45; stroke-width: 0.25"/>
     </g>
     <g id="line2d_47">
      <g>
       <use xlink:href="#m852a4297bc" x="31.322835" y="189.24483" style="stroke: #000000; stroke-width: 0.5"/>
      </g>
     </g>
     <g id="text_22">
      <text style="font-size: 6.5px; font-family: 'SimSun', 'Times New Roman'; text-anchor: end" x="27.822835" y="191.568072" transform="rotate(-0 27.822835 191.568072)">0.1</text>
     </g>
    </g>
    <g id="ytick_9">
     <g id="line2d_48">
      <path d="M 31.322835 173.848346 
L 178.724409 173.848346 
" clip-path="url(#p4f975fe4ba)" style="fill: none; stroke-dasharray: 0.25,0.4125; stroke-dashoffset: 0; stroke: #b0b0b0; stroke-opacity: 0.45; stroke-width: 0.25"/>
     </g>
     <g id="line2d_49">
      <g>
       <use xlink:href="#m852a4297bc" x="31.322835" y="173.848346" style="stroke: #000000; stroke-width: 0.5"/>
      </g>
     </g>
     <g id="text_23">
      <text style="font-size: 6.5px; font-family: 'SimSun', 'Times New Roman'; text-anchor: end" x="27.822835" y="176.171588" transform="rotate(-0 27.822835 176.171588)">0.2</text>
     </g>
    </g>
    <g id="ytick_10">
     <g id="line2d_50">
      <path d="M 31.322835 158.451861 
L 178.724409 158.451861 
" clip-path="url(#p4f975fe4ba)" style="fill: none; stroke-dasharray: 0.25,0.4125; stroke-dashoffset: 0; stroke: #b0b0b0; stroke-opacity: 0.45; stroke-width: 0.25"/>
     </g>
     <g id="line2d_51">
      <g>
       <use xlink:href="#m852a4297bc" x="31.322835" y="158.451861" style="stroke: #000000; stroke-width: 0.5"/>
      </g>
     </g>
     <g id="text_24">
      <text style="font-size: 6.5px; font-family: 'SimSun', 'Times New Roman'; text-anchor: end" x="27.822835" y="160.775104" transform="rotate(-0 27.822835 160.775104)">0.3</text>
     </g>
    </g>
    <g id="ytick_11">
     <g id="line2d_52">
      <path d="M 31.322835 143.055377 
L 178.724409 143.055377 
" clip-path="url(#p4f975fe4ba)" style="fill: none; stroke-dasharray: 0.25,0.4125; stroke-dashoffset: 0; stroke: #b0b0b0; stroke-opacity: 0.45; stroke-width: 0.25"/>
     </g>
     <g id="line2d_53">
      <g>
       <use xlink:href="#m852a4297bc" x="31.322835" y="143.055377" style="stroke: #000000; stroke-width: 0.5"/>
      </g>
     </g>
     <g id="text_25">
      <text style="font-size: 6.5px; font-family: 'SimSun', 'Times New Roman'; text-anchor: end" x="27.822835" y="145.378619" transform="rotate(-0 27.822835 145.378619)">0.4</text>
     </g>
    </g>
    <g id="ytick_12">
     <g id="line2d_54">
      <path d="M 31.322835 127.658893 
L 178.724409 127.658893 
" clip-path="url(#p4f975fe4ba)" style="fill: none; stroke-dasharray: 0.25,0.4125; stroke-dashoffset: 0; stroke: #b0b0b0; stroke-opacity: 0.45; stroke-width: 0.25"/>
     </g>
     <g id="line2d_55">
      <g>
       <use xlink:href="#m852a4297bc" x="31.322835" y="127.658893" style="stroke: #000000; stroke-width: 0.5"/>
      </g>
     </g>
     <g id="text_26">
      <text style="font-size: 6.5px; font-family: 'SimSun', 'Times New Roman'; text-anchor: end" x="27.822835" y="129.982135" transform="rotate(-0 27.822835 129.982135)">0.5</text>
     </g>
    </g>
    <g id="text_27">
     <text style="font-size: 7.5px; font-family: 'SimSun', 'Times New Roman'; text-anchor: middle" x="13.106038" y="167.563746" transform="rotate(-90 13.106038 167.563746)">归一化绝对误差</text>
    </g>
   </g>
   <g id="line2d_56">
    <path d="M 31.322835 204.404393 
L 32.87443 203.443778 
L 34.426026 201.411977 
L 35.977621 198.011849 
L 37.529217 193.09318 
L 39.080812 186.947487 
L 40.632408 180.000909 
L 42.184003 172.705862 
L 43.735599 165.477594 
L 45.287194 158.521791 
L 46.83879 151.986956 
L 48.390385 146.008588 
L 49.941981 140.726119 
L 51.493576 136.353452 
L 53.045172 133.092706 
L 54.596768 131.102242 
L 56.148363 130.488555 
L 57.699959 131.29193 
L 59.251554 133.498714 
L 60.80315 137.047304 
L 62.354745 141.824227 
L 63.906341 147.646391 
L 65.457936 154.291304 
L 67.009532 161.513003 
L 68.561127 169.074109 
L 70.112723 176.824394 
L 71.664318 184.641566 
L 73.215914 192.417846 
L 74.767509 199.9923 
L 76.319105 202.353395 
L 77.8707 196.528216 
L 79.422296 192.245931 
L 80.973891 189.826635 
L 82.525487 189.284235 
L 84.077082 190.520404 
L 85.628678 193.391254 
L 87.180274 197.672142 
L 88.731869 202.945405 
L 90.283465 200.557416 
L 91.83506 194.777705 
L 93.386656 189.40276 
L 94.938251 184.384437 
L 96.489847 179.553944 
L 98.041442 174.72669 
L 99.593038 169.812241 
L 101.144633 165.162286 
L 102.696229 161.209183 
L 104.247824 158.342931 
L 105.79942 156.866116 
L 107.351015 156.866133 
L 108.902611 158.342533 
L 110.454206 161.251709 
L 112.005802 165.464598 
L 113.557397 170.632845 
L 115.108993 176.335321 
L 116.660588 182.132622 
L 118.212184 187.644404 
L 119.76378 192.76435 
L 121.315375 197.463159 
L 122.866971 201.728576 
L 124.418566 203.731569 
L 125.970162 200.418479 
L 127.521757 197.666037 
L 129.073353 195.483998 
L 130.624948 193.878924 
L 132.176544 192.975748 
L 133.728139 192.896574 
L 135.279735 193.722688 
L 136.83133 195.488075 
L 138.382926 198.152699 
L 139.934521 201.64197 
L 141.486117 203.417209 
L 143.037712 198.595877 
L 144.589308 193.465542 
L 146.140903 188.343624 
L 147.692499 183.529494 
L 149.244094 179.291091 
L 150.79569 175.840751 
L 152.347286 173.347896 
L 153.898881 171.94137 
L 155.450477 171.677004 
L 157.002072 172.446034 
L 158.553668 174.067723 
L 160.105263 176.322831 
L 161.656859 178.994087 
L 163.208454 181.980154 
L 164.76005 185.194394 
L 166.311645 188.536595 
L 167.863241 191.866119 
L 169.414836 194.905073 
L 170.966432 197.351705 
L 172.518027 198.923275 
L 174.069623 199.438985 
L 175.621218 199.053989 
L 177.172814 198.035922 
L 178.724409 196.692046 
" clip-path="url(#p4f975fe4ba)" style="fill: none; stroke-dasharray: 0.6,0.5; stroke-dashoffset: 0; stroke: #8c510a; stroke-width: 0.5"/>
   </g>
   <g id="line2d_57">
    <path d="M 31.322835 204.190319 
L 32.87443 202.330614 
L 34.426026 201.944473 
L 35.977621 202.264374 
L 37.529217 204.13962 
L 39.080812 203.495027 
L 40.632408 202.737138 
L 42.184003 204.025752 
L 43.735599 204.475265 
L 45.287194 203.85778 
L 46.83879 202.931392 
L 48.390385 203.257406 
L 49.941981 203.833122 
L 51.493576 202.035495 
L 53.045172 200.502309 
L 54.596768 199.093292 
L 56.148363 199.01626 
L 57.699959 198.576718 
L 59.251554 199.00115 
L 60.80315 197.169757 
L 62.354745 196.357232 
L 63.906341 194.705213 
L 65.457936 196.438316 
L 67.009532 195.800674 
L 68.561127 195.112305 
L 70.112723 195.619882 
L 71.664318 197.682481 
L 73.215914 197.506443 
L 74.767509 199.794857 
L 76.319105 200.940663 
L 77.8707 202.755492 
L 79.422296 203.465812 
L 80.973891 204.06095 
L 82.525487 204.31352 
L 84.077082 203.971832 
L 85.628678 204.604441 
L 87.180274 203.708718 
L 88.731869 200.575188 
L 90.283465 200.003799 
L 91.83506 199.995733 
L 93.386656 202.451008 
L 94.938251 200.75469 
L 96.489847 203.141321 
L 98.041442 202.71359 
L 99.593038 203.662227 
L 101.144633 202.875647 
L 102.696229 200.947546 
L 104.247824 201.282397 
L 105.79942 199.838833 
L 107.351015 199.118428 
L 108.902611 200.716386 
L 110.454206 198.285834 
L 112.005802 202.18849 
L 113.557397 201.377581 
L 115.108993 203.856358 
L 116.660588 204.590198 
L 118.212184 202.648359 
L 119.76378 202.977521 
L 121.315375 202.110687 
L 122.866971 201.017713 
L 124.418566 200.439423 
L 125.970162 202.289116 
L 127.521757 202.379785 
L 129.073353 202.500343 
L 130.624948 204.407484 
L 132.176544 201.809837 
L 133.728139 202.703366 
L 135.279735 200.799603 
L 136.83133 199.497567 
L 138.382926 198.872851 
L 139.934521 196.995416 
L 141.486117 196.111834 
L 143.037712 195.720095 
L 144.589308 197.469492 
L 146.140903 199.238124 
L 147.692499 199.51883 
L 149.244094 199.47367 
L 150.79569 199.454536 
L 152.347286 201.341845 
L 153.898881 202.294044 
L 155.450477 203.119966 
L 157.002072 204.030868 
L 158.553668 202.747618 
L 160.105263 203.122931 
L 161.656859 202.811637 
L 163.208454 204.198156 
L 164.76005 202.94475 
L 166.311645 203.917385 
L 167.863241 203.705277 
L 169.414836 203.886284 
L 170.966432 201.585872 
L 172.518027 204.232304 
L 174.069623 204.163233 
L 175.621218 204.521843 
L 177.172814 203.687281 
L 178.724409 203.830896 
" clip-path="url(#p4f975fe4ba)" style="fill: none; stroke-dasharray: 2.4,0.6; stroke-dashoffset: 0; stroke: #7209b7; stroke-width: 0.5"/>
   </g>
   <g id="line2d_58">
    <path d="M 31.322835 202.489886 
L 32.87443 202.478626 
L 34.426026 203.131355 
L 35.977621 203.110991 
L 37.529217 202.992888 
L 39.080812 201.026697 
L 40.632408 200.397438 
L 42.184003 199.849015 
L 43.735599 199.742892 
L 45.287194 199.836241 
L 46.83879 200.067075 
L 48.390385 200.320186 
L 49.941981 200.443498 
L 51.493576 200.405156 
L 53.045172 200.284588 
L 54.596768 200.167889 
L 56.148363 199.938844 
L 57.699959 199.806388 
L 59.251554 199.736945 
L 60.80315 200.079005 
L 62.354745 200.640574 
L 63.906341 202.846005 
L 65.457936 202.840471 
L 67.009532 202.114858 
L 68.561127 201.36042 
L 70.112723 201.415619 
L 71.664318 201.943495 
L 73.215914 203.335883 
L 74.767509 203.208075 
L 76.319105 203.81374 
L 77.8707 204.358222 
L 79.422296 199.843302 
L 80.973891 200.69035 
L 82.525487 194.923254 
L 84.077082 195.208733 
L 85.628678 200.814084 
L 87.180274 193.961989 
L 88.731869 195.392494 
L 90.283465 202.522028 
L 91.83506 196.370479 
L 93.386656 195.82631 
L 94.938251 195.128122 
L 96.489847 194.659672 
L 98.041442 194.704511 
L 99.593038 195.928331 
L 101.144633 197.105696 
L 102.696229 198.787413 
L 104.247824 200.647466 
L 105.79942 202.352033 
L 107.351015 203.753823 
L 108.902611 204.527529 
L 110.454206 203.930435 
L 112.005802 203.87273 
L 113.557397 204.002943 
L 115.108993 204.156291 
L 116.660588 204.075175 
L 118.212184 203.62819 
L 119.76378 202.963471 
L 121.315375 202.171402 
L 122.866971 201.599334 
L 124.418566 201.623286 
L 125.970162 203.2195 
L 127.521757 204.604037 
L 129.073353 202.683416 
L 130.624948 201.793584 
L 132.176544 200.989998 
L 133.728139 200.539765 
L 135.279735 198.369757 
L 136.83133 196.47931 
L 138.382926 193.973286 
L 139.934521 190.354227 
L 141.486117 188.959026 
L 143.037712 189.592094 
L 144.589308 190.983449 
L 146.140903 190.032389 
L 147.692499 193.351745 
L 149.244094 190.40215 
L 150.79569 190.979558 
L 152.347286 191.687235 
L 153.898881 192.32669 
L 155.450477 192.899024 
L 157.002072 193.528237 
L 158.553668 194.154376 
L 160.105263 195.015447 
L 161.656859 196.059892 
L 163.208454 197.427663 
L 164.76005 198.935998 
L 166.311645 200.429026 
L 167.863241 201.905122 
L 169.414836 203.257934 
L 170.966432 204.589565 
L 172.518027 202.870865 
L 174.069623 200.821811 
L 175.621218 198.707114 
L 177.172814 196.911295 
L 178.724409 195.868093 
" clip-path="url(#p4f975fe4ba)" style="fill: none; stroke-dasharray: 1.2,0.6; stroke-dashoffset: 0; stroke: #4b5563; stroke-width: 0.5"/>
   </g>
   <g id="line2d_59">
    <path d="M 31.322835 201.508968 
L 32.87443 204.376337 
L 34.426026 204.600646 
L 35.977621 203.4747 
L 37.529217 202.596257 
L 39.080812 201.40374 
L 40.632408 203.49588 
L 42.184003 202.808526 
L 43.735599 203.479866 
L 45.287194 200.131442 
L 46.83879 202.638705 
L 48.390385 200.244288 
L 49.941981 199.740313 
L 51.493576 202.039143 
L 53.045172 202.223633 
L 54.596768 200.836013 
L 56.148363 200.065193 
L 57.699959 198.896743 
L 59.251554 201.432088 
L 60.80315 200.737268 
L 62.354745 200.858079 
L 63.906341 201.26836 
L 65.457936 201.557248 
L 67.009532 200.813254 
L 68.561127 200.913751 
L 70.112723 201.160641 
L 71.664318 200.374638 
L 73.215914 201.445523 
L 74.767509 201.45319 
L 76.319105 203.870748 
L 77.8707 202.141907 
L 79.422296 204.047882 
L 80.973891 204.549012 
L 82.525487 204.578057 
L 84.077082 202.175853 
L 85.628678 204.051342 
L 87.180274 201.847701 
L 88.731869 202.256106 
L 90.283465 203.449541 
L 91.83506 203.034418 
L 93.386656 204.055316 
L 94.938251 203.969557 
L 96.489847 202.74525 
L 98.041442 202.779719 
L 99.593038 201.802972 
L 101.144633 203.250399 
L 102.696229 203.43818 
L 104.247824 204.43552 
L 105.79942 203.151389 
L 107.351015 203.020185 
L 108.902611 203.812914 
L 110.454206 204.570165 
L 112.005802 203.412227 
L 113.557397 202.705422 
L 115.108993 203.395433 
L 116.660588 203.764946 
L 118.212184 204.544974 
L 119.76378 203.519433 
L 121.315375 200.323664 
L 122.866971 203.979716 
L 124.418566 201.373368 
L 125.970162 200.637546 
L 127.521757 200.657533 
L 129.073353 203.691906 
L 130.624948 203.044274 
L 132.176544 203.006869 
L 133.728139 202.927139 
L 135.279735 204.526014 
L 136.83133 203.136999 
L 138.382926 200.640859 
L 139.934521 202.61602 
L 141.486117 201.712735 
L 143.037712 201.909967 
L 144.589308 201.440581 
L 146.140903 202.946567 
L 147.692499 201.957073 
L 149.244094 202.562655 
L 150.79569 203.254474 
L 152.347286 203.796349 
L 153.898881 204.463959 
L 155.450477 203.470428 
L 157.002072 202.719022 
L 158.553668 201.606456 
L 160.105263 204.438043 
L 161.656859 204.1011 
L 163.208454 204.30906 
L 164.76005 201.779029 
L 166.311645 203.059829 
L 167.863241 203.732129 
L 169.414836 204.495069 
L 170.966432 202.534463 
L 172.518027 202.375774 
L 174.069623 204.308078 
L 175.621218 204.229216 
L 177.172814 202.907812 
L 178.724409 203.817168 
" clip-path="url(#p4f975fe4ba)" style="fill: none; stroke-dasharray: 2.5,0.5,0.5,0.5; stroke-dashoffset: 0; stroke: #c51b7d; stroke-width: 0.5"/>
   </g>
   <g id="line2d_60">
    <path d="M 31.322835 203.900839 
L 32.87443 203.239419 
L 34.426026 202.9409 
L 35.977621 202.467255 
L 37.529217 202.395812 
L 39.080812 203.514661 
L 40.632408 203.430315 
L 42.184003 203.991168 
L 43.735599 204.018103 
L 45.287194 204.310345 
L 46.83879 204.051544 
L 48.390385 203.374798 
L 49.941981 204.385794 
L 51.493576 203.975696 
L 53.045172 204.493551 
L 54.596768 204.606024 
L 56.148363 203.789549 
L 57.699959 204.384266 
L 59.251554 204.595241 
L 60.80315 204.548902 
L 62.354745 203.752061 
L 63.906341 204.212289 
L 65.457936 204.046029 
L 67.009532 204.375608 
L 68.561127 204.488627 
L 70.112723 203.878846 
L 71.664318 203.262339 
L 73.215914 202.604213 
L 74.767509 202.703935 
L 76.319105 203.778803 
L 77.8707 204.387845 
L 79.422296 203.301873 
L 80.973891 202.232539 
L 82.525487 202.79778 
L 84.077082 201.884171 
L 85.628678 202.643707 
L 87.180274 202.651617 
L 88.731869 203.707608 
L 90.283465 204.07657 
L 91.83506 204.614086 
L 93.386656 204.413605 
L 94.938251 204.110231 
L 96.489847 203.839261 
L 98.041442 203.106412 
L 99.593038 203.029609 
L 101.144633 203.189115 
L 102.696229 203.300644 
L 104.247824 203.362157 
L 105.79942 203.814162 
L 107.351015 204.270517 
L 108.902611 204.462142 
L 110.454206 204.631422 
L 112.005802 204.20135 
L 113.557397 204.262698 
L 115.108993 203.269644 
L 116.660588 202.258951 
L 118.212184 202.814601 
L 119.76378 203.21404 
L 121.315375 203.036997 
L 122.866971 203.833452 
L 124.418566 203.877548 
L 125.970162 204.581728 
L 127.521757 204.324542 
L 129.073353 204.517122 
L 130.624948 204.393113 
L 132.176544 204.369271 
L 133.728139 204.525886 
L 135.279735 203.64781 
L 136.83133 203.072319 
L 138.382926 203.33191 
L 139.934521 202.398423 
L 141.486117 202.173779 
L 143.037712 200.85349 
L 144.589308 201.357768 
L 146.140903 201.913647 
L 147.692499 202.362257 
L 149.244094 203.178617 
L 150.79569 203.740397 
L 152.347286 204.511368 
L 153.898881 204.072495 
L 155.450477 204.486608 
L 157.002072 204.629366 
L 158.553668 204.43251 
L 160.105263 204.097365 
L 161.656859 204.230147 
L 163.208454 203.846539 
L 164.76005 203.702927 
L 166.311645 203.539026 
L 167.863241 203.210837 
L 169.414836 203.162529 
L 170.966432 202.62103 
L 172.518027 203.117975 
L 174.069623 202.572966 
L 175.621218 203.832076 
L 177.172814 204.124185 
L 178.724409 204.354496 
" clip-path="url(#p4f975fe4ba)" style="fill: none; stroke-dasharray: 1.8,0.5,0.5,0.5; stroke-dashoffset: 0; stroke: #009e73; stroke-width: 0.5"/>
   </g>
   <g id="line2d_61">
    <path d="M 31.322835 201.867088 
L 32.87443 203.204689 
L 34.426026 201.725248 
L 35.977621 202.089162 
L 37.529217 203.316543 
L 39.080812 201.04484 
L 40.632408 204.502856 
L 42.184003 202.935201 
L 43.735599 203.050951 
L 45.287194 203.036144 
L 46.83879 201.211064 
L 48.390385 203.458204 
L 49.941981 203.404445 
L 51.493576 203.990379 
L 53.045172 204.408489 
L 54.596768 201.098136 
L 56.148363 201.494413 
L 57.699959 202.983949 
L 59.251554 202.881217 
L 60.80315 201.823763 
L 62.354745 204.532792 
L 63.906341 203.977536 
L 65.457936 203.692236 
L 67.009532 202.303872 
L 68.561127 203.543789 
L 70.112723 204.336289 
L 71.664318 203.810904 
L 73.215914 203.868953 
L 74.767509 203.827359 
L 76.319105 204.077084 
L 77.8707 203.530565 
L 79.422296 201.070701 
L 80.973891 200.96768 
L 82.525487 202.781958 
L 84.077082 204.181068 
L 85.628678 203.116828 
L 87.180274 203.34239 
L 88.731869 203.046302 
L 90.283465 202.784005 
L 91.83506 203.578735 
L 93.386656 204.151206 
L 94.938251 202.683884 
L 96.489847 202.584735 
L 98.041442 203.768442 
L 99.593038 203.212939 
L 101.144633 203.573229 
L 102.696229 202.330119 
L 104.247824 202.200209 
L 105.79942 202.310948 
L 107.351015 201.945207 
L 108.902611 203.093959 
L 110.454206 202.838663 
L 112.005802 203.172257 
L 113.557397 203.860378 
L 115.108993 202.306424 
L 116.660588 201.62994 
L 118.212184 201.014868 
L 119.76378 203.168439 
L 121.315375 204.370712 
L 122.866971 204.488563 
L 124.418566 203.769764 
L 125.970162 203.369985 
L 127.521757 204.418808 
L 129.073353 203.937052 
L 130.624948 204.265002 
L 132.176544 203.991462 
L 133.728139 199.851433 
L 135.279735 200.923621 
L 136.83133 201.759693 
L 138.382926 200.186798 
L 139.934521 199.940955 
L 141.486117 200.403367 
L 143.037712 200.559495 
L 144.589308 199.828105 
L 146.140903 201.997874 
L 147.692499 201.457118 
L 149.244094 200.841404 
L 150.79569 202.195345 
L 152.347286 200.003478 
L 153.898881 200.262784 
L 155.450477 201.853629 
L 157.002072 199.073772 
L 158.553668 200.09356 
L 160.105263 198.506972 
L 161.656859 200.554824 
L 163.208454 197.912999 
L 164.76005 198.979791 
L 166.311645 201.406846 
L 167.863241 196.65349 
L 169.414836 198.247657 
L 170.966432 197.365787 
L 172.518027 195.065939 
L 174.069623 197.87741 
L 175.621218 199.012961 
L 177.172814 202.047008 
L 178.724409 199.961461 
" clip-path="url(#p4f975fe4ba)" style="fill: none; stroke-dasharray: 1.5,0.5,0.5,0.5,0.5,0.5; stroke-dashoffset: 0; stroke: #023e8a; stroke-width: 0.5"/>
   </g>
   <g id="line2d_62">
    <path d="M 31.322835 203.858794 
L 32.87443 203.041209 
L 34.426026 202.685416 
L 35.977621 203.656014 
L 37.529217 202.632676 
L 39.080812 204.327763 
L 40.632408 204.152106 
L 42.184003 204.328139 
L 43.735599 203.616127 
L 45.287194 203.561812 
L 46.83879 203.701601 
L 48.390385 204.266759 
L 49.941981 203.819843 
L 51.493576 204.295478 
L 53.045172 204.135858 
L 54.596768 204.405346 
L 56.148363 203.447375 
L 57.699959 203.800112 
L 59.251554 203.55481 
L 60.80315 203.855803 
L 62.354745 204.344759 
L 63.906341 204.527093 
L 65.457936 204.637465 
L 67.009532 204.173566 
L 68.561127 203.961531 
L 70.112723 202.276906 
L 71.664318 201.345099 
L 73.215914 202.286119 
L 74.767509 201.711165 
L 76.319105 204.052957 
L 77.8707 204.184721 
L 79.422296 201.817536 
L 80.973891 201.21646 
L 82.525487 200.087264 
L 84.077082 200.050776 
L 85.628678 199.164084 
L 87.180274 200.290517 
L 88.731869 200.132755 
L 90.283465 201.081402 
L 91.83506 201.256664 
L 93.386656 201.572657 
L 94.938251 200.435284 
L 96.489847 200.646916 
L 98.041442 200.350599 
L 99.593038 200.804421 
L 101.144633 201.51753 
L 102.696229 202.411317 
L 104.247824 201.924761 
L 105.79942 201.67499 
L 107.351015 202.941299 
L 108.902611 202.191793 
L 110.454206 202.2903 
L 112.005802 201.957045 
L 113.557397 202.403902 
L 115.108993 201.599279 
L 116.660588 201.75438 
L 118.212184 202.295512 
L 119.76378 201.73219 
L 121.315375 201.842654 
L 122.866971 202.783831 
L 124.418566 203.197742 
L 125.970162 202.788997 
L 127.521757 203.700532 
L 129.073353 204.248391 
L 130.624948 203.536851 
L 132.176544 202.916402 
L 133.728139 202.438141 
L 135.279735 202.15514 
L 136.83133 201.698675 
L 138.382926 201.39432 
L 139.934521 201.790565 
L 141.486117 200.832824 
L 143.037712 199.883929 
L 144.589308 200.189661 
L 146.140903 201.167638 
L 147.692499 201.145824 
L 149.244094 200.953263 
L 150.79569 201.82697 
L 152.347286 201.498864 
L 153.898881 202.138374 
L 155.450477 201.776295 
L 157.002072 201.139171 
L 158.553668 201.044547 
L 160.105263 200.897852 
L 161.656859 201.364889 
L 163.208454 201.635189 
L 164.76005 202.084028 
L 166.311645 201.521632 
L 167.863241 201.910977 
L 169.414836 202.604824 
L 170.966432 201.390823 
L 172.518027 202.089093 
L 174.069623 202.242753 
L 175.621218 202.554534 
L 177.172814 203.177355 
L 178.724409 202.737588 
" clip-path="url(#p4f975fe4ba)" style="fill: none; stroke-dasharray: 3,0.6; stroke-dashoffset: 0; stroke: #2166ac; stroke-width: 0.5"/>
   </g>
   <g id="line2d_63">
    <path d="M 31.322835 204.234176 
L 32.87443 204.578002 
L 34.426026 204.338308 
L 35.977621 204.298218 
L 37.529217 204.432959 
L 39.080812 204.333719 
L 40.632408 204.204066 
L 42.184003 203.901692 
L 43.735599 203.245072 
L 45.287194 204.31007 
L 46.83879 204.296616 
L 48.390385 204.194692 
L 49.941981 204.094148 
L 51.493576 204.000694 
L 53.045172 203.967409 
L 54.596768 202.868259 
L 56.148363 202.96309 
L 57.699959 202.978934 
L 59.251554 202.81785 
L 60.80315 203.413631 
L 62.354745 203.649912 
L 63.906341 204.358648 
L 65.457936 203.921561 
L 67.009532 204.15251 
L 68.561127 203.287745 
L 70.112723 202.929635 
L 71.664318 202.313669 
L 73.215914 201.412302 
L 74.767509 202.395487 
L 76.319105 202.421118 
L 77.8707 203.834544 
L 79.422296 204.069825 
L 80.973891 204.314264 
L 82.525487 204.393627 
L 84.077082 204.191595 
L 85.628678 203.795193 
L 87.180274 203.31228 
L 88.731869 201.690811 
L 90.283465 200.813231 
L 91.83506 200.620862 
L 93.386656 200.820077 
L 94.938251 201.31459 
L 96.489847 201.68101 
L 98.041442 202.561958 
L 99.593038 201.996929 
L 101.144633 202.141852 
L 102.696229 201.291491 
L 104.247824 201.739889 
L 105.79942 201.693555 
L 107.351015 201.136574 
L 108.902611 201.40837 
L 110.454206 201.430936 
L 112.005802 202.019495 
L 113.557397 203.036024 
L 115.108993 203.735368 
L 116.660588 203.869784 
L 118.212184 204.202469 
L 119.76378 204.418377 
L 121.315375 203.818356 
L 122.866971 204.245822 
L 124.418566 203.968767 
L 125.970162 204.161687 
L 127.521757 203.871298 
L 129.073353 204.063034 
L 130.624948 204.458738 
L 132.176544 204.307353 
L 133.728139 204.579168 
L 135.279735 204.276519 
L 136.83133 203.25418 
L 138.382926 203.110376 
L 139.934521 202.495938 
L 141.486117 202.333064 
L 143.037712 202.410638 
L 144.589308 202.484751 
L 146.140903 203.383769 
L 147.692499 203.314583 
L 149.244094 204.564347 
L 150.79569 204.534154 
L 152.347286 203.988434 
L 153.898881 203.612121 
L 155.450477 203.442539 
L 157.002072 203.953322 
L 158.553668 203.418908 
L 160.105263 203.1458 
L 161.656859 203.202615 
L 163.208454 203.091472 
L 164.76005 203.697403 
L 166.311645 203.427424 
L 167.863241 203.155206 
L 169.414836 204.466933 
L 170.966432 204.633441 
L 172.518027 204.205213 
L 174.069623 204.474683 
L 175.621218 204.096108 
L 177.172814 203.46276 
L 178.724409 204.144668 
" clip-path="url(#p4f975fe4ba)" style="fill: none; stroke-dasharray: 1,0.5,2.5,0.5; stroke-dashoffset: 0; stroke: #b35806; stroke-width: 0.5"/>
   </g>
   <g id="line2d_64">
    <path d="M 31.322835 201.493569 
L 32.87443 201.757211 
L 34.426026 202.012722 
L 35.977621 202.219627 
L 37.529217 202.348578 
L 39.080812 202.414758 
L 40.632408 202.444483 
L 42.184003 202.464053 
L 43.735599 202.495943 
L 45.287194 202.54716 
L 46.83879 202.620879 
L 48.390385 202.720257 
L 49.941981 202.84673 
L 51.493576 202.994838 
L 53.045172 203.157422 
L 54.596768 203.327275 
L 56.148363 203.492035 
L 57.699959 203.618494 
L 59.251554 203.668266 
L 60.80315 203.602948 
L 62.354745 203.408152 
L 63.906341 203.165521 
L 65.457936 202.980719 
L 67.009532 202.959387 
L 68.561127 203.160887 
L 70.112723 203.459378 
L 71.664318 203.682706 
L 73.215914 203.658735 
L 74.767509 203.27682 
L 76.319105 202.67233 
L 77.8707 202.042107 
L 79.422296 201.583008 
L 80.973891 201.446262 
L 82.525487 201.600399 
L 84.077082 201.968379 
L 85.628678 202.473097 
L 87.180274 203.040273 
L 88.731869 203.606633 
L 90.283465 204.111745 
L 91.83506 204.495143 
L 93.386656 204.567439 
L 94.938251 204.477119 
L 96.489847 204.464079 
L 98.041442 204.47588 
L 99.593038 204.466299 
L 101.144633 204.414229 
L 102.696229 204.304766 
L 104.247824 204.122987 
L 105.79942 203.870536 
L 107.351015 203.614984 
L 108.902611 203.440437 
L 110.454206 203.430985 
L 112.005802 203.63833 
L 113.557397 203.984469 
L 115.108993 204.35902 
L 116.660588 204.631054 
L 118.212184 204.501796 
L 119.76378 204.500722 
L 121.315375 204.563613 
L 122.866971 204.626227 
L 124.418566 204.638938 
L 125.970162 204.63423 
L 127.521757 204.590529 
L 129.073353 204.456113 
L 130.624948 204.211958 
L 132.176544 203.969951 
L 133.728139 203.874657 
L 135.279735 204.070669 
L 136.83133 204.638552 
L 138.382926 203.835811 
L 139.934521 203.010319 
L 141.486117 202.368598 
L 143.037712 202.062333 
L 144.589308 202.023423 
L 146.140903 202.12883 
L 147.692499 202.255537 
L 149.244094 202.304157 
L 150.79569 202.269798 
L 152.347286 202.171228 
L 153.898881 202.027204 
L 155.450477 201.854409 
L 157.002072 201.661206 
L 158.553668 201.453943 
L 160.105263 201.238934 
L 161.656859 201.027808 
L 163.208454 200.853509 
L 164.76005 200.754305 
L 166.311645 200.768465 
L 167.863241 200.919143 
L 169.414836 201.169171 
L 170.966432 201.466295 
L 172.518027 201.758207 
L 174.069623 201.997727 
L 175.621218 202.157953 
L 177.172814 202.217053 
L 178.724409 203.021529 
" clip-path="url(#p4f975fe4ba)" style="fill: none; stroke-dasharray: 0.5,0.6,2,0.6; stroke-dashoffset: 0; stroke: #a6611a; stroke-width: 0.5"/>
   </g>
   <g id="line2d_65">
    <path d="M 31.322835 204.469415 
L 32.87443 204.051893 
L 34.426026 203.875075 
L 35.977621 203.708654 
L 37.529217 203.938144 
L 39.080812 204.28565 
L 40.632408 204.309345 
L 42.184003 204.364921 
L 43.735599 203.939915 
L 45.287194 204.373235 
L 46.83879 204.528231 
L 48.390385 204.405249 
L 49.941981 204.157318 
L 51.493576 203.853302 
L 53.045172 203.630516 
L 54.596768 202.931429 
L 56.148363 203.236817 
L 57.699959 202.894707 
L 59.251554 202.712571 
L 60.80315 203.034625 
L 62.354745 203.165627 
L 63.906341 203.600636 
L 65.457936 203.100378 
L 67.009532 203.162883 
L 68.561127 202.371814 
L 70.112723 202.013704 
L 71.664318 201.576713 
L 73.215914 200.749033 
L 74.767509 201.337422 
L 76.319105 202.063168 
L 77.8707 203.323944 
L 79.422296 203.793468 
L 80.973891 204.245831 
L 82.525487 204.560226 
L 84.077082 204.530465 
L 85.628678 204.487407 
L 87.180274 204.118977 
L 88.731869 202.930479 
L 90.283465 202.326622 
L 91.83506 202.089506 
L 93.386656 202.520349 
L 94.938251 203.25173 
L 96.489847 203.710278 
L 98.041442 204.438566 
L 99.593038 204.292028 
L 101.144633 204.173754 
L 102.696229 203.421432 
L 104.247824 203.361194 
L 105.79942 203.289861 
L 107.351015 202.819731 
L 108.902611 202.90861 
L 110.454206 202.952229 
L 112.005802 203.509201 
L 113.557397 204.225687 
L 115.108993 204.515525 
L 116.660588 204.486379 
L 118.212184 204.258972 
L 119.76378 204.628935 
L 121.315375 203.971016 
L 122.866971 203.903656 
L 124.418566 203.394993 
L 125.970162 203.229962 
L 127.521757 203.039594 
L 129.073353 203.057609 
L 130.624948 203.536227 
L 132.176544 203.516441 
L 133.728139 203.798781 
L 135.279735 204.274417 
L 136.83133 203.991132 
L 138.382926 203.626244 
L 139.934521 203.20657 
L 141.486117 202.706799 
L 143.037712 202.78964 
L 144.589308 202.969041 
L 146.140903 203.573274 
L 147.692499 203.419862 
L 149.244094 204.480129 
L 150.79569 204.411586 
L 152.347286 204.146361 
L 153.898881 204.201689 
L 155.450477 204.147912 
L 157.002072 204.566026 
L 158.553668 204.376952 
L 160.105263 204.119638 
L 161.656859 204.315943 
L 163.208454 203.936336 
L 164.76005 204.578131 
L 166.311645 204.476275 
L 167.863241 204.331709 
L 169.414836 203.994518 
L 170.966432 203.775408 
L 172.518027 203.720924 
L 174.069623 204.032506 
L 175.621218 204.390892 
L 177.172814 203.936515 
L 178.724409 204.165725 
" clip-path="url(#p4f975fe4ba)" style="fill: none; stroke: #e63946; stroke-width: 0.5; stroke-linecap: square"/>
   </g>
   <g id="patch_8">
    <path d="M 31.322835 208.346457 
L 31.322835 126.781035 
" style="fill: none; stroke: #000000; stroke-width: 0.5; stroke-linejoin: miter; stroke-linecap: square"/>
   </g>
   <g id="patch_9">
    <path d="M 178.724409 208.346457 
L 178.724409 126.781035 
" style="fill: none; stroke: #000000; stroke-width: 0.5; stroke-linejoin: miter; stroke-linecap: square"/>
   </g>
   <g id="patch_10">
    <path d="M 31.322835 208.346457 
L 178.724409 208.346457 
" style="fill: none; stroke: #000000; stroke-width: 0.5; stroke-linejoin: miter; stroke-linecap: square"/>
   </g>
   <g id="patch_11">
    <path d="M 31.322835 126.781035 
L 178.724409 126.781035 
" style="fill: none; stroke: #000000; stroke-width: 0.5; stroke-linejoin: miter; stroke-linecap: square"/>
   </g>
   <g id="text_28">
    <text style="font-size: 6.5px; font-family: 'SimSun', 'Times New Roman'; text-anchor: start" x="33.533858" y="137.670302" transform="rotate(-0 33.533858 137.670302)">2024年11月24日</text>
   </g>
   <g id="text_29">
    <text style="font-size: 7.5px; font-family: 'SimSun', 'Times New Roman'; text-anchor: middle" x="105.023622" y="124.781035" transform="rotate(-0 105.023622 124.781035)">（b）绝对误差曲线</text>
   </g>
  </g>
  <g id="legend_1">
   <g id="line2d_66">
    <path d="M 23.275984 247.290273 
L 27.325984 247.290273 
L 31.375984 247.290273 
" style="fill: none; stroke: #000000; stroke-width: 0.5; stroke-linecap: square"/>
   </g>
   <g id="text_30">
    <text style="font-size: 6px; font-family: 'SimSun', 'Times New Roman'; text-anchor: start" x="36.175984" y="249.390273" transform="rotate(-0 36.175984 249.390273)">实际值</text>
   </g>
   <g id="line2d_67">
    <path d="M 23.275984 253.552773 
L 27.325984 253.552773 
L 31.375984 253.552773 
" style="fill: none; stroke-dasharray: 0.6,0.5; stroke-dashoffset: 0; stroke: #8c510a; stroke-width: 0.5"/>
   </g>
   <g id="text_31">
    <text style="font-size: 6px; font-family: 'SimSun', 'Times New Roman'; text-anchor: start" x="36.175984" y="255.652773" transform="rotate(-0 36.175984 255.652773)">ARIMA</text>
   </g>
   <g id="line2d_68">
    <path d="M 23.275984 259.815273 
L 27.325984 259.815273 
L 31.375984 259.815273 
" style="fill: none; stroke-dasharray: 2.4,0.6; stroke-dashoffset: 0; stroke: #7209b7; stroke-width: 0.5"/>
   </g>
   <g id="text_32">
    <text style="font-size: 6px; font-family: 'SimSun', 'Times New Roman'; text-anchor: start" x="36.175984" y="261.915273" transform="rotate(-0 36.175984 261.915273)">LSTM</text>
   </g>
   <g id="line2d_69">
    <path d="M 23.275984 266.077773 
L 27.325984 266.077773 
L 31.375984 266.077773 
" style="fill: none; stroke-dasharray: 1.2,0.6; stroke-dashoffset: 0; stroke: #4b5563; stroke-width: 0.5"/>
   </g>
   <g id="text_33">
    <text style="font-size: 6px; font-family: 'SimSun', 'Times New Roman'; text-anchor: start" x="36.175984" y="268.177773" transform="rotate(-0 36.175984 268.177773)">Informer</text>
   </g>
   <g id="line2d_70">
    <path d="M 63.175984 247.290273 
L 67.225984 247.290273 
L 71.275984 247.290273 
" style="fill: none; stroke-dasharray: 2.5,0.5,0.5,0.5; stroke-dashoffset: 0; stroke: #c51b7d; stroke-width: 0.5"/>
   </g>
   <g id="text_34">
    <text style="font-size: 6px; font-family: 'SimSun', 'Times New Roman'; text-anchor: start" x="76.075984" y="249.390273" transform="rotate(-0 76.075984 249.390273)">PatchTST</text>
   </g>
   <g id="line2d_71">
    <path d="M 63.175984 253.552773 
L 67.225984 253.552773 
L 71.275984 253.552773 
" style="fill: none; stroke-dasharray: 1.8,0.5,0.5,0.5; stroke-dashoffset: 0; stroke: #009e73; stroke-width: 0.5"/>
   </g>
   <g id="text_35">
    <text style="font-size: 6px; font-family: 'SimSun', 'Times New Roman'; text-anchor: start" x="76.075984" y="255.652773" transform="rotate(-0 76.075984 255.652773)">iTransformer</text>
   </g>
   <g id="line2d_72">
    <path d="M 63.175984 259.815273 
L 67.225984 259.815273 
L 71.275984 259.815273 
" style="fill: none; stroke-dasharray: 0.5,0.6,2,0.6; stroke-dashoffset: 0; stroke: #a6611a; stroke-width: 0.5"/>
   </g>
   <g id="text_36">
    <text style="font-size: 6px; font-family: 'SimSun', 'Times New Roman'; text-anchor: start" x="76.075984" y="261.915273" transform="rotate(-0 76.075984 261.915273)">SDR</text>
   </g>
   <g id="line2d_73">
    <path d="M 63.175984 266.077773 
L 67.225984 266.077773 
L 71.275984 266.077773 
" style="fill: none; stroke-dasharray: 1.5,0.5,0.5,0.5,0.5,0.5; stroke-dashoffset: 0; stroke: #023e8a; stroke-width: 0.5"/>
   </g>
   <g id="text_37">
    <text style="font-size: 6px; font-family: 'SimSun', 'Times New Roman'; text-anchor: start" x="76.075984" y="268.177773" transform="rotate(-0 76.075984 268.177773)">TX-B</text>
   </g>
   <g id="line2d_74">
    <path d="M 115.075984 247.290273 
L 119.125984 247.290273 
L 123.175984 247.290273 
" style="fill: none; stroke-dasharray: 3,0.6; stroke-dashoffset: 0; stroke: #2166ac; stroke-width: 0.5"/>
   </g>
   <g id="text_38">
    <text style="font-size: 6px; font-family: 'SimSun', 'Times New Roman'; text-anchor: start" x="127.975984" y="249.390273" transform="rotate(-0 127.975984 249.390273)">TX-BM</text>
   </g>
   <g id="line2d_75">
    <path d="M 115.075984 253.552773 
L 119.125984 253.552773 
L 123.175984 253.552773 
" style="fill: none; stroke-dasharray: 1,0.5,2.5,0.5; stroke-dashoffset: 0; stroke: #b35806; stroke-width: 0.5"/>
   </g>
   <g id="text_39">
    <text style="font-size: 6px; font-family: 'SimSun', 'Times New Roman'; text-anchor: start" x="127.975984" y="255.652773" transform="rotate(-0 127.975984 255.652773)">TX-BMO</text>
   </g>
   <g id="line2d_76">
    <path d="M 115.075984 260.330898 
L 119.125984 260.330898 
L 123.175984 260.330898 
" style="fill: none; stroke: #e63946; stroke-width: 0.5; stroke-linecap: square"/>
   </g>
   <g id="text_40">
    <text style="font-size: 6px; font-family: 'SimSun', 'Times New Roman'; text-anchor: start" x="127.975984" y="262.430898" transform="rotate(-0 127.975984 262.430898)">本文方法</text>
   </g>
   <g id="patch_12">
    <path d="M 115.075984 269.021523 
L 123.175984 269.021523 
L 123.175984 264.821523 
L 115.075984 264.821523 
z
" style="fill: #e63946; opacity: 0.13"/>
   </g>
   <g id="text_41">
    <text style="font-size: 6px; font-family: 'SimSun', 'Times New Roman'; text-anchor: start" x="127.975984" y="269.021523" transform="rotate(-0 127.975984 269.021523)">P10-P90区间</text>
   </g>
  </g>
 </g>
 <defs>
  <clipPath id="pe7f7f3a67a">
   <rect x="31.322835" y="16.667717" width="147.401575" height="81.565421"/>
  </clipPath>
  <clipPath id="p4f975fe4ba">
   <rect x="31.322835" y="126.781035" width="147.401575" height="81.565421"/>
  </clipPath>
 </defs>
</svg>
