<?xml version="1.0" encoding="utf-8" standalone="no"?>
<!DOCTYPE svg PUBLIC "-//W3C//DTD SVG 1.1//EN"
  "http://www.w3.org/Graphics/SVG/1.1/DTD/svg11.dtd">
<svg xmlns:xlink="http://www.w3.org/1999/xlink" width="396.850394pt" height="340.15748pt" viewBox="0 0 396.850394 340.15748" xmlns="http://www.w3.org/2000/svg" version="1.1">
 <metadata>
  <rdf:RDF xmlns:dc="http://purl.org/dc/elements/1.1/" xmlns:cc="http://creativecommons.org/ns#" xmlns:rdf="http://www.w3.org/1999/02/22-rdf-syntax-ns#">
   <cc:Work>
    <dc:type rdf:resource="http://purl.org/dc/dcmitype/StillImage"/>
    <dc:date>2026-05-27T18:28:54.732905</dc:date>
    <dc:format>image/svg+xml</dc:format>
    <dc:creator>
     <cc:Agent>
      <dc:title>Matplotlib v3.10.8, https://matplotlib.org/</dc:title>
     </cc:Agent>
    </dc:creator>
   </cc:Work>
  </rdf:RDF>
 </metadata>
 <defs>
  <style type="text/css">*{stroke-linejoin: round; stroke-linecap: butt}</style>
 </defs>
 <g id="figure_1">
  <g id="patch_1">
   <path d="M 0 340.15748 
L 396.850394 340.15748 
L 396.850394 0 
L 0 0 
z
" style="fill: #ffffff"/>
  </g>
  <g id="axes_1">
   <g id="patch_2">
    <path d="M 29.76378 132.371922 
L 384.944882 132.371922 
L 384.944882 23.811024 
L 29.76378 23.811024 
z
" style="fill: #ffffff"/>
   </g>
   <g id="FillBetweenPolyCollection_1">
    <defs>
     <path id="m3392cb79e4" d="M 29.76378 -231.553593 
L 29.76378 -220.924004 
L 33.502528 -220.079087 
L 37.241276 -219.77928 
L 40.980025 -219.31594 
L 44.718773 -218.743575 
L 48.457522 -217.953171 
L 52.19627 -217.408068 
L 55.935019 -216.154318 
L 59.673767 -215.799998 
L 63.412516 -214.655273 
L 67.151264 -214.028401 
L 70.890012 -213.728588 
L 74.628761 -213.510549 
L 78.367509 -213.292504 
L 82.106258 -213.019953 
L 85.845006 -213.374273 
L 89.583755 -212.720145 
L 93.322503 -212.992696 
L 97.061252 -213.292504 
L 100.8 -213.237997 
L 104.538748 -213.701337 
L 108.277497 -214.055652 
L 112.016245 -215.745485 
L 115.754994 -216.971978 
L 119.493742 -219.452215 
L 123.232491 -221.768921 
L 126.971239 -224.64436 
L 130.709988 -228.610016 
L 134.448736 -231.567224 
L 138.187484 -234.72884 
L 141.926233 -237.209077 
L 145.664981 -240.20036 
L 149.40373 -242.435296 
L 153.142478 -244.043354 
L 156.881227 -245.334576 
L 160.619975 -245.968273 
L 164.358724 -246.417987 
L 168.097472 -247.555899 
L 171.83622 -248.058416 
L 175.574969 -248.518346 
L 179.313717 -248.775574 
L 183.052466 -248.930583 
L 186.791214 -249.189509 
L 190.529963 -248.434873 
L 194.268711 -247.688766 
L 198.00746 -246.114764 
L 201.746208 -244.857611 
L 205.484956 -242.721473 
L 209.223705 -240.84767 
L 212.962453 -239.82559 
L 216.701202 -238.585471 
L 220.43995 -237.904093 
L 224.178699 -237.140939 
L 227.917447 -236.500436 
L 231.656196 -236.132497 
L 235.394944 -236.159747 
L 239.133692 -235.560131 
L 242.872441 -235.451106 
L 246.611189 -235.641895 
L 250.349938 -235.342093 
L 254.088686 -235.955333 
L 257.827435 -236.677599 
L 261.566183 -237.992674 
L 265.304932 -239.689314 
L 269.04368 -241.508617 
L 272.782429 -244.397681 
L 276.521177 -247.187948 
L 280.259925 -249.786571 
L 283.998674 -251.581378 
L 287.737422 -253.816113 
L 291.476171 -255.51786 
L 295.214919 -256.50928 
L 298.953668 -257.473438 
L 302.692416 -257.919744 
L 306.431165 -258.372856 
L 310.169913 -257.548383 
L 313.908661 -257.906118 
L 317.64741 -256.778423 
L 321.386158 -256.50928 
L 325.124907 -255.330481 
L 328.863655 -254.34588 
L 332.602404 -252.597281 
L 336.341152 -251.760026 
L 340.079901 -250.540352 
L 343.818649 -248.404213 
L 347.557397 -246.659867 
L 351.296146 -243.539139 
L 355.034894 -241.263315 
L 358.773643 -239.076074 
L 362.512391 -235.546506 
L 366.25114 -232.739199 
L 369.989888 -229.850135 
L 373.728637 -227.07009 
L 377.467385 -224.944167 
L 381.206133 -222.777369 
L 384.944882 -220.651452 
L 384.944882 -231.240154 
L 384.944882 -231.240154 
L 381.206133 -233.67951 
L 377.467385 -236.159747 
L 373.728637 -238.578665 
L 369.989888 -241.760724 
L 366.25114 -245.068843 
L 362.512391 -248.279864 
L 358.773643 -252.310249 
L 355.034894 -254.805822 
L 351.296146 -257.412107 
L 347.557397 -260.975743 
L 343.818649 -262.972209 
L 340.079901 -265.418377 
L 336.341152 -266.808396 
L 332.602404 -267.762326 
L 328.863655 -269.765598 
L 325.124907 -270.896704 
L 321.386158 -272.23221 
L 317.64741 -272.545649 
L 313.908661 -273.840281 
L 310.169913 -273.431441 
L 306.431165 -274.371758 
L 302.692416 -273.853906 
L 298.953668 -273.336053 
L 295.214919 -272.23221 
L 291.476171 -271.101117 
L 287.737422 -269.165983 
L 283.998674 -266.603983 
L 280.259925 -264.553017 
L 276.521177 -261.582177 
L 272.782429 -258.38989 
L 269.04368 -255.088589 
L 265.304932 -253.014625 
L 261.566183 -251.068004 
L 257.827435 -249.56087 
L 254.088686 -248.744902 
L 250.349938 -248.034563 
L 246.611189 -248.378661 
L 242.872441 -248.167429 
L 239.133692 -248.286682 
L 235.394944 -248.96976 
L 231.656196 -248.942509 
L 227.917447 -249.37178 
L 224.178699 -250.0966 
L 220.43995 -250.969623 
L 216.701202 -251.74747 
L 212.962453 -253.166237 
L 209.223705 -254.337362 
L 205.484956 -256.475212 
L 201.746208 -258.91797 
L 198.00746 -260.355684 
L 194.268711 -262.154543 
L 190.529963 -263.006278 
L 186.791214 -263.871626 
L 183.052466 -263.571824 
L 179.313717 -263.40148 
L 175.574969 -263.101666 
L 171.83622 -262.576995 
L 168.097472 -262.004642 
L 164.358724 -260.703192 
L 160.619975 -260.192158 
L 156.881227 -259.463073 
L 153.142478 -257.991291 
L 149.40373 -256.148147 
L 145.664981 -253.591255 
L 141.926233 -250.180929 
L 138.187484 -247.344667 
L 134.448736 -243.729927 
L 130.709988 -240.336636 
L 126.971239 -235.819058 
L 123.232491 -232.521154 
L 119.493742 -229.891016 
L 115.754994 -227.042834 
L 112.016245 -225.639183 
L 108.277497 -223.690424 
L 104.538748 -223.295222 
L 100.8 -222.777369 
L 97.061252 -222.831882 
L 93.322503 -222.477561 
L 89.583755 -222.177754 
L 85.845006 -222.940901 
L 82.106258 -222.504818 
L 78.367509 -222.831882 
L 74.628761 -223.077177 
L 70.890012 -223.322472 
L 67.151264 -223.663167 
L 63.412516 -224.399064 
L 59.673767 -225.693696 
L 55.935019 -226.116148 
L 52.19627 -227.56068 
L 48.457522 -228.173927 
L 44.718773 -229.073356 
L 40.980025 -229.713853 
L 37.241276 -230.258962 
L 33.502528 -230.599657 
L 29.76378 -231.553593 
z
"/>
    </defs>
    <g clip-path="url(#pdef5cd13c6)">
     <use xlink:href="#m3392cb79e4" x="0" y="340.15748" style="fill: #e63946; fill-opacity: 0.13"/>
    </g>
   </g>
   <g id="matplotlib.axis_1">
    <g id="xtick_1">
     <g id="line2d_1">
      <path d="M 29.76378 132.371922 
L 29.76378 23.811024 
" clip-path="url(#pdef5cd13c6)" style="fill: none; stroke-dasharray: 0.25,0.4125; stroke-dashoffset: 0; stroke: #b0b0b0; stroke-opacity: 0.45; stroke-width: 0.25"/>
     </g>
     <g id="line2d_2">
      <defs>
       <path id="m304f9704a2" d="M 0 0 
L 0 2 
" style="stroke: #000000; stroke-width: 0.5"/>
      </defs>
      <g>
       <use xlink:href="#m304f9704a2" x="29.76378" y="132.371922" style="stroke: #000000; stroke-width: 0.5"/>
      </g>
     </g>
     <g id="text_1">
      <text style="font-size: 5.5px; font-family: 'SimSun', 'Times New Roman'; text-anchor: middle" x="29.76378" y="139.803562" transform="rotate(-0 29.76378 139.803562)">00:00</text>
     </g>
    </g>
    <g id="xtick_2">
     <g id="line2d_3">
      <path d="M 74.628761 132.371922 
L 74.628761 23.811024 
" clip-path="url(#pdef5cd13c6)" style="fill: none; stroke-dasharray: 0.25,0.4125; stroke-dashoffset: 0; stroke: #b0b0b0; stroke-opacity: 0.45; stroke-width: 0.25"/>
     </g>
     <g id="line2d_4">
      <g>
       <use xlink:href="#m304f9704a2" x="74.628761" y="132.371922" style="stroke: #000000; stroke-width: 0.5"/>
      </g>
     </g>
     <g id="text_2">
      <text style="font-size: 5.5px; font-family: 'SimSun', 'Times New Roman'; text-anchor: middle" x="74.628761" y="139.803562" transform="rotate(-0 74.628761 139.803562)">03:00</text>
     </g>
    </g>
    <g id="xtick_3">
     <g id="line2d_5">
      <path d="M 119.493742 132.371922 
L 119.493742 23.811024 
" clip-path="url(#pdef5cd13c6)" style="fill: none; stroke-dasharray: 0.25,0.4125; stroke-dashoffset: 0; stroke: #b0b0b0; stroke-opacity: 0.45; stroke-width: 0.25"/>
     </g>
     <g id="line2d_6">
      <g>
       <use xlink:href="#m304f9704a2" x="119.493742" y="132.371922" style="stroke: #000000; stroke-width: 0.5"/>
      </g>
     </g>
     <g id="text_3">
      <text style="font-size: 5.5px; font-family: 'SimSun', 'Times New Roman'; text-anchor: middle" x="119.493742" y="139.803562" transform="rotate(-0 119.493742 139.803562)">06:00</text>
     </g>
    </g>
    <g id="xtick_4">
     <g id="line2d_7">
      <path d="M 164.358724 132.371922 
L 164.358724 23.811024 
" clip-path="url(#pdef5cd13c6)" style="fill: none; stroke-dasharray: 0.25,0.4125; stroke-dashoffset: 0; stroke: #b0b0b0; stroke-opacity: 0.45; stroke-width: 0.25"/>
     </g>
     <g id="line2d_8">
      <g>
       <use xlink:href="#m304f9704a2" x="164.358724" y="132.371922" style="stroke: #000000; stroke-width: 0.5"/>
      </g>
     </g>
     <g id="text_4">
      <text style="font-size: 5.5px; font-family: 'SimSun', 'Times New Roman'; text-anchor: middle" x="164.358724" y="139.803562" transform="rotate(-0 164.358724 139.803562)">09:00</text>
     </g>
    </g>
    <g id="xtick_5">
     <g id="line2d_9">
      <path d="M 209.223705 132.371922 
L 209.223705 23.811024 
" clip-path="url(#pdef5cd13c6)" style="fill: none; stroke-dasharray: 0.25,0.4125; stroke-dashoffset: 0; stroke: #b0b0b0; stroke-opacity: 0.45; stroke-width: 0.25"/>
     </g>
     <g id="line2d_10">
      <g>
       <use xlink:href="#m304f9704a2" x="209.223705" y="132.371922" style="stroke: #000000; stroke-width: 0.5"/>
      </g>
     </g>
     <g id="text_5">
      <text style="font-size: 5.5px; font-family: 'SimSun', 'Times New Roman'; text-anchor: middle" x="209.223705" y="139.803562" transform="rotate(-0 209.223705 139.803562)">12:00</text>
     </g>
    </g>
    <g id="xtick_6">
     <g id="line2d_11">
      <path d="M 254.088686 132.371922 
L 254.088686 23.811024 
" clip-path="url(#pdef5cd13c6)" style="fill: none; stroke-dasharray: 0.25,0.4125; stroke-dashoffset: 0; stroke: #b0b0b0; stroke-opacity: 0.45; stroke-width: 0.25"/>
     </g>
     <g id="line2d_12">
      <g>
       <use xlink:href="#m304f9704a2" x="254.088686" y="132.371922" style="stroke: #000000; stroke-width: 0.5"/>
      </g>
     </g>
     <g id="text_6">
      <text style="font-size: 5.5px; font-family: 'SimSun', 'Times New Roman'; text-anchor: middle" x="254.088686" y="139.803562" transform="rotate(-0 254.088686 139.803562)">15:00</text>
     </g>
    </g>
    <g id="xtick_7">
     <g id="line2d_13">
      <path d="M 298.953668 132.371922 
L 298.953668 23.811024 
" clip-path="url(#pdef5cd13c6)" style="fill: none; stroke-dasharray: 0.25,0.4125; stroke-dashoffset: 0; stroke: #b0b0b0; stroke-opacity: 0.45; stroke-width: 0.25"/>
     </g>
     <g id="line2d_14">
      <g>
       <use xlink:href="#m304f9704a2" x="298.953668" y="132.371922" style="stroke: #000000; stroke-width: 0.5"/>
      </g>
     </g>
     <g id="text_7">
      <text style="font-size: 5.5px; font-family: 'SimSun', 'Times New Roman'; text-anchor: middle" x="298.953668" y="139.803562" transform="rotate(-0 298.953668 139.803562)">18:00</text>
     </g>
    </g>
    <g id="xtick_8">
     <g id="line2d_15">
      <path d="M 343.818649 132.371922 
L 343.818649 23.811024 
" clip-path="url(#pdef5cd13c6)" style="fill: none; stroke-dasharray: 0.25,0.4125; stroke-dashoffset: 0; stroke: #b0b0b0; stroke-opacity: 0.45; stroke-width: 0.25"/>
     </g>
     <g id="line2d_16">
      <g>
       <use xlink:href="#m304f9704a2" x="343.818649" y="132.371922" style="stroke: #000000; stroke-width: 0.5"/>
      </g>
     </g>
     <g id="text_8">
      <text style="font-size: 5.5px; font-family: 'SimSun', 'Times New Roman'; text-anchor: middle" x="343.818649" y="139.803562" transform="rotate(-0 343.818649 139.803562)">21:00</text>
     </g>
    </g>
    <g id="xtick_9">
     <g id="line2d_17">
      <path d="M 384.944882 132.371922 
L 384.944882 23.811024 
" clip-path="url(#pdef5cd13c6)" style="fill: none; stroke-dasharray: 0.25,0.4125; stroke-dashoffset: 0; stroke: #b0b0b0; stroke-opacity: 0.45; stroke-width: 0.25"/>
     </g>
     <g id="line2d_18">
      <g>
       <use xlink:href="#m304f9704a2" x="384.944882" y="132.371922" style="stroke: #000000; stroke-width: 0.5"/>
      </g>
     </g>
     <g id="text_9">
      <text style="font-size: 5.5px; font-family: 'SimSun', 'Times New Roman'; text-anchor: middle" x="384.944882" y="139.803562" transform="rotate(-0 384.944882 139.803562)">24:00</text>
     </g>
    </g>
    <g id="text_10">
     <text style="font-size: 6px; font-family: 'SimSun', 'Times New Roman'; text-anchor: middle" x="207.354331" y="149.246922" transform="rotate(-0 207.354331 149.246922)">时刻</text>
    </g>
   </g>
   <g id="matplotlib.axis_2">
    <g id="ytick_1">
     <g id="line2d_19">
      <path d="M 29.76378 126.375314 
L 384.944882 126.375314 
" clip-path="url(#pdef5cd13c6)" style="fill: none; stroke-dasharray: 0.25,0.4125; stroke-dashoffset: 0; stroke: #b0b0b0; stroke-opacity: 0.45; stroke-width: 0.25"/>
     </g>
     <g id="line2d_20">
      <defs>
       <path id="mbcac710405" d="M 0 0 
L -2 0 
" style="stroke: #000000; stroke-width: 0.5"/>
      </defs>
      <g>
       <use xlink:href="#mbcac710405" x="29.76378" y="126.375314" style="stroke: #000000; stroke-width: 0.5"/>
      </g>
     </g>
     <g id="text_11">
      <text style="font-size: 5.5px; font-family: 'SimSun', 'Times New Roman'; text-anchor: end" x="26.26378" y="128.341134" transform="rotate(-0 26.26378 128.341134)">0.4</text>
     </g>
    </g>
    <g id="ytick_2">
     <g id="line2d_21">
      <path d="M 29.76378 106.445683 
L 384.944882 106.445683 
" clip-path="url(#pdef5cd13c6)" style="fill: none; stroke-dasharray: 0.25,0.4125; stroke-dashoffset: 0; stroke: #b0b0b0; stroke-opacity: 0.45; stroke-width: 0.25"/>
     </g>
     <g id="line2d_22">
      <g>
       <use xlink:href="#mbcac710405" x="29.76378" y="106.445683" style="stroke: #000000; stroke-width: 0.5"/>
      </g>
     </g>
     <g id="text_12">
      <text style="font-size: 5.5px; font-family: 'SimSun', 'Times New Roman'; text-anchor: end" x="26.26378" y="108.411504" transform="rotate(-0 26.26378 108.411504)">0.5</text>
     </g>
    </g>
    <g id="ytick_3">
     <g id="line2d_23">
      <path d="M 29.76378 86.516053 
L 384.944882 86.516053 
" clip-path="url(#pdef5cd13c6)" style="fill: none; stroke-dasharray: 0.25,0.4125; stroke-dashoffset: 0; stroke: #b0b0b0; stroke-opacity: 0.45; stroke-width: 0.25"/>
     </g>
     <g id="line2d_24">
      <g>
       <use xlink:href="#mbcac710405" x="29.76378" y="86.516053" style="stroke: #000000; stroke-width: 0.5"/>
      </g>
     </g>
     <g id="text_13">
      <text style="font-size: 5.5px; font-family: 'SimSun', 'Times New Roman'; text-anchor: end" x="26.26378" y="88.481873" transform="rotate(-0 26.26378 88.481873)">0.6</text>
     </g>
    </g>
    <g id="ytick_4">
     <g id="line2d_25">
      <path d="M 29.76378 66.586423 
L 384.944882 66.586423 
" clip-path="url(#pdef5cd13c6)" style="fill: none; stroke-dasharray: 0.25,0.4125; stroke-dashoffset: 0; stroke: #b0b0b0; stroke-opacity: 0.45; stroke-width: 0.25"/>
     </g>
     <g id="line2d_26">
      <g>
       <use xlink:href="#mbcac710405" x="29.76378" y="66.586423" style="stroke: #000000; stroke-width: 0.5"/>
      </g>
     </g>
     <g id="text_14">
      <text style="font-size: 5.5px; font-family: 'SimSun', 'Times New Roman'; text-anchor: end" x="26.26378" y="68.552243" transform="rotate(-0 26.26378 68.552243)">0.7</text>
     </g>
    </g>
    <g id="ytick_5">
     <g id="line2d_27">
      <path d="M 29.76378 46.656792 
L 384.944882 46.656792 
" clip-path="url(#pdef5cd13c6)" style="fill: none; stroke-dasharray: 0.25,0.4125; stroke-dashoffset: 0; stroke: #b0b0b0; stroke-opacity: 0.45; stroke-width: 0.25"/>
     </g>
     <g id="line2d_28">
      <g>
       <use xlink:href="#mbcac710405" x="29.76378" y="46.656792" style="stroke: #000000; stroke-width: 0.5"/>
      </g>
     </g>
     <g id="text_15">
      <text style="font-size: 5.5px; font-family: 'SimSun', 'Times New Roman'; text-anchor: end" x="26.26378" y="48.622613" transform="rotate(-0 26.26378 48.622613)">0.8</text>
     </g>
    </g>
    <g id="ytick_6">
     <g id="line2d_29">
      <path d="M 29.76378 26.727162 
L 384.944882 26.727162 
" clip-path="url(#pdef5cd13c6)" style="fill: none; stroke-dasharray: 0.25,0.4125; stroke-dashoffset: 0; stroke: #b0b0b0; stroke-opacity: 0.45; stroke-width: 0.25"/>
     </g>
     <g id="line2d_30">
      <g>
       <use xlink:href="#mbcac710405" x="29.76378" y="26.727162" style="stroke: #000000; stroke-width: 0.5"/>
      </g>
     </g>
     <g id="text_16">
      <text style="font-size: 5.5px; font-family: 'SimSun', 'Times New Roman'; text-anchor: end" x="26.26378" y="28.692982" transform="rotate(-0 26.26378 28.692982)">0.9</text>
     </g>
    </g>
    <g id="text_17">
     <text style="font-size: 6px; font-family: 'SimSun', 'Times New Roman'; text-anchor: middle" x="13.240342" y="78.091473" transform="rotate(-90 13.240342 78.091473)">归一化负荷</text>
    </g>
   </g>
   <g id="line2d_31">
    <path d="M 29.76378 113.945938 
L 33.502528 114.858993 
L 37.241276 115.186057 
L 40.980025 115.717534 
L 44.718773 116.317156 
L 48.457522 117.189323 
L 52.19627 117.761688 
L 55.935019 119.151707 
L 59.673767 119.560541 
L 63.412516 120.787028 
L 67.151264 121.495669 
L 70.890012 121.822733 
L 74.628761 122.068034 
L 78.367509 122.286073 
L 82.106258 122.585886 
L 85.845006 122.177053 
L 89.583755 122.912951 
L 93.322503 122.613137 
L 97.061252 122.286073 
L 100.8 122.340585 
L 104.538748 121.849989 
L 108.277497 121.468418 
L 112.016245 119.615047 
L 115.754994 118.252284 
L 119.493742 115.540377 
L 123.232491 113.019252 
L 126.971239 109.871262 
L 130.709988 105.537654 
L 134.448736 102.301082 
L 138.187484 98.846471 
L 141.926233 96.127751 
L 145.664981 92.867326 
L 149.40373 90.422856 
L 153.142478 88.659516 
L 156.881227 87.248471 
L 160.619975 86.556009 
L 164.358724 86.065407 
L 168.097472 84.820181 
L 171.83622 84.271668 
L 175.574969 83.77085 
L 179.313717 83.488083 
L 183.052466 83.317727 
L 186.791214 83.034959 
L 190.529963 83.859432 
L 194.268711 84.673689 
L 198.00746 86.397591 
L 201.746208 87.771431 
L 205.484956 90.109429 
L 209.223705 92.153577 
L 212.962453 93.272756 
L 216.701202 94.632116 
L 220.43995 95.374825 
L 224.178699 96.209514 
L 227.917447 96.90453 
L 231.656196 97.313357 
L 235.394944 97.286107 
L 239.133692 97.940235 
L 242.872441 98.056067 
L 246.611189 97.851653 
L 250.349938 98.185524 
L 254.088686 97.504145 
L 257.827435 96.720548 
L 261.566183 95.282835 
L 265.304932 93.419247 
L 269.04368 91.43472 
L 272.782429 88.277357 
L 276.521177 85.22561 
L 280.259925 82.380831 
L 283.998674 80.421856 
L 287.737422 77.975687 
L 291.476171 76.11551 
L 295.214919 75.03211 
L 298.953668 73.975962 
L 302.692416 73.48536 
L 306.431165 72.994769 
L 310.169913 73.894199 
L 313.908661 73.498985 
L 317.64741 74.739103 
L 321.386158 75.03211 
L 325.124907 76.319923 
L 328.863655 77.396504 
L 332.602404 79.311194 
L 336.341152 80.224249 
L 340.079901 81.559767 
L 343.818649 83.893501 
L 347.557397 85.801373 
L 351.296146 89.212982 
L 355.034894 91.705573 
L 358.773643 94.093819 
L 362.512391 97.947041 
L 366.25114 101.020087 
L 369.989888 104.188522 
L 373.728637 107.227493 
L 377.467385 109.544198 
L 381.206133 111.91541 
L 384.944882 114.245746 
" clip-path="url(#pdef5cd13c6)" style="fill: none; stroke: #e63946; stroke-width: 0.5; stroke-linecap: square"/>
   </g>
   <g id="line2d_32">
    <path d="M 29.76378 114.681918 
L 33.502528 115.910681 
L 37.241276 116.395278 
L 40.980025 117.324434 
L 44.718773 118.313592 
L 48.457522 118.187312 
L 52.19627 119.758949 
L 55.935019 120.351045 
L 59.673767 121.275153 
L 63.412516 121.562452 
L 67.151264 122.405462 
L 70.890012 123.767715 
L 74.628761 123.025284 
L 78.367509 124.167692 
L 82.106258 124.085561 
L 85.845006 124.344695 
L 89.583755 123.628422 
L 93.322503 124.541262 
L 97.061252 124.842329 
L 100.8 124.53995 
L 104.538748 124.911233 
L 108.277497 123.370844 
L 112.016245 122.380231 
L 115.754994 120.509945 
L 119.493742 118.675722 
L 123.232491 115.433543 
L 126.971239 112.053182 
L 130.709988 107.93905 
L 134.448736 104.069934 
L 138.187484 101.067235 
L 141.926233 97.504894 
L 145.664981 95.698611 
L 149.40373 94.052766 
L 153.142478 91.150801 
L 156.881227 90.96088 
L 160.619975 89.34099 
L 164.358724 89.317054 
L 168.097472 88.243348 
L 171.83622 87.99889 
L 175.574969 87.109225 
L 179.313717 85.938765 
L 183.052466 85.803891 
L 186.791214 85.278317 
L 190.529963 86.108694 
L 194.268711 87.21205 
L 198.00746 88.88258 
L 201.746208 91.085882 
L 205.484956 93.422229 
L 209.223705 94.973625 
L 212.962453 96.110633 
L 216.701202 96.64305 
L 220.43995 97.548418 
L 224.178699 98.244456 
L 227.917447 97.93262 
L 231.656196 98.92606 
L 235.394944 100.16935 
L 239.133692 99.809868 
L 242.872441 99.919594 
L 246.611189 100.795979 
L 250.349938 100.186088 
L 254.088686 100.106059 
L 257.827435 98.470311 
L 261.566183 97.766184 
L 265.304932 95.629998 
L 269.04368 93.186455 
L 272.782429 90.085565 
L 276.521177 86.166794 
L 280.259925 84.141772 
L 283.998674 81.611191 
L 287.737422 78.356682 
L 291.476171 77.161597 
L 295.214919 75.722066 
L 298.953668 76.482166 
L 302.692416 75.571036 
L 306.431165 75.143036 
L 310.169913 75.263192 
L 313.908661 75.183698 
L 317.64741 75.607909 
L 321.386158 75.504585 
L 325.124907 76.152691 
L 328.863655 77.834921 
L 332.602404 79.198273 
L 336.341152 80.836729 
L 340.079901 82.939143 
L 343.818649 84.846896 
L 347.557397 87.742696 
L 351.296146 90.509442 
L 355.034894 93.346037 
L 358.773643 96.346229 
L 362.512391 99.02399 
L 366.25114 102.514345 
L 369.989888 104.968995 
L 373.728637 109.116762 
L 377.467385 110.915852 
L 381.206133 113.497108 
L 384.944882 115.232628 
" clip-path="url(#pdef5cd13c6)" style="fill: none; stroke-dasharray: 1.8,0.5,0.5,0.5; stroke-dashoffset: 0; stroke: #009e73; stroke-width: 0.5"/>
   </g>
   <g id="line2d_33">
    <path d="M 29.76378 109.668832 
L 33.502528 113.753035 
L 37.241276 114.246857 
L 40.980025 113.000175 
L 44.718773 112.759774 
L 48.457522 112.538136 
L 52.19627 116.708717 
L 55.935019 117.137067 
L 59.673767 118.965041 
L 63.412516 115.296335 
L 67.151264 119.049815 
L 70.890012 116.43667 
L 74.628761 116.350542 
L 78.367509 119.937776 
L 82.106258 120.764779 
L 85.845006 119.464689 
L 89.583755 118.807514 
L 93.322503 117.438063 
L 97.061252 120.62858 
L 100.8 119.366824 
L 104.538748 118.863036 
L 108.277497 118.449457 
L 112.016245 117.617578 
L 115.754994 115.21086 
L 119.493742 113.65302 
L 123.232491 111.915024 
L 126.971239 108.315263 
L 130.709988 106.439209 
L 134.448736 102.450935 
L 138.187484 103.181136 
L 141.926233 101.068292 
L 145.664981 93.196647 
L 149.40373 90.815303 
L 153.142478 88.682597 
L 156.881227 90.583318 
L 160.619975 87.518908 
L 164.358724 90.357665 
L 168.097472 90.122211 
L 171.83622 88.810534 
L 175.574969 89.153991 
L 179.313717 86.992051 
L 183.052466 85.985984 
L 186.791214 86.694435 
L 190.529963 86.531574 
L 194.268711 88.799843 
L 198.00746 88.803252 
L 201.746208 90.907852 
L 205.484956 92.032839 
L 209.223705 95.831537 
L 212.962453 93.532228 
L 216.701202 95.802671 
L 220.43995 97.653322 
L 224.178699 99.265918 
L 227.917447 99.948401 
L 231.656196 98.763235 
L 235.394944 98.219949 
L 239.133692 97.320615 
L 242.872441 99.524286 
L 246.611189 93.130422 
L 250.349938 98.283977 
L 254.088686 94.8873 
L 257.827435 93.364854 
L 261.566183 92.19943 
L 265.304932 94.240299 
L 269.04368 90.797924 
L 272.782429 87.617753 
L 276.521177 88.535084 
L 280.259925 82.706505 
L 283.998674 81.527468 
L 287.737422 81.840052 
L 291.476171 76.879934 
L 295.214919 76.318854 
L 298.953668 75.114634 
L 302.692416 75.46384 
L 306.431165 73.805997 
L 310.169913 75.787673 
L 313.908661 75.981016 
L 317.64741 76.236901 
L 321.386158 76.766537 
L 325.124907 76.659413 
L 328.863655 79.550805 
L 332.602404 76.725472 
L 336.341152 76.638042 
L 340.079901 81.971921 
L 343.818649 85.013939 
L 347.557397 86.283838 
L 351.296146 92.999789 
L 355.034894 93.966322 
L 358.773643 93.317706 
L 362.512391 96.920507 
L 366.25114 102.626399 
L 369.989888 105.92972 
L 373.728637 106.008085 
L 377.467385 109.33492 
L 381.206133 110.583829 
L 384.944882 113.794564 
" clip-path="url(#pdef5cd13c6)" style="fill: none; stroke-dasharray: 2.5,0.5,0.5,0.5; stroke-dashoffset: 0; stroke: #c51b7d; stroke-width: 0.5"/>
   </g>
   <g id="line2d_34">
    <path d="M 29.76378 114.307208 
L 33.502528 117.087063 
L 37.241276 117.68508 
L 40.980025 117.587049 
L 44.718773 116.056359 
L 48.457522 118.212727 
L 52.19627 120.656217 
L 55.935019 120.306279 
L 59.673767 120.253513 
L 63.412516 120.119809 
L 67.151264 119.428678 
L 70.890012 120.336933 
L 74.628761 121.648385 
L 78.367509 119.933054 
L 82.106258 118.536649 
L 85.845006 117.208864 
L 89.583755 117.449746 
L 93.322503 117.023813 
L 97.061252 117.481908 
L 100.8 114.74894 
L 104.538748 113.037018 
L 108.277497 109.95394 
L 112.016245 110.991492 
L 115.754994 108.722439 
L 119.493742 106.14347 
L 123.232491 104.742914 
L 126.971239 104.830462 
L 130.709988 101.340357 
L 134.448736 100.304343 
L 138.187484 97.393469 
L 141.926233 95.391931 
L 145.664981 95.486405 
L 149.40373 90.183542 
L 153.142478 89.188784 
L 156.881227 88.258553 
L 160.619975 86.707502 
L 164.358724 85.534357 
L 168.097472 81.771427 
L 171.83622 81.264943 
L 175.574969 81.060612 
L 179.313717 83.398325 
L 183.052466 80.08549 
L 186.791214 82.298486 
L 190.529963 81.626575 
L 194.268711 83.858458 
L 198.00746 84.717285 
L 201.746208 84.569166 
L 205.484956 87.418578 
L 209.223705 87.686473 
L 212.962453 88.481688 
L 216.701202 91.79444 
L 220.43995 89.334516 
L 224.178699 94.49995 
L 227.917447 93.217863 
L 231.656196 96.134463 
L 235.394944 97.019388 
L 239.133692 94.865585 
L 242.872441 95.918431 
L 246.611189 95.443593 
L 250.349938 94.44988 
L 254.088686 93.678376 
L 257.827435 95.502691 
L 261.566183 94.428759 
L 265.304932 92.697908 
L 269.04368 93.167852 
L 272.782429 93.398566 
L 276.521177 88.824741 
L 280.259925 87.828569 
L 283.998674 86.238448 
L 287.737422 84.12861 
L 291.476171 84.155397 
L 295.214919 83.568813 
L 298.953668 83.126974 
L 302.692416 80.604127 
L 306.431165 78.606307 
L 310.169913 78.943801 
L 313.908661 79.979482 
L 317.64741 81.155644 
L 321.386158 79.943715 
L 325.124907 79.927357 
L 328.863655 80.004452 
L 332.602404 80.003917 
L 336.341152 83.017699 
L 340.079901 84.200478 
L 343.818649 86.683055 
L 347.557397 86.14028 
L 351.296146 91.490849 
L 355.034894 90.982131 
L 358.773643 95.706213 
L 362.512391 98.087142 
L 366.25114 103.854283 
L 369.989888 103.526577 
L 373.728637 107.058277 
L 377.467385 109.713705 
L 381.206133 111.592794 
L 384.944882 113.812335 
" clip-path="url(#pdef5cd13c6)" style="fill: none; stroke-dasharray: 2.4,0.6; stroke-dashoffset: 0; stroke: #7209b7; stroke-width: 0.5"/>
   </g>
   <g id="line2d_35">
    <path d="M 29.76378 110.938559 
L 33.502528 111.296586 
L 37.241276 112.239682 
L 40.980025 112.529381 
L 44.718773 113.273184 
L 48.457522 112.050082 
L 52.19627 112.698009 
L 55.935019 113.306195 
L 59.673767 114.127799 
L 63.412516 114.914218 
L 67.151264 115.721027 
L 70.890012 116.534915 
L 74.628761 117.260763 
L 78.367509 117.822698 
L 82.106258 118.254826 
L 85.845006 118.599851 
L 89.583755 118.643964 
L 93.322503 118.615532 
L 97.061252 118.434341 
L 100.8 118.51475 
L 104.538748 118.581492 
L 108.277497 125.139399 
L 112.016245 123.940738 
L 115.754994 116.895692 
L 119.493742 114.2312 
L 123.232491 112.245075 
L 126.971239 110.346035 
L 130.709988 112.265715 
L 134.448736 104.722506 
L 138.187484 103.254928 
L 141.926233 98.199434 
L 145.664981 100.17548 
L 149.40373 96.049017 
L 153.142478 101.343802 
L 156.881227 99.601748 
L 160.619975 91.709303 
L 164.358724 100.565146 
L 168.097472 99.006659 
L 171.83622 90.011131 
L 175.574969 97.779975 
L 179.313717 97.643902 
L 183.052466 97.430579 
L 186.791214 97.160629 
L 190.529963 96.984345 
L 194.268711 96.404139 
L 198.00746 96.757123 
L 201.746208 96.927931 
L 205.484956 96.936199 
L 209.223705 96.866244 
L 212.962453 96.779456 
L 216.701202 96.727687 
L 220.43995 96.641042 
L 224.178699 96.680076 
L 227.917447 96.616203 
L 231.656196 96.522704 
L 235.394944 96.352727 
L 239.133692 96.133904 
L 242.872441 95.900245 
L 246.611189 95.522184 
L 250.349938 95.202746 
L 254.088686 95.2108 
L 257.827435 96.707006 
L 261.566183 97.307893 
L 265.304932 98.003597 
L 269.04368 96.551356 
L 272.782429 94.459787 
L 276.521177 91.625366 
L 280.259925 90.973828 
L 283.998674 90.145363 
L 287.737422 90.470741 
L 291.476171 92.751934 
L 295.214919 92.827603 
L 298.953668 91.059226 
L 302.692416 88.999837 
L 306.431165 90.522462 
L 310.169913 86.926645 
L 313.908661 91.721907 
L 317.64741 92.125887 
L 321.386158 92.440906 
L 325.124907 92.829373 
L 328.863655 93.234719 
L 332.602404 93.59881 
L 336.341152 94.141026 
L 340.079901 94.695027 
L 343.818649 95.422698 
L 347.557397 96.051464 
L 351.296146 96.679886 
L 355.034894 97.371707 
L 358.773643 98.036383 
L 362.512391 98.900496 
L 366.25114 99.832248 
L 369.989888 100.705425 
L 373.728637 101.495366 
L 377.467385 102.18696 
L 381.206133 102.821773 
L 384.944882 103.505064 
" clip-path="url(#pdef5cd13c6)" style="fill: none; stroke-dasharray: 1.2,0.6; stroke-dashoffset: 0; stroke: #4b5563; stroke-width: 0.5"/>
   </g>
   <g id="line2d_36">
    <path d="M 29.76378 113.416749 
L 33.502528 112.545905 
L 37.241276 110.014072 
L 40.980025 105.928912 
L 44.718773 100.458731 
L 48.457522 93.825567 
L 52.19627 86.296184 
L 55.935019 78.171356 
L 59.673767 69.773861 
L 63.412516 61.435664 
L 67.151264 53.484806 
L 70.890012 46.232498 
L 74.628761 39.960955 
L 78.367509 34.912421 
L 82.106258 31.279817 
L 85.845006 29.199389 
L 89.583755 28.74561 
L 93.322503 29.928545 
L 97.061252 32.693764 
L 100.8 36.924794 
L 104.538748 42.448004 
L 108.277497 49.039715 
L 112.016245 56.435247 
L 115.754994 64.339541 
L 119.493742 72.438917 
L 123.232491 80.413521 
L 126.971239 87.949945 
L 130.709988 94.753538 
L 134.448736 100.559919 
L 138.187484 105.14524 
L 141.926233 108.334807 
L 145.664981 110.009725 
L 149.40373 110.111308 
L 153.142478 108.643102 
L 156.881227 105.670449 
L 160.619975 101.317617 
L 164.358724 95.762623 
L 168.097472 89.229964 
L 171.83622 81.981559 
L 175.574969 74.306254 
L 179.313717 66.508317 
L 183.052466 58.895386 
L 186.791214 51.766339 
L 190.529963 45.399567 
L 194.268711 40.04211 
L 198.00746 35.90008 
L 201.746208 33.130743 
L 205.484956 31.836559 
L 209.223705 32.061412 
L 212.962453 33.789162 
L 216.701202 36.944567 
L 220.43995 41.396533 
L 224.178699 46.96354 
L 227.917447 53.421036 
L 231.656196 60.51048 
L 235.394944 67.949687 
L 239.133692 75.444055 
L 242.872441 82.698224 
L 246.611189 89.427706 
L 250.349938 95.37004 
L 254.088686 100.295018 
L 257.827435 104.013595 
L 261.566183 106.385135 
L 265.304932 107.32272 
L 269.04368 106.796309 
L 272.782429 104.833652 
L 276.521177 101.518921 
L 280.259925 96.989121 
L 283.998674 91.428445 
L 287.737422 85.060794 
L 291.476171 78.14077 
L 295.214919 70.943504 
L 298.953668 63.753724 
L 302.692416 56.854498 
L 306.431165 50.516093 
L 310.169913 44.9854 
L 313.908661 40.47632 
L 317.64741 37.1615 
L 321.386158 35.165735 
L 325.124907 34.561284 
L 328.863655 35.365273 
L 332.602404 37.539288 
L 336.341152 40.991154 
L 340.079901 45.578821 
L 343.818649 51.116198 
L 347.557397 57.380691 
L 351.296146 64.122143 
L 355.034894 71.072816 
L 358.773643 77.958018 
L 362.512391 84.506953 
L 366.25114 90.463364 
L 369.989888 95.595556 
L 373.728637 99.705398 
L 377.467385 102.635965 
L 381.206133 104.277521 
L 384.944882 104.571612 
" clip-path="url(#pdef5cd13c6)" style="fill: none; stroke-dasharray: 0.6,0.5; stroke-dashoffset: 0; stroke: #8c510a; stroke-width: 0.5"/>
   </g>
   <g id="line2d_37">
    <path d="M 29.76378 113.196416 
L 33.502528 114.014076 
L 37.241276 114.586435 
L 40.980025 114.954387 
L 44.718773 115.676653 
L 48.457522 116.330781 
L 52.19627 117.625412 
L 55.935019 118.552092 
L 59.673767 118.661117 
L 63.412516 120.705265 
L 67.151264 121.195861 
L 70.890012 121.550181 
L 74.628761 121.986265 
L 78.367509 122.476861 
L 82.106258 123.02197 
L 85.845006 122.095284 
L 89.583755 122.55863 
L 93.322503 122.722162 
L 97.061252 122.422348 
L 100.8 122.831182 
L 104.538748 122.476861 
L 108.277497 122.449611 
L 112.016245 120.678009 
L 115.754994 119.533284 
L 119.493742 116.725983 
L 123.232491 114.204858 
L 126.971239 110.825198 
L 130.709988 106.396207 
L 134.448736 103.670669 
L 138.187484 99.309811 
L 141.926233 96.788686 
L 145.664981 93.22505 
L 149.40373 90.511438 
L 153.142478 88.443865 
L 156.881227 86.809827 
L 160.619975 85.659989 
L 164.358724 85.021197 
L 168.097472 83.21552 
L 171.83622 82.312693 
L 175.574969 81.869797 
L 179.313717 81.287204 
L 183.052466 80.810239 
L 186.791214 80.408219 
L 190.529963 81.430298 
L 194.268711 81.70285 
L 198.00746 83.767441 
L 201.746208 85.014378 
L 205.484956 88.010769 
L 209.223705 90.087275 
L 212.962453 91.094031 
L 216.701202 92.690163 
L 220.43995 93.405622 
L 224.178699 94.281198 
L 227.917447 95.364598 
L 231.656196 95.97785 
L 235.394944 96.086864 
L 239.133692 96.877268 
L 242.872441 97.783515 
L 246.611189 97.654046 
L 250.349938 98.628432 
L 254.088686 98.246855 
L 257.827435 97.926598 
L 261.566183 96.359415 
L 265.304932 94.720697 
L 269.04368 92.628843 
L 272.782429 89.301136 
L 276.521177 86.235764 
L 280.259925 83.327954 
L 283.998674 81.375786 
L 287.737422 78.643441 
L 291.476171 77.035371 
L 295.214919 75.515882 
L 298.953668 74.466552 
L 302.692416 74.112237 
L 306.431165 73.24007 
L 310.169913 74.030474 
L 313.908661 73.389971 
L 317.64741 74.303026 
L 321.386158 74.827685 
L 325.124907 75.55677 
L 328.863655 76.483449 
L 332.602404 78.323183 
L 336.341152 78.98413 
L 340.079901 80.299205 
L 343.818649 82.452378 
L 347.557397 84.707758 
L 351.296146 88.072944 
L 355.034894 90.347912 
L 358.773643 92.570922 
L 362.512391 96.884086 
L 366.25114 99.909426 
L 369.989888 103.561644 
L 373.728637 106.655128 
L 377.467385 109.162621 
L 381.206133 111.302169 
L 384.944882 114.21849 
" clip-path="url(#pdef5cd13c6)" style="fill: none; stroke-dasharray: 1,0.5,2.5,0.5; stroke-dashoffset: 0; stroke: #b35806; stroke-width: 0.5"/>
   </g>
   <g id="line2d_38">
    <path d="M 29.76378 114.736342 
L 33.502528 116.167249 
L 37.241276 116.725983 
L 40.980025 115.785672 
L 44.718773 118.006989 
L 48.457522 117.13481 
L 52.19627 118.824643 
L 55.935019 119.914861 
L 59.673767 121.795483 
L 63.412516 122.531374 
L 67.151264 122.858438 
L 70.890012 122.613137 
L 74.628761 123.757867 
L 78.367509 122.858438 
L 82.106258 123.240015 
L 85.845006 124.084931 
L 89.583755 123.185502 
L 93.322503 123.785118 
L 97.061252 123.37629 
L 100.8 123.403541 
L 104.538748 123.37629 
L 108.277497 122.667649 
L 112.016245 121.604694 
L 115.754994 119.560541 
L 119.493742 117.59815 
L 123.232491 113.359948 
L 126.971239 109.571454 
L 130.709988 107.527301 
L 134.448736 102.784865 
L 138.187484 101.422108 
L 141.926233 98.424018 
L 145.664981 97.619977 
L 149.40373 95.368007 
L 153.142478 94.659366 
L 156.881227 93.334075 
L 160.619975 93.845109 
L 164.358724 92.373326 
L 168.097472 92.870735 
L 171.83622 91.875918 
L 175.574969 91.455164 
L 179.313717 90.205673 
L 183.052466 90.560843 
L 186.791214 89.410577 
L 190.529963 89.675894 
L 194.268711 90.092395 
L 198.00746 91.046325 
L 201.746208 92.237051 
L 205.484956 95.282835 
L 209.223705 97.742628 
L 212.962453 97.831209 
L 216.701202 100.045702 
L 220.43995 100.604442 
L 224.178699 101.149545 
L 227.917447 100.338697 
L 231.656196 101.088225 
L 235.394944 100.822481 
L 239.133692 100.481791 
L 242.872441 101.837742 
L 246.611189 102.341969 
L 250.349938 101.544747 
L 254.088686 100.986019 
L 257.827435 100.945131 
L 261.566183 98.573919 
L 265.304932 95.97785 
L 269.04368 94.294824 
L 272.782429 91.966198 
L 276.521177 89.168056 
L 280.259925 86.073924 
L 283.998674 83.389274 
L 287.737422 80.864752 
L 291.476171 77.948425 
L 295.214919 77.457835 
L 298.953668 77.737193 
L 302.692416 77.083065 
L 306.431165 76.108691 
L 310.169913 76.837776 
L 313.908661 78.064257 
L 317.64741 78.084701 
L 321.386158 79.740465 
L 325.124907 80.12886 
L 328.863655 81.743737 
L 332.602404 83.747009 
L 336.341152 85.222201 
L 340.079901 87.08068 
L 343.818649 88.555765 
L 347.557397 90.605128 
L 351.296146 92.60499 
L 355.034894 95.957406 
L 358.773643 98.028805 
L 362.512391 99.7459 
L 366.25114 104.106759 
L 369.989888 106.300807 
L 373.728637 109.544198 
L 377.467385 112.569538 
L 381.206133 114.722711 
L 384.944882 117.325599 
" clip-path="url(#pdef5cd13c6)" style="fill: none; stroke-dasharray: 3,0.6; stroke-dashoffset: 0; stroke: #2166ac; stroke-width: 0.5"/>
   </g>
   <g id="line2d_39">
    <path d="M 29.76378 117.314462 
L 33.502528 115.955637 
L 37.241276 117.968852 
L 40.980025 117.813849 
L 44.718773 117.121773 
L 48.457522 121.384315 
L 52.19627 118.370623 
L 55.935019 121.717919 
L 59.673767 122.527062 
L 63.412516 123.211814 
L 67.151264 126.082258 
L 70.890012 123.659753 
L 74.628761 124.295569 
L 78.367509 122.463509 
L 82.106258 123.592916 
L 85.845006 119.803988 
L 89.583755 120.657535 
L 93.322503 122.728654 
L 97.061252 122.504373 
L 100.8 120.773213 
L 104.538748 123.900635 
L 108.277497 123.674714 
L 112.016245 122.83819 
L 115.754994 117.140358 
L 119.493742 119.898747 
L 123.232491 116.815337 
L 126.971239 114.913072 
L 130.709988 109.576164 
L 134.448736 105.524124 
L 138.187484 102.914049 
L 141.926233 99.270776 
L 145.664981 98.586701 
L 149.40373 95.690034 
L 153.142478 91.17128 
L 156.881227 86.796202 
L 160.619975 88.728569 
L 164.358724 88.422899 
L 168.097472 89.099359 
L 171.83622 89.672021 
L 175.574969 85.698548 
L 179.313717 86.867928 
L 183.052466 87.650194 
L 186.791214 86.90221 
L 190.529963 85.251744 
L 194.268711 86.974743 
L 198.00746 88.385373 
L 201.746208 86.358806 
L 205.484956 88.606619 
L 209.223705 90.886446 
L 212.962453 92.140748 
L 216.701202 94.872035 
L 220.43995 95.227823 
L 224.178699 99.576541 
L 227.917447 98.453395 
L 231.656196 100.172878 
L 235.394944 100.98356 
L 239.133692 102.139492 
L 242.872441 96.165562 
L 246.611189 98.369031 
L 250.349938 99.338094 
L 254.088686 97.989259 
L 257.827435 96.901798 
L 261.566183 97.644163 
L 265.304932 96.380857 
L 269.04368 93.352286 
L 272.782429 90.574611 
L 276.521177 92.516361 
L 280.259925 87.668037 
L 283.998674 83.31029 
L 287.737422 82.4278 
L 291.476171 80.342611 
L 295.214919 78.013736 
L 298.953668 76.862722 
L 302.692416 77.551073 
L 306.431165 75.034011 
L 310.169913 76.434829 
L 313.908661 78.20905 
L 317.64741 77.607867 
L 321.386158 81.676134 
L 325.124907 82.556676 
L 328.863655 81.643633 
L 332.602404 86.420517 
L 336.341152 86.453185 
L 340.079901 90.1755 
L 343.818649 89.604335 
L 347.557397 95.423232 
L 351.296146 96.6232 
L 355.034894 96.105989 
L 358.773643 104.83424 
L 362.512391 105.385935 
L 366.25114 109.316876 
L 369.989888 115.391771 
L 373.728637 115.194817 
L 377.467385 117.153846 
L 381.206133 116.185863 
L 384.944882 120.919093 
" clip-path="url(#pdef5cd13c6)" style="fill: none; stroke-dasharray: 1.5,0.5,0.5,0.5,0.5,0.5; stroke-dashoffset: 0; stroke: #023e8a; stroke-width: 0.5"/>
   </g>
   <g id="line2d_40">
    <path d="M 29.76378 117.797954 
L 33.502528 117.829291 
L 37.241276 117.596736 
L 40.980025 117.644971 
L 44.718773 118.374733 
L 48.457522 119.611056 
L 52.19627 121.035037 
L 55.935019 122.327786 
L 59.673767 123.245479 
L 63.412516 123.844768 
L 67.151264 124.257355 
L 70.890012 124.614972 
L 74.628761 125.017491 
L 78.367509 125.437342 
L 82.106258 125.815082 
L 85.845006 126.091304 
L 89.583755 126.218629 
L 93.322503 126.197959 
L 97.061252 126.042232 
L 100.8 125.764418 
L 104.538748 125.356398 
L 108.277497 124.725808 
L 112.016245 123.759198 
L 115.754994 122.343139 
L 119.493742 120.394386 
L 123.232491 117.950433 
L 126.971239 115.079015 
L 130.709988 111.847806 
L 134.448736 108.343969 
L 138.187484 104.732401 
L 141.926233 101.197476 
L 145.664981 97.923557 
L 149.40373 95.070545 
L 153.142478 92.700723 
L 156.881227 90.851878 
L 160.619975 89.561832 
L 164.358724 88.813967 
L 168.097472 88.374052 
L 171.83622 87.953358 
L 175.574969 87.263189 
L 179.313717 86.137893 
L 183.052466 84.903904 
L 186.791214 84.010699 
L 190.529963 83.907732 
L 194.268711 84.899271 
L 198.00746 86.708868 
L 201.746208 88.914843 
L 205.484956 91.095516 
L 209.223705 92.90522 
L 212.962453 94.302153 
L 216.701202 95.320527 
L 220.43995 95.99454 
L 224.178699 96.376663 
L 227.917447 96.592291 
L 231.656196 96.785122 
L 235.394944 97.098834 
L 239.133692 97.625917 
L 242.872441 98.254078 
L 246.611189 98.819886 
L 250.349938 99.159898 
L 254.088686 99.114342 
L 257.827435 98.53827 
L 261.566183 97.290407 
L 265.304932 95.22951 
L 269.04368 92.309406 
L 272.782429 88.864393 
L 276.521177 85.323826 
L 280.259925 82.117094 
L 283.998674 79.583817 
L 287.737422 77.704419 
L 291.476171 76.369542 
L 295.214919 75.469887 
L 298.953668 74.917407 
L 302.692416 74.709394 
L 306.431165 74.864498 
L 310.169913 75.401333 
L 313.908661 76.315623 
L 317.64741 77.511492 
L 321.386158 78.870139 
L 325.124907 80.272762 
L 328.863655 81.642623 
L 332.602404 83.071273 
L 336.341152 84.692268 
L 340.079901 86.639174 
L 343.818649 88.992092 
L 347.557397 91.616956 
L 351.296146 94.32622 
L 355.034894 96.932327 
L 358.773643 99.312661 
L 362.512391 101.604248 
L 366.25114 104.009066 
L 369.989888 106.729116 
L 373.728637 109.861367 
L 377.467385 113.082882 
L 381.206133 115.965752 
L 384.944882 116.958057 
" clip-path="url(#pdef5cd13c6)" style="fill: none; stroke-dasharray: 0.5,0.6,2,0.6; stroke-dashoffset: 0; stroke: #a6611a; stroke-width: 0.5"/>
   </g>
   <g id="patch_3">
    <path d="M 29.76378 132.371922 
L 29.76378 23.811024 
" style="fill: none; stroke: #000000; stroke-width: 0.5; stroke-linejoin: miter; stroke-linecap: square"/>
   </g>
   <g id="patch_4">
    <path d="M 384.944882 132.371922 
L 384.944882 23.811024 
" style="fill: none; stroke: #000000; stroke-width: 0.5; stroke-linejoin: miter; stroke-linecap: square"/>
   </g>
   <g id="patch_5">
    <path d="M 29.76378 132.371922 
L 384.944882 132.371922 
" style="fill: none; stroke: #000000; stroke-width: 0.5; stroke-linejoin: miter; stroke-linecap: square"/>
   </g>
   <g id="patch_6">
    <path d="M 29.76378 23.811024 
L 384.944882 23.811024 
" style="fill: none; stroke: #000000; stroke-width: 0.5; stroke-linejoin: miter; stroke-linecap: square"/>
   </g>
   <g id="text_18">
    <text style="font-size: 6px; font-family: 'SimSun', 'Times New Roman'; text-anchor: start" x="35.091496" y="36.191536" transform="rotate(-0 35.091496 36.191536)">2024年11月24日</text>
   </g>
   <g id="text_19">
    <text style="font-size: 6px; font-family: 'SimSun', 'Times New Roman'; text-anchor: middle" x="207.354331" y="21.811024" transform="rotate(-0 207.354331 21.811024)">（a）负荷预测曲线</text>
   </g>
   <g id="line2d_41">
    <path d="M 29.76378 113.723427 
L 33.502528 114.096029 
L 37.241276 114.194215 
L 40.980025 114.510273 
L 44.718773 115.406952 
L 48.457522 116.728941 
L 52.19627 118.191398 
L 55.935019 119.509479 
L 59.673767 120.468451 
L 63.412516 121.134037 
L 67.151264 121.642048 
L 70.890012 122.128302 
L 74.628761 122.694532 
L 78.367509 123.306097 
L 82.106258 123.894291 
L 85.845006 124.390376 
L 89.583755 124.73097 
L 93.322503 124.873993 
L 97.061252 124.782691 
L 100.8 124.420328 
L 104.538748 123.76016 
L 108.277497 122.815501 
L 112.016245 121.609677 
L 115.754994 120.166006 
L 119.493742 118.47808 
L 123.232491 116.420503 
L 126.971239 113.838166 
L 130.709988 110.575929 
L 134.448736 106.57773 
L 138.187484 102.183693 
L 141.926233 97.832991 
L 145.664981 93.964802 
L 149.40373 90.934781 
L 153.142478 88.764479 
L 156.881227 87.391957 
L 160.619975 86.755232 
L 164.358724 86.741535 
L 168.097472 87.034732 
L 171.83622 87.267869 
L 175.574969 87.07398 
L 179.313717 86.233518 
L 183.052466 85.116442 
L 186.791214 84.240118 
L 190.529963 84.121874 
L 194.268711 85.125815 
L 198.00746 87.002813 
L 201.746208 89.350481 
L 205.484956 91.766453 
L 209.223705 93.902936 
L 212.962453 95.630663 
L 216.701202 96.874975 
L 220.43995 97.561224 
L 224.178699 97.674953 
L 227.917447 97.442529 
L 231.656196 97.150532 
L 235.394944 97.085554 
L 239.133692 97.445321 
L 242.872441 98.072092 
L 246.611189 98.719306 
L 250.349938 99.140369 
L 254.088686 99.117418 
L 257.827435 98.547441 
L 261.566183 97.356145 
L 265.304932 95.46924 
L 269.04368 92.865176 
L 272.782429 89.733424 
L 276.521177 86.316208 
L 280.259925 82.855753 
L 283.998674 79.580241 
L 287.737422 76.661753 
L 291.476171 74.258337 
L 295.214919 72.52802 
L 298.953668 71.579103 
L 302.692416 71.320723 
L 306.431165 71.612269 
L 310.169913 72.313118 
L 313.908661 73.290342 
L 317.64741 74.441737 
L 321.386158 75.672792 
L 325.124907 76.888986 
L 328.863655 78.035177 
L 332.602404 79.213739 
L 336.341152 80.566447 
L 340.079901 82.23504 
L 343.818649 84.31467 
L 347.557397 86.713917 
L 351.296146 89.294769 
L 355.034894 91.919205 
L 358.773643 94.494581 
L 362.512391 97.109811 
L 366.25114 99.899234 
L 369.989888 102.997143 
L 373.728637 106.439435 
L 377.467385 109.868352 
L 381.206133 112.827722 
L 384.944882 114.861362 
" clip-path="url(#pdef5cd13c6)" style="fill: none; stroke: #000000; stroke-width: 0.5; stroke-linecap: square"/>
   </g>
  </g>
  <g id="axes_2">
   <g id="patch_7">
    <path d="M 29.76378 278.929134 
L 384.944882 278.929134 
L 384.944882 170.368236 
L 29.76378 170.368236 
z
" style="fill: #ffffff"/>
   </g>
   <g id="matplotlib.axis_3">
    <g id="xtick_10">
     <g id="line2d_42">
      <path d="M 29.76378 278.929134 
L 29.76378 170.368236 
" clip-path="url(#p68a8ef8f33)" style="fill: none; stroke-dasharray: 0.25,0.4125; stroke-dashoffset: 0; stroke: #b0b0b0; stroke-opacity: 0.45; stroke-width: 0.25"/>
     </g>
     <g id="line2d_43">
      <g>
       <use xlink:href="#m304f9704a2" x="29.76378" y="278.929134" style="stroke: #000000; stroke-width: 0.5"/>
      </g>
     </g>
     <g id="text_20">
      <text style="font-size: 5.5px; font-family: 'SimSun', 'Times New Roman'; text-anchor: start" x="29.76378" y="286.360774" transform="rotate(-0 29.76378 286.360774)">00:00</text>
     </g>
    </g>
    <g id="xtick_11">
     <g id="line2d_44">
      <path d="M 74.628761 278.929134 
L 74.628761 170.368236 
" clip-path="url(#p68a8ef8f33)" style="fill: none; stroke-dasharray: 0.25,0.4125; stroke-dashoffset: 0; stroke: #b0b0b0; stroke-opacity: 0.45; stroke-width: 0.25"/>
     </g>
     <g id="line2d_45">
      <g>
       <use xlink:href="#m304f9704a2" x="74.628761" y="278.929134" style="stroke: #000000; stroke-width: 0.5"/>
      </g>
     </g>
     <g id="text_21">
      <text style="font-size: 5.5px; font-family: 'SimSun', 'Times New Roman'; text-anchor: middle" x="74.628761" y="286.360774" transform="rotate(-0 74.628761 286.360774)">03:00</text>
     </g>
    </g>
    <g id="xtick_12">
     <g id="line2d_46">
      <path d="M 119.493742 278.929134 
L 119.493742 170.368236 
" clip-path="url(#p68a8ef8f33)" style="fill: none; stroke-dasharray: 0.25,0.4125; stroke-dashoffset: 0; stroke: #b0b0b0; stroke-opacity: 0.45; stroke-width: 0.25"/>
     </g>
     <g id="line2d_47">
      <g>
       <use xlink:href="#m304f9704a2" x="119.493742" y="278.929134" style="stroke: #000000; stroke-width: 0.5"/>
      </g>
     </g>
     <g id="text_22">
      <text style="font-size: 5.5px; font-family: 'SimSun', 'Times New Roman'; text-anchor: middle" x="119.493742" y="286.360774" transform="rotate(-0 119.493742 286.360774)">06:00</text>
     </g>
    </g>
    <g id="xtick_13">
     <g id="line2d_48">
      <path d="M 164.358724 278.929134 
L 164.358724 170.368236 
" clip-path="url(#p68a8ef8f33)" style="fill: none; stroke-dasharray: 0.25,0.4125; stroke-dashoffset: 0; stroke: #b0b0b0; stroke-opacity: 0.45; stroke-width: 0.25"/>
     </g>
     <g id="line2d_49">
      <g>
       <use xlink:href="#m304f9704a2" x="164.358724" y="278.929134" style="stroke: #000000; stroke-width: 0.5"/>
      </g>
     </g>
     <g id="text_23">
      <text style="font-size: 5.5px; font-family: 'SimSun', 'Times New Roman'; text-anchor: middle" x="164.358724" y="286.360774" transform="rotate(-0 164.358724 286.360774)">09:00</text>
     </g>
    </g>
    <g id="xtick_14">
     <g id="line2d_50">
      <path d="M 209.223705 278.929134 
L 209.223705 170.368236 
" clip-path="url(#p68a8ef8f33)" style="fill: none; stroke-dasharray: 0.25,0.4125; stroke-dashoffset: 0; stroke: #b0b0b0; stroke-opacity: 0.45; stroke-width: 0.25"/>
     </g>
     <g id="line2d_51">
      <g>
       <use xlink:href="#m304f9704a2" x="209.223705" y="278.929134" style="stroke: #000000; stroke-width: 0.5"/>
      </g>
     </g>
     <g id="text_24">
      <text style="font-size: 5.5px; font-family: 'SimSun', 'Times New Roman'; text-anchor: middle" x="209.223705" y="286.360774" transform="rotate(-0 209.223705 286.360774)">12:00</text>
     </g>
    </g>
    <g id="xtick_15">
     <g id="line2d_52">
      <path d="M 254.088686 278.929134 
L 254.088686 170.368236 
" clip-path="url(#p68a8ef8f33)" style="fill: none; stroke-dasharray: 0.25,0.4125; stroke-dashoffset: 0; stroke: #b0b0b0; stroke-opacity: 0.45; stroke-width: 0.25"/>
     </g>
     <g id="line2d_53">
      <g>
       <use xlink:href="#m304f9704a2" x="254.088686" y="278.929134" style="stroke: #000000; stroke-width: 0.5"/>
      </g>
     </g>
     <g id="text_25">
      <text style="font-size: 5.5px; font-family: 'SimSun', 'Times New Roman'; text-anchor: middle" x="254.088686" y="286.360774" transform="rotate(-0 254.088686 286.360774)">15:00</text>
     </g>
    </g>
    <g id="xtick_16">
     <g id="line2d_54">
      <path d="M 298.953668 278.929134 
L 298.953668 170.368236 
" clip-path="url(#p68a8ef8f33)" style="fill: none; stroke-dasharray: 0.25,0.4125; stroke-dashoffset: 0; stroke: #b0b0b0; stroke-opacity: 0.45; stroke-width: 0.25"/>
     </g>
     <g id="line2d_55">
      <g>
       <use xlink:href="#m304f9704a2" x="298.953668" y="278.929134" style="stroke: #000000; stroke-width: 0.5"/>
      </g>
     </g>
     <g id="text_26">
      <text style="font-size: 5.5px; font-family: 'SimSun', 'Times New Roman'; text-anchor: middle" x="298.953668" y="286.360774" transform="rotate(-0 298.953668 286.360774)">18:00</text>
     </g>
    </g>
    <g id="xtick_17">
     <g id="line2d_56">
      <path d="M 343.818649 278.929134 
L 343.818649 170.368236 
" clip-path="url(#p68a8ef8f33)" style="fill: none; stroke-dasharray: 0.25,0.4125; stroke-dashoffset: 0; stroke: #b0b0b0; stroke-opacity: 0.45; stroke-width: 0.25"/>
     </g>
     <g id="line2d_57">
      <g>
       <use xlink:href="#m304f9704a2" x="343.818649" y="278.929134" style="stroke: #000000; stroke-width: 0.5"/>
      </g>
     </g>
     <g id="text_27">
      <text style="font-size: 5.5px; font-family: 'SimSun', 'Times New Roman'; text-anchor: middle" x="343.818649" y="286.360774" transform="rotate(-0 343.818649 286.360774)">21:00</text>
     </g>
    </g>
    <g id="xtick_18">
     <g id="line2d_58">
      <path d="M 384.944882 278.929134 
L 384.944882 170.368236 
" clip-path="url(#p68a8ef8f33)" style="fill: none; stroke-dasharray: 0.25,0.4125; stroke-dashoffset: 0; stroke: #b0b0b0; stroke-opacity: 0.45; stroke-width: 0.25"/>
     </g>
     <g id="line2d_59">
      <g>
       <use xlink:href="#m304f9704a2" x="384.944882" y="278.929134" style="stroke: #000000; stroke-width: 0.5"/>
      </g>
     </g>
     <g id="text_28">
      <text style="font-size: 5.5px; font-family: 'SimSun', 'Times New Roman'; text-anchor: end" x="384.944882" y="286.360774" transform="rotate(-0 384.944882 286.360774)">24:00</text>
     </g>
    </g>
    <g id="text_29">
     <text style="font-size: 6px; font-family: 'SimSun', 'Times New Roman'; text-anchor: middle" x="207.354331" y="295.804134" transform="rotate(-0 207.354331 295.804134)">时刻</text>
    </g>
   </g>
   <g id="matplotlib.axis_4">
    <g id="ytick_7">
     <g id="line2d_60">
      <path d="M 29.76378 273.997711 
L 384.944882 273.997711 
" clip-path="url(#p68a8ef8f33)" style="fill: none; stroke-dasharray: 0.25,0.4125; stroke-dashoffset: 0; stroke: #b0b0b0; stroke-opacity: 0.45; stroke-width: 0.25"/>
     </g>
     <g id="line2d_61">
      <g>
       <use xlink:href="#mbcac710405" x="29.76378" y="273.997711" style="stroke: #000000; stroke-width: 0.5"/>
      </g>
     </g>
     <g id="text_30">
      <text style="font-size: 5.5px; font-family: 'SimSun', 'Times New Roman'; text-anchor: end" x="26.26378" y="275.963531" transform="rotate(-0 26.26378 275.963531)">0.0</text>
     </g>
    </g>
    <g id="ytick_8">
     <g id="line2d_62">
      <path d="M 29.76378 253.505496 
L 384.944882 253.505496 
" clip-path="url(#p68a8ef8f33)" style="fill: none; stroke-dasharray: 0.25,0.4125; stroke-dashoffset: 0; stroke: #b0b0b0; stroke-opacity: 0.45; stroke-width: 0.25"/>
     </g>
     <g id="line2d_63">
      <g>
       <use xlink:href="#mbcac710405" x="29.76378" y="253.505496" style="stroke: #000000; stroke-width: 0.5"/>
      </g>
     </g>
     <g id="text_31">
      <text style="font-size: 5.5px; font-family: 'SimSun', 'Times New Roman'; text-anchor: end" x="26.26378" y="255.471316" transform="rotate(-0 26.26378 255.471316)">0.1</text>
     </g>
    </g>
    <g id="ytick_9">
     <g id="line2d_64">
      <path d="M 29.76378 233.013281 
L 384.944882 233.013281 
" clip-path="url(#p68a8ef8f33)" style="fill: none; stroke-dasharray: 0.25,0.4125; stroke-dashoffset: 0; stroke: #b0b0b0; stroke-opacity: 0.45; stroke-width: 0.25"/>
     </g>
     <g id="line2d_65">
      <g>
       <use xlink:href="#mbcac710405" x="29.76378" y="233.013281" style="stroke: #000000; stroke-width: 0.5"/>
      </g>
     </g>
     <g id="text_32">
      <text style="font-size: 5.5px; font-family: 'SimSun', 'Times New Roman'; text-anchor: end" x="26.26378" y="234.979101" transform="rotate(-0 26.26378 234.979101)">0.2</text>
     </g>
    </g>
    <g id="ytick_10">
     <g id="line2d_66">
      <path d="M 29.76378 212.521066 
L 384.944882 212.521066 
" clip-path="url(#p68a8ef8f33)" style="fill: none; stroke-dasharray: 0.25,0.4125; stroke-dashoffset: 0; stroke: #b0b0b0; stroke-opacity: 0.45; stroke-width: 0.25"/>
     </g>
     <g id="line2d_67">
      <g>
       <use xlink:href="#mbcac710405" x="29.76378" y="212.521066" style="stroke: #000000; stroke-width: 0.5"/>
      </g>
     </g>
     <g id="text_33">
      <text style="font-size: 5.5px; font-family: 'SimSun', 'Times New Roman'; text-anchor: end" x="26.26378" y="214.486886" transform="rotate(-0 26.26378 214.486886)">0.3</text>
     </g>
    </g>
    <g id="ytick_11">
     <g id="line2d_68">
      <path d="M 29.76378 192.02885 
L 384.944882 192.02885 
" clip-path="url(#p68a8ef8f33)" style="fill: none; stroke-dasharray: 0.25,0.4125; stroke-dashoffset: 0; stroke: #b0b0b0; stroke-opacity: 0.45; stroke-width: 0.25"/>
     </g>
     <g id="line2d_69">
      <g>
       <use xlink:href="#mbcac710405" x="29.76378" y="192.02885" style="stroke: #000000; stroke-width: 0.5"/>
      </g>
     </g>
     <g id="text_34">
      <text style="font-size: 5.5px; font-family: 'SimSun', 'Times New Roman'; text-anchor: end" x="26.26378" y="193.994671" transform="rotate(-0 26.26378 193.994671)">0.4</text>
     </g>
    </g>
    <g id="ytick_12">
     <g id="line2d_70">
      <path d="M 29.76378 171.536635 
L 384.944882 171.536635 
" clip-path="url(#p68a8ef8f33)" style="fill: none; stroke-dasharray: 0.25,0.4125; stroke-dashoffset: 0; stroke: #b0b0b0; stroke-opacity: 0.45; stroke-width: 0.25"/>
     </g>
     <g id="line2d_71">
      <g>
       <use xlink:href="#mbcac710405" x="29.76378" y="171.536635" style="stroke: #000000; stroke-width: 0.5"/>
      </g>
     </g>
     <g id="text_35">
      <text style="font-size: 5.5px; font-family: 'SimSun', 'Times New Roman'; text-anchor: end" x="26.26378" y="173.502456" transform="rotate(-0 26.26378 173.502456)">0.5</text>
     </g>
    </g>
    <g id="text_36">
     <text style="font-size: 6px; font-family: 'SimSun', 'Times New Roman'; text-anchor: middle" x="13.240342" y="224.648685" transform="rotate(-90 13.240342 224.648685)">归一化绝对误差</text>
    </g>
   </g>
   <g id="line2d_72">
    <path d="M 29.76378 273.682377 
L 33.502528 272.403829 
L 37.241276 269.699569 
L 40.980025 265.17411 
L 44.718773 258.627523 
L 48.457522 250.447808 
L 52.19627 241.20214 
L 55.935019 231.492672 
L 59.673767 221.872085 
L 63.412516 212.614139 
L 67.151264 203.916488 
L 70.890012 195.959477 
L 74.628761 188.928685 
L 78.367509 183.108808 
L 82.106258 178.768863 
L 85.845006 176.11962 
L 89.583755 175.302822 
L 93.322503 176.372089 
L 97.061252 179.309245 
L 100.8 184.032303 
L 104.538748 190.39023 
L 108.277497 198.13934 
L 112.016245 206.9835 
L 115.754994 216.595344 
L 119.493742 226.658929 
L 123.232491 236.974304 
L 126.971239 247.378703 
L 130.709988 257.728676 
L 134.448736 267.810025 
L 138.187484 270.952565 
L 141.926233 263.199444 
L 145.664981 257.499863 
L 149.40373 254.279859 
L 153.142478 253.557943 
L 156.881227 255.203243 
L 160.619975 259.02425 
L 164.358724 264.721971 
L 168.097472 271.740511 
L 171.83622 268.562176 
L 175.574969 260.86957 
L 179.313717 253.715696 
L 183.052466 247.036472 
L 186.791214 240.607244 
L 190.529963 234.182329 
L 194.268711 227.641358 
L 198.00746 221.452421 
L 201.746208 216.190971 
L 205.484956 212.376083 
L 209.223705 210.41049 
L 212.962453 210.410513 
L 216.701202 212.375553 
L 220.43995 216.247571 
L 224.178699 221.854788 
L 227.917447 228.733555 
L 231.656196 236.323363 
L 235.394944 244.03938 
L 239.133692 251.375382 
L 242.872441 258.189861 
L 246.611189 264.443823 
L 250.349938 270.120952 
L 254.088686 272.786869 
L 257.827435 268.377256 
L 261.566183 264.713845 
L 265.304932 261.809624 
L 269.04368 259.673322 
L 272.782429 258.471225 
L 276.521177 258.365847 
L 280.259925 259.465378 
L 283.998674 261.815049 
L 287.737422 265.361577 
L 291.476171 270.005683 
L 295.214919 272.368466 
L 298.953668 265.951433 
L 302.692416 259.123125 
L 306.431165 252.30602 
L 310.169913 245.898571 
L 313.908661 240.257396 
L 317.64741 235.665107 
L 321.386158 232.347199 
L 325.124907 230.475159 
L 328.863655 230.123296 
L 332.602404 231.14685 
L 336.341152 233.305264 
L 340.079901 236.306739 
L 343.818649 239.862094 
L 347.557397 243.836451 
L 351.296146 248.114499 
L 355.034894 252.562859 
L 358.773643 256.994345 
L 362.512391 261.039093 
L 366.25114 264.295481 
L 369.989888 266.387188 
L 373.728637 267.073582 
L 377.467385 266.561164 
L 381.206133 265.206151 
L 384.944882 263.417496 
" clip-path="url(#p68a8ef8f33)" style="fill: none; stroke-dasharray: 0.6,0.5; stroke-dashoffset: 0; stroke: #8c510a; stroke-width: 0.5"/>
   </g>
   <g id="line2d_73">
    <path d="M 29.76378 273.397451 
L 33.502528 270.922245 
L 37.241276 270.408303 
L 40.980025 270.834082 
L 44.718773 273.329973 
L 48.457522 272.47204 
L 52.19627 271.463315 
L 55.935019 273.178418 
L 59.673767 273.776705 
L 63.412516 272.954853 
L 67.151264 271.721861 
L 70.890012 272.155775 
L 74.628761 272.922033 
L 78.367509 270.529451 
L 82.106258 268.48883 
L 85.845006 266.613475 
L 89.583755 266.510949 
L 93.322503 265.925932 
L 97.061252 266.490838 
L 100.8 264.053313 
L 104.538748 262.97187 
L 108.277497 260.773086 
L 112.016245 263.079789 
L 115.754994 262.231109 
L 119.493742 261.314913 
L 123.232491 261.99048 
L 126.971239 264.735733 
L 130.709988 264.501432 
L 134.448736 267.547235 
L 138.187484 269.072265 
L 141.926233 271.487743 
L 145.664981 272.433155 
L 149.40373 273.225266 
L 153.142478 273.561428 
L 156.881227 273.106653 
L 160.619975 273.948634 
L 164.358724 272.756456 
L 168.097472 268.58583 
L 171.83622 267.825331 
L 175.574969 267.814594 
L 179.313717 271.082485 
L 183.052466 268.824742 
L 186.791214 272.00127 
L 190.529963 271.431973 
L 194.268711 272.694578 
L 198.00746 271.647665 
L 201.746208 269.081426 
L 205.484956 269.527102 
L 209.223705 267.605766 
L 212.962453 266.64693 
L 216.701202 268.77376 
L 220.43995 265.538775 
L 224.178699 270.733082 
L 227.917447 269.653789 
L 231.656196 272.95296 
L 235.394944 273.929677 
L 239.133692 271.345153 
L 242.872441 271.783256 
L 246.611189 270.629529 
L 250.349938 269.174817 
L 254.088686 268.405132 
L 257.827435 270.867012 
L 261.566183 270.987689 
L 265.304932 271.148149 
L 269.04368 273.68649 
L 272.782429 270.229107 
L 276.521177 271.418366 
L 280.259925 268.884519 
L 283.998674 267.151553 
L 287.737422 266.320075 
L 291.476171 263.821272 
L 295.214919 262.645253 
L 298.953668 262.123861 
L 302.692416 264.452251 
L 306.431165 266.806242 
L 310.169913 267.179853 
L 313.908661 267.119746 
L 317.64741 267.09428 
L 321.386158 269.606226 
L 325.124907 270.873571 
L 328.863655 271.972847 
L 332.602404 273.185227 
L 336.341152 271.477263 
L 340.079901 271.976792 
L 343.818649 271.56247 
L 347.557397 273.407882 
L 351.296146 271.739639 
L 355.034894 273.034185 
L 358.773643 272.751876 
L 362.512391 272.992791 
L 366.25114 269.931017 
L 369.989888 273.453331 
L 373.728637 273.3614 
L 377.467385 273.838699 
L 381.206133 272.727923 
L 384.944882 272.919071 
" clip-path="url(#p68a8ef8f33)" style="fill: none; stroke-dasharray: 2.4,0.6; stroke-dashoffset: 0; stroke: #7209b7; stroke-width: 0.5"/>
   </g>
   <g id="line2d_74">
    <path d="M 29.76378 271.134231 
L 33.502528 271.119244 
L 37.241276 271.988005 
L 40.980025 271.960901 
L 44.718773 271.803709 
L 48.457522 269.186775 
L 52.19627 268.349251 
L 55.935019 267.619318 
L 59.673767 267.478072 
L 63.412516 267.602316 
L 67.151264 267.909548 
L 70.890012 268.246431 
L 74.628761 268.410555 
L 78.367509 268.359524 
L 82.106258 268.199052 
L 85.845006 268.043729 
L 89.583755 267.738878 
L 93.322503 267.562582 
L 97.061252 267.470157 
L 100.8 267.925427 
L 104.538748 268.672857 
L 108.277497 271.608213 
L 112.016245 271.600848 
L 115.754994 270.63508 
L 119.493742 269.630948 
L 123.232491 269.704417 
L 126.971239 270.407003 
L 130.709988 272.260225 
L 134.448736 272.090116 
L 138.187484 272.896237 
L 141.926233 273.620924 
L 145.664981 267.611715 
L 149.40373 268.739108 
L 153.142478 261.063292 
L 156.881227 261.443255 
L 160.619975 268.903793 
L 164.358724 259.78388 
L 168.097472 261.687834 
L 171.83622 271.177011 
L 175.574969 262.989501 
L 179.313717 262.265229 
L 183.052466 261.335964 
L 186.791214 260.712473 
L 190.529963 260.772152 
L 194.268711 262.401016 
L 198.00746 263.968051 
L 201.746208 266.20636 
L 205.484956 268.68203 
L 209.223705 270.950753 
L 212.962453 272.816489 
L 216.701202 273.846266 
L 220.43995 273.051554 
L 224.178699 272.97475 
L 227.917447 273.148059 
L 231.656196 273.35216 
L 235.394944 273.244198 
L 239.133692 272.649275 
L 242.872441 271.764556 
L 246.611189 270.710339 
L 250.349938 269.948935 
L 254.088686 269.980815 
L 257.827435 272.105323 
L 261.566183 273.948097 
L 265.304932 271.391812 
L 269.04368 270.207476 
L 272.782429 269.137929 
L 276.521177 268.538683 
L 280.259925 265.650475 
L 283.998674 263.134351 
L 287.737422 259.798915 
L 291.476171 254.982067 
L 295.214919 253.125101 
L 298.953668 253.967693 
L 302.692416 255.819541 
L 306.431165 254.553711 
L 310.169913 258.971664 
L 313.908661 255.04585 
L 317.64741 255.814362 
L 321.386158 256.756257 
L 325.124907 257.60735 
L 328.863655 258.369108 
L 332.602404 259.20657 
L 336.341152 260.03994 
L 340.079901 261.185997 
L 343.818649 262.57612 
L 347.557397 264.396578 
L 351.296146 266.404122 
L 355.034894 268.391293 
L 358.773643 270.355928 
L 362.512391 272.156477 
L 366.25114 273.928835 
L 369.989888 271.641302 
L 373.728637 268.914078 
L 377.467385 266.099485 
L 381.206133 263.709309 
L 384.944882 262.320841 
" clip-path="url(#p68a8ef8f33)" style="fill: none; stroke-dasharray: 1.2,0.6; stroke-dashoffset: 0; stroke: #4b5563; stroke-width: 0.5"/>
   </g>
   <g id="line2d_75">
    <path d="M 29.76378 269.828661 
L 33.502528 273.645035 
L 37.241276 273.943583 
L 40.980025 272.444985 
L 44.718773 271.275807 
L 48.457522 269.688606 
L 52.19627 272.473176 
L 55.935019 271.55833 
L 59.673767 272.451862 
L 63.412516 267.99522 
L 67.151264 271.332304 
L 70.890012 268.145413 
L 74.628761 267.474639 
L 78.367509 270.534306 
L 82.106258 270.779857 
L 85.845006 268.932979 
L 89.583755 267.907044 
L 93.322503 266.351875 
L 97.061252 269.726336 
L 100.8 268.801553 
L 104.538748 268.962349 
L 108.277497 269.50842 
L 112.016245 269.892921 
L 115.754994 268.902688 
L 119.493742 269.036447 
L 123.232491 269.365048 
L 126.971239 268.318905 
L 130.709988 269.744217 
L 134.448736 269.754422 
L 138.187484 272.972112 
L 141.926233 270.671082 
L 145.664981 273.207873 
L 149.40373 273.87486 
L 153.142478 273.913518 
L 156.881227 270.716263 
L 160.619975 273.212477 
L 164.358724 270.279504 
L 168.097472 270.823077 
L 171.83622 272.411499 
L 175.574969 271.858985 
L 179.313717 273.217766 
L 183.052466 273.103623 
L 186.791214 271.474112 
L 190.529963 271.519989 
L 194.268711 270.219971 
L 198.00746 272.146449 
L 201.746208 272.396378 
L 205.484956 273.723805 
L 209.223705 272.014669 
L 212.962453 271.840041 
L 216.701202 272.895137 
L 220.43995 273.903014 
L 224.178699 272.361836 
L 227.917447 271.421102 
L 231.656196 272.339484 
L 235.394944 272.831293 
L 239.133692 273.869485 
L 242.872441 272.504524 
L 246.611189 268.25106 
L 250.349938 273.117145 
L 254.088686 269.648182 
L 257.827435 268.668827 
L 261.566183 268.695429 
L 265.304932 272.734079 
L 269.04368 271.872103 
L 272.782429 271.822318 
L 276.521177 271.7162 
L 280.259925 273.84425 
L 283.998674 271.995517 
L 287.737422 268.673236 
L 291.476171 271.30211 
L 295.214919 270.099868 
L 298.953668 270.362378 
L 302.692416 269.73764 
L 306.431165 271.742057 
L 310.169913 270.425074 
L 313.908661 271.231084 
L 317.64741 272.151872 
L 321.386158 272.873091 
L 325.124907 273.761657 
L 328.863655 272.439299 
L 332.602404 271.439204 
L 336.341152 269.958414 
L 340.079901 273.727164 
L 343.818649 273.278703 
L 347.557397 273.555492 
L 351.296146 270.188104 
L 355.034894 271.892806 
L 358.773643 272.787615 
L 362.512391 273.803064 
L 366.25114 271.193562 
L 369.989888 270.982352 
L 373.728637 273.554185 
L 377.467385 273.449221 
L 381.206133 271.690476 
L 384.944882 272.900799 
" clip-path="url(#p68a8ef8f33)" style="fill: none; stroke-dasharray: 2.5,0.5,0.5,0.5; stroke-dashoffset: 0; stroke: #c51b7d; stroke-width: 0.5"/>
   </g>
   <g id="line2d_76">
    <path d="M 29.76378 273.012163 
L 33.502528 272.131834 
L 37.241276 271.734515 
L 40.980025 271.10411 
L 44.718773 271.009022 
L 48.457522 272.498172 
L 52.19627 272.38591 
L 55.935019 273.132388 
L 59.673767 273.168237 
L 63.412516 273.557202 
L 67.151264 273.212746 
L 70.890012 272.31202 
L 74.628761 273.657622 
L 78.367509 273.111795 
L 82.106258 273.801042 
L 85.845006 273.950741 
L 89.583755 272.86404 
L 93.322503 273.655588 
L 97.061252 273.936389 
L 100.8 273.874713 
L 104.538748 272.814144 
L 108.277497 273.426692 
L 112.016245 273.205405 
L 115.754994 273.644064 
L 119.493742 273.794489 
L 123.232491 272.982891 
L 126.971239 272.16234 
L 130.709988 271.286396 
L 134.448736 271.419123 
L 138.187484 272.849737 
L 141.926233 273.660352 
L 145.664981 272.214959 
L 149.40373 270.791711 
L 153.142478 271.544027 
L 156.881227 270.328043 
L 160.619975 271.338961 
L 164.358724 271.349489 
L 168.097472 272.754978 
L 171.83622 273.246055 
L 175.574969 273.961471 
L 179.313717 273.694637 
L 183.052466 273.290857 
L 186.791214 272.930205 
L 190.529963 271.954806 
L 194.268711 271.852585 
L 198.00746 272.064882 
L 201.746208 272.213322 
L 205.484956 272.295195 
L 209.223705 272.896799 
L 212.962453 273.504192 
L 216.701202 273.759239 
L 220.43995 273.984544 
L 224.178699 273.412133 
L 227.917447 273.493785 
L 231.656196 272.172062 
L 235.394944 270.826863 
L 239.133692 271.566416 
L 242.872441 272.098056 
L 246.611189 271.862417 
L 250.349938 272.922473 
L 254.088686 272.981163 
L 257.827435 273.918404 
L 261.566183 273.576097 
L 265.304932 273.832415 
L 269.04368 273.667363 
L 272.782429 273.63563 
L 276.521177 273.844079 
L 280.259925 272.67539 
L 283.998674 271.90943 
L 287.737422 272.254936 
L 291.476171 271.012497 
L 295.214919 270.713502 
L 298.953668 268.956242 
L 302.692416 269.627418 
L 306.431165 270.367276 
L 310.169913 270.96436 
L 313.908661 272.050909 
L 317.64741 272.79862 
L 321.386158 273.824756 
L 325.124907 273.240631 
L 328.863655 273.791802 
L 332.602404 273.981808 
L 336.341152 273.719799 
L 340.079901 273.273732 
L 343.818649 273.450461 
L 347.557397 272.939891 
L 351.296146 272.748749 
L 355.034894 272.530601 
L 358.773643 272.093793 
L 362.512391 272.029497 
L 366.25114 271.308779 
L 369.989888 271.970196 
L 373.728637 271.244807 
L 377.467385 272.920641 
L 381.206133 273.309429 
L 384.944882 273.615965 
" clip-path="url(#p68a8ef8f33)" style="fill: none; stroke-dasharray: 1.8,0.5,0.5,0.5; stroke-dashoffset: 0; stroke: #009e73; stroke-width: 0.5"/>
   </g>
   <g id="line2d_77">
    <path d="M 29.76378 270.305306 
L 33.502528 272.085609 
L 37.241276 270.116522 
L 40.980025 270.60088 
L 44.718773 272.234484 
L 48.457522 269.210922 
L 52.19627 273.813428 
L 55.935019 271.72693 
L 59.673767 271.880989 
L 63.412516 271.861281 
L 67.151264 269.43216 
L 70.890012 272.42303 
L 74.628761 272.351478 
L 78.367509 273.131338 
L 82.106258 273.687828 
L 85.845006 269.281857 
L 89.583755 269.809289 
L 93.322503 271.791812 
L 97.061252 271.655079 
L 100.8 270.247642 
L 104.538748 273.853271 
L 108.277497 273.114244 
L 112.016245 272.734519 
L 115.754994 270.886653 
L 119.493742 272.53694 
L 123.232491 273.591732 
L 126.971239 272.892462 
L 130.709988 272.969724 
L 134.448736 272.914363 
L 138.187484 273.246739 
L 141.926233 272.51934 
L 145.664981 269.245342 
L 149.40373 269.108224 
L 153.142478 271.522969 
L 156.881227 273.385139 
L 160.619975 271.96867 
L 164.358724 272.268885 
L 168.097472 271.874803 
L 171.83622 271.525693 
L 175.574969 272.583453 
L 179.313717 273.345394 
L 183.052466 271.392435 
L 186.791214 271.260472 
L 190.529963 272.835947 
L 194.268711 272.09659 
L 198.00746 272.576124 
L 201.746208 270.921585 
L 205.484956 270.74868 
L 209.223705 270.89607 
L 212.962453 270.409281 
L 216.701202 271.938232 
L 220.43995 271.598442 
L 224.178699 272.042444 
L 227.917447 272.95831 
L 231.656196 270.890048 
L 235.394944 269.98967 
L 239.133692 269.17103 
L 242.872441 272.037363 
L 246.611189 273.637548 
L 250.349938 273.794404 
L 254.088686 272.837706 
L 257.827435 272.305614 
L 261.566183 273.701563 
L 265.304932 273.06036 
L 269.04368 273.496851 
L 272.782429 273.132779 
L 276.521177 267.622536 
L 280.259925 269.049583 
L 283.998674 270.162368 
L 287.737422 268.068896 
L 291.476171 267.741687 
L 295.214919 268.357142 
L 298.953668 268.564944 
L 302.692416 267.591488 
L 306.431165 270.479379 
L 310.169913 269.75965 
L 313.908661 268.940155 
L 317.64741 270.742206 
L 321.386158 267.824903 
L 325.124907 268.170031 
L 328.863655 270.287394 
L 332.602404 266.587496 
L 336.341152 267.944799 
L 340.079901 265.833103 
L 343.818649 268.558727 
L 347.557397 265.042544 
L 351.296146 266.462409 
L 355.034894 269.69274 
L 358.773643 263.366178 
L 362.512391 265.487963 
L 366.25114 264.314223 
L 369.989888 261.2532 
L 373.728637 264.995177 
L 377.467385 266.506557 
L 381.206133 270.544774 
L 384.944882 267.76898 
" clip-path="url(#p68a8ef8f33)" style="fill: none; stroke-dasharray: 1.5,0.5,0.5,0.5,0.5,0.5; stroke-dashoffset: 0; stroke: #023e8a; stroke-width: 0.5"/>
   </g>
   <g id="line2d_78">
    <path d="M 29.76378 272.956203 
L 33.502528 271.868024 
L 37.241276 271.394475 
L 40.980025 272.686309 
L 44.718773 271.324279 
L 48.457522 273.580385 
L 52.19627 273.346591 
L 55.935019 273.580885 
L 59.673767 272.63322 
L 63.412516 272.560929 
L 67.151264 272.746984 
L 70.890012 273.49919 
L 74.628761 272.904359 
L 78.367509 273.537415 
L 82.106258 273.324965 
L 85.845006 273.683644 
L 89.583755 272.408617 
L 93.322503 272.878098 
L 97.061252 272.55161 
L 100.8 272.952221 
L 104.538748 273.603006 
L 108.277497 273.845686 
L 112.016245 273.992587 
L 115.754994 273.375154 
L 119.493742 273.092942 
L 123.232491 270.850761 
L 126.971239 269.610556 
L 130.709988 270.863024 
L 134.448736 270.097779 
L 138.187484 273.214627 
L 141.926233 273.39 
L 145.664981 270.239355 
L 149.40373 269.439342 
L 153.142478 267.93642 
L 156.881227 267.887856 
L 160.619975 266.707697 
L 164.358724 268.206942 
L 168.097472 267.996966 
L 171.83622 269.259584 
L 175.574969 269.492853 
L 179.313717 269.913428 
L 183.052466 268.399623 
L 186.791214 268.681297 
L 190.529963 268.286909 
L 194.268711 268.890932 
L 198.00746 269.840057 
L 201.746208 271.029658 
L 205.484956 270.382067 
L 209.223705 270.04963 
L 212.962453 271.735046 
L 216.701202 270.737479 
L 220.43995 270.868588 
L 224.178699 270.425037 
L 227.917447 271.019789 
L 231.656196 269.948862 
L 235.394944 270.155296 
L 239.133692 270.875525 
L 242.872441 270.125762 
L 246.611189 270.272786 
L 250.349938 271.525461 
L 254.088686 272.076363 
L 257.827435 271.532338 
L 261.566183 272.745561 
L 265.304932 273.474743 
L 269.04368 272.527706 
L 272.782429 271.701909 
L 276.521177 271.06536 
L 280.259925 270.688695 
L 283.998674 270.081155 
L 287.737422 269.676068 
L 291.476171 270.203457 
L 295.214919 268.928735 
L 298.953668 267.665787 
L 302.692416 268.072707 
L 306.431165 269.374362 
L 310.169913 269.345328 
L 313.908661 269.089036 
L 317.64741 270.251911 
L 321.386158 269.815213 
L 325.124907 270.66638 
L 328.863655 270.184464 
L 332.602404 269.336473 
L 336.341152 269.210531 
L 340.079901 269.015286 
L 343.818649 269.636896 
L 347.557397 269.996657 
L 351.296146 270.594046 
L 355.034894 269.845517 
L 358.773643 270.363721 
L 362.512391 271.287209 
L 366.25114 269.671414 
L 369.989888 270.600789 
L 373.728637 270.805305 
L 377.467385 271.220274 
L 381.206133 272.049229 
L 384.944882 271.463913 
" clip-path="url(#p68a8ef8f33)" style="fill: none; stroke-dasharray: 3,0.6; stroke-dashoffset: 0; stroke: #2166ac; stroke-width: 0.5"/>
   </g>
   <g id="line2d_79">
    <path d="M 29.76378 273.455823 
L 33.502528 273.913445 
L 37.241276 273.594419 
L 40.980025 273.541061 
L 44.718773 273.720397 
L 48.457522 273.588312 
L 52.19627 273.415748 
L 55.935019 273.013299 
L 59.673767 272.139358 
L 63.412516 273.556835 
L 67.151264 273.538929 
L 70.890012 273.403271 
L 74.628761 273.269451 
L 78.367509 273.145067 
L 82.106258 273.100765 
L 85.845006 271.637833 
L 89.583755 271.764049 
L 93.322503 271.785137 
L 97.061252 271.57074 
L 100.8 272.363705 
L 104.538748 272.678187 
L 108.277497 273.621492 
L 112.016245 273.039743 
L 115.754994 273.347128 
L 119.493742 272.196155 
L 123.232491 271.719522 
L 126.971239 270.899691 
L 130.709988 269.700002 
L 134.448736 271.008588 
L 138.187484 271.042703 
L 141.926233 272.923926 
L 145.664981 273.237077 
L 149.40373 273.562417 
L 153.142478 273.668047 
L 156.881227 273.399149 
L 160.619975 272.871552 
L 164.358724 272.22881 
L 168.097472 270.070688 
L 171.83622 268.902657 
L 175.574969 268.646621 
L 179.313717 268.911769 
L 183.052466 269.56995 
L 186.791214 270.057643 
L 190.529963 271.230156 
L 194.268711 270.47812 
L 198.00746 270.671009 
L 201.746208 269.539206 
L 205.484956 270.13601 
L 209.223705 270.07434 
L 212.962453 269.333016 
L 216.701202 269.694768 
L 220.43995 269.724803 
L 224.178699 270.508155 
L 227.917447 271.861123 
L 231.656196 272.791926 
L 235.394944 272.970829 
L 239.133692 273.413623 
L 242.872441 273.700989 
L 246.611189 272.90238 
L 250.349938 273.471323 
L 254.088686 273.102573 
L 257.827435 273.359342 
L 261.566183 272.972845 
L 265.304932 273.228038 
L 269.04368 273.754707 
L 272.782429 273.55322 
L 276.521177 273.914996 
L 280.259925 273.51218 
L 283.998674 272.151481 
L 287.737422 271.960083 
L 291.476171 271.142286 
L 295.214919 270.925506 
L 298.953668 271.028754 
L 302.692416 271.127397 
L 306.431165 272.323959 
L 310.169913 272.231876 
L 313.908661 273.89527 
L 317.64741 273.855085 
L 321.386158 273.128748 
L 325.124907 272.627888 
L 328.863655 272.40218 
L 332.602404 273.082016 
L 336.341152 272.370728 
L 340.079901 272.00723 
L 343.818649 272.082849 
L 347.557397 271.934921 
L 351.296146 272.741396 
L 355.034894 272.382063 
L 358.773643 272.01975 
L 362.512391 273.765615 
L 366.25114 273.987231 
L 369.989888 273.417275 
L 373.728637 273.77593 
L 377.467385 273.272059 
L 381.206133 272.429094 
L 384.944882 273.336691 
" clip-path="url(#p68a8ef8f33)" style="fill: none; stroke-dasharray: 1,0.5,2.5,0.5; stroke-dashoffset: 0; stroke: #b35806; stroke-width: 0.5"/>
   </g>
   <g id="line2d_80">
    <path d="M 29.76378 269.808165 
L 33.502528 270.159064 
L 37.241276 270.499141 
L 40.980025 270.774525 
L 44.718773 270.946155 
L 48.457522 271.034238 
L 52.19627 271.0738 
L 55.935019 271.099847 
L 59.673767 271.142292 
L 63.412516 271.21046 
L 67.151264 271.308578 
L 70.890012 271.440846 
L 74.628761 271.609178 
L 78.367509 271.806305 
L 82.106258 272.0227 
L 85.845006 272.248768 
L 89.583755 272.468058 
L 93.322503 272.636371 
L 97.061252 272.702615 
L 100.8 272.61568 
L 104.538748 272.356413 
L 108.277497 272.033479 
L 112.016245 271.787513 
L 115.754994 271.759121 
L 119.493742 272.02731 
L 123.232491 272.424593 
L 126.971239 272.721835 
L 130.709988 272.689931 
L 134.448736 272.181614 
L 138.187484 271.377057 
L 141.926233 270.538251 
L 145.664981 269.927206 
L 149.40373 269.745201 
L 153.142478 269.950352 
L 156.881227 270.440122 
L 160.619975 271.111884 
L 164.358724 271.866778 
L 168.097472 272.620584 
L 171.83622 273.292872 
L 175.574969 273.803162 
L 179.313717 273.899386 
L 183.052466 273.779173 
L 186.791214 273.761816 
L 190.529963 273.777524 
L 194.268711 273.764772 
L 198.00746 273.695468 
L 201.746208 273.549776 
L 205.484956 273.307835 
L 209.223705 272.971831 
L 212.962453 272.631699 
L 216.701202 272.399383 
L 220.43995 272.386802 
L 224.178699 272.662772 
L 227.917447 273.123472 
L 231.656196 273.621987 
L 235.394944 273.984055 
L 239.133692 273.812017 
L 242.872441 273.810588 
L 246.611189 273.894293 
L 250.349938 273.977631 
L 254.088686 273.994548 
L 257.827435 273.988282 
L 261.566183 273.930117 
L 265.304932 273.751214 
L 269.04368 273.426252 
L 272.782429 273.104149 
L 276.521177 272.977315 
L 280.259925 273.238201 
L 283.998674 273.994035 
L 287.737422 272.925612 
L 291.476171 271.82691 
L 295.214919 270.9728 
L 298.953668 270.565172 
L 302.692416 270.513383 
L 306.431165 270.653677 
L 310.169913 270.82232 
L 313.908661 270.887031 
L 317.64741 270.841301 
L 321.386158 270.710107 
L 325.124907 270.518415 
L 328.863655 270.288432 
L 332.602404 270.031284 
L 336.341152 269.755424 
L 340.079901 269.469255 
L 343.818649 269.188252 
L 347.557397 268.956266 
L 351.296146 268.824229 
L 355.034894 268.843076 
L 358.773643 269.043623 
L 362.512391 269.376402 
L 366.25114 269.771864 
L 369.989888 270.16039 
L 373.728637 270.479183 
L 377.467385 270.692439 
L 381.206133 270.771099 
L 384.944882 271.84183 
" clip-path="url(#p68a8ef8f33)" style="fill: none; stroke-dasharray: 0.5,0.6,2,0.6; stroke-dashoffset: 0; stroke: #a6611a; stroke-width: 0.5"/>
   </g>
   <g id="line2d_81">
    <path d="M 29.76378 273.768919 
L 33.502528 273.21321 
L 37.241276 272.977871 
L 40.980025 272.756371 
L 44.718773 273.061814 
L 48.457522 273.524333 
L 52.19627 273.555871 
L 55.935019 273.62984 
L 59.673767 273.064171 
L 63.412516 273.640907 
L 67.151264 273.8472 
L 70.890012 273.683516 
L 74.628761 273.353528 
L 78.367509 272.948893 
L 82.106258 272.652372 
L 85.845006 271.72191 
L 89.583755 272.128372 
L 93.322503 271.673034 
L 97.061252 271.430617 
L 100.8 271.85926 
L 104.538748 272.033619 
L 108.277497 272.612602 
L 112.016245 271.946775 
L 115.754994 272.029967 
L 119.493742 270.977081 
L 123.232491 270.500448 
L 126.971239 269.918827 
L 130.709988 268.817212 
L 134.448736 269.600339 
L 138.187484 270.566283 
L 141.926233 272.244334 
L 145.664981 272.869255 
L 149.40373 273.471335 
L 153.142478 273.889785 
L 156.881227 273.850174 
L 160.619975 273.792865 
L 164.358724 273.302497 
L 168.097472 271.720646 
L 171.83622 270.916932 
L 175.574969 270.601338 
L 179.313717 271.174776 
L 183.052466 272.14822 
L 186.791214 272.758532 
L 190.529963 273.72786 
L 194.268711 273.532822 
L 198.00746 273.375404 
L 201.746208 272.374087 
L 205.484956 272.293912 
L 209.223705 272.19897 
L 212.962453 271.573243 
L 216.701202 271.691539 
L 220.43995 271.749594 
L 224.178699 272.490905 
L 227.917447 273.444525 
L 231.656196 273.83029 
L 235.394944 273.791497 
L 239.133692 273.488826 
L 242.872441 273.981234 
L 246.611189 273.105566 
L 250.349938 273.015912 
L 254.088686 272.338898 
L 257.827435 272.119248 
L 261.566183 271.865874 
L 265.304932 271.889851 
L 269.04368 272.526876 
L 272.782429 272.500542 
L 276.521177 272.876327 
L 280.259925 273.509383 
L 283.998674 273.132339 
L 287.737422 272.646686 
L 291.476171 272.088113 
L 295.214919 271.422934 
L 298.953668 271.533193 
L 302.692416 271.77197 
L 306.431165 272.576185 
L 310.169913 272.371998 
L 313.908661 273.783179 
L 317.64741 273.69195 
L 321.386158 273.338944 
L 325.124907 273.412584 
L 328.863655 273.341009 
L 332.602404 273.897505 
L 336.341152 273.645853 
L 340.079901 273.303376 
L 343.818649 273.564653 
L 347.557397 273.059408 
L 351.296146 273.913616 
L 355.034894 273.778049 
L 358.773643 273.585637 
L 362.512391 273.136846 
L 366.25114 272.845217 
L 369.989888 272.772701 
L 373.728637 273.187408 
L 377.467385 273.664407 
L 381.206133 273.059646 
L 384.944882 273.364717 
" clip-path="url(#p68a8ef8f33)" style="fill: none; stroke: #e63946; stroke-width: 0.5; stroke-linecap: square"/>
   </g>
   <g id="patch_8">
    <path d="M 29.76378 278.929134 
L 29.76378 170.368236 
" style="fill: none; stroke: #000000; stroke-width: 0.5; stroke-linejoin: miter; stroke-linecap: square"/>
   </g>
   <g id="patch_9">
    <path d="M 384.944882 278.929134 
L 384.944882 170.368236 
" style="fill: none; stroke: #000000; stroke-width: 0.5; stroke-linejoin: miter; stroke-linecap: square"/>
   </g>
   <g id="patch_10">
    <path d="M 29.76378 278.929134 
L 384.944882 278.929134 
" style="fill: none; stroke: #000000; stroke-width: 0.5; stroke-linejoin: miter; stroke-linecap: square"/>
   </g>
   <g id="patch_11">
    <path d="M 29.76378 170.368236 
L 384.944882 170.368236 
" style="fill: none; stroke: #000000; stroke-width: 0.5; stroke-linejoin: miter; stroke-linecap: square"/>
   </g>
   <g id="text_37">
    <text style="font-size: 6px; font-family: 'SimSun', 'Times New Roman'; text-anchor: start" x="35.091496" y="182.748749" transform="rotate(-0 35.091496 182.748749)">2024年11月24日</text>
   </g>
   <g id="text_38">
    <text style="font-size: 6px; font-family: 'SimSun', 'Times New Roman'; text-anchor: middle" x="207.354331" y="168.368236" transform="rotate(-0 207.354331 168.368236)">（b）绝对误差曲线</text>
   </g>
  </g>
  <g id="legend_1">
   <g id="patch_12">
    <path d="M 67.905197 330.754331 
L 328.945197 330.754331 
Q 329.985197 330.754331 329.985197 329.714331 
L 329.985197 318.245893 
Q 329.985197 317.205893 328.945197 317.205893 
L 67.905197 317.205893 
Q 66.865197 317.205893 66.865197 318.245893 
L 66.865197 329.714331 
Q 66.865197 330.754331 67.905197 330.754331 
z
" style="fill: #ffffff; stroke: #bdbdbd; stroke-linejoin: miter"/>
   </g>
   <g id="line2d_82">
    <path d="M 68.165197 320.829643 
L 72.845197 320.829643 
L 77.525197 320.829643 
" style="fill: none; stroke: #000000; stroke-width: 0.5; stroke-linecap: square"/>
   </g>
   <g id="text_39">
    <text style="font-size: 5.2px; font-family: 'SimSun', 'Times New Roman'; text-anchor: start" x="81.685197" y="322.649643" transform="rotate(-0 81.685197 322.649643)">实际值</text>
   </g>
   <g id="line2d_83">
    <path d="M 68.165197 326.517143 
L 72.845197 326.517143 
L 77.525197 326.517143 
" style="fill: none; stroke-dasharray: 1.2,0.6; stroke-dashoffset: 0; stroke: #4b5563; stroke-width: 0.5"/>
   </g>
   <g id="text_40">
    <text style="font-size: 5.2px; font-family: 'SimSun', 'Times New Roman'; text-anchor: start" x="81.685197" y="328.337143" transform="rotate(-0 81.685197 328.337143)">Informer</text>
   </g>
   <g id="line2d_84">
    <path d="M 106.645197 320.829643 
L 111.325197 320.829643 
L 116.005197 320.829643 
" style="fill: none; stroke-dasharray: 0.5,0.6,2,0.6; stroke-dashoffset: 0; stroke: #a6611a; stroke-width: 0.5"/>
   </g>
   <g id="text_41">
    <text style="font-size: 5.2px; font-family: 'SimSun', 'Times New Roman'; text-anchor: start" x="120.165197" y="322.649643" transform="rotate(-0 120.165197 322.649643)">SDR</text>
   </g>
   <g id="line2d_85">
    <path d="M 106.645197 326.964018 
L 111.325197 326.964018 
L 116.005197 326.964018 
" style="fill: none; stroke: #e63946; stroke-width: 0.5; stroke-linecap: square"/>
   </g>
   <g id="text_42">
    <text style="font-size: 5.2px; font-family: 'SimSun', 'Times New Roman'; text-anchor: start" x="120.165197" y="328.784018" transform="rotate(-0 120.165197 328.784018)">本文方法</text>
   </g>
   <g id="line2d_86">
    <path d="M 145.125197 320.829643 
L 149.805197 320.829643 
L 154.485197 320.829643 
" style="fill: none; stroke-dasharray: 2.4,0.6; stroke-dashoffset: 0; stroke: #7209b7; stroke-width: 0.5"/>
   </g>
   <g id="text_43">
    <text style="font-size: 5.2px; font-family: 'SimSun', 'Times New Roman'; text-anchor: start" x="158.645197" y="322.649643" transform="rotate(-0 158.645197 322.649643)">LSTM</text>
   </g>
   <g id="line2d_87">
    <path d="M 145.125197 326.517143 
L 149.805197 326.517143 
L 154.485197 326.517143 
" style="fill: none; stroke-dasharray: 1.5,0.5,0.5,0.5,0.5,0.5; stroke-dashoffset: 0; stroke: #023e8a; stroke-width: 0.5"/>
   </g>
   <g id="text_44">
    <text style="font-size: 5.2px; font-family: 'SimSun', 'Times New Roman'; text-anchor: start" x="158.645197" y="328.337143" transform="rotate(-0 158.645197 328.337143)">TimeXer*</text>
   </g>
   <g id="line2d_88">
    <path d="M 183.605197 320.829643 
L 188.285197 320.829643 
L 192.965197 320.829643 
" style="fill: none; stroke-dasharray: 1.8,0.5,0.5,0.5; stroke-dashoffset: 0; stroke: #009e73; stroke-width: 0.5"/>
   </g>
   <g id="text_45">
    <text style="font-size: 5.2px; font-family: 'SimSun', 'Times New Roman'; text-anchor: start" x="197.125197" y="322.649643" transform="rotate(-0 197.125197 322.649643)">iTransformer</text>
   </g>
   <g id="line2d_89">
    <path d="M 183.605197 326.517143 
L 188.285197 326.517143 
L 192.965197 326.517143 
" style="fill: none; stroke-dasharray: 0.6,0.5; stroke-dashoffset: 0; stroke: #8c510a; stroke-width: 0.5"/>
   </g>
   <g id="text_46">
    <text style="font-size: 5.2px; font-family: 'SimSun', 'Times New Roman'; text-anchor: start" x="197.125197" y="328.337143" transform="rotate(-0 197.125197 328.337143)">ARIMA</text>
   </g>
   <g id="line2d_90">
    <path d="M 232.485197 320.829643 
L 237.165197 320.829643 
L 241.845197 320.829643 
" style="fill: none; stroke-dasharray: 3,0.6; stroke-dashoffset: 0; stroke: #2166ac; stroke-width: 0.5"/>
   </g>
   <g id="text_47">
    <text style="font-size: 5.2px; font-family: 'SimSun', 'Times New Roman'; text-anchor: start" x="246.005197" y="322.649643" transform="rotate(-0 246.005197 322.649643)">+MeteoConv</text>
   </g>
   <g id="line2d_91">
    <path d="M 232.485197 326.517143 
L 237.165197 326.517143 
L 241.845197 326.517143 
" style="fill: none; stroke-dasharray: 2.5,0.5,0.5,0.5; stroke-dashoffset: 0; stroke: #c51b7d; stroke-width: 0.5"/>
   </g>
   <g id="text_48">
    <text style="font-size: 5.2px; font-family: 'SimSun', 'Times New Roman'; text-anchor: start" x="246.005197" y="328.337143" transform="rotate(-0 246.005197 328.337143)">PatchTST</text>
   </g>
   <g id="patch_13">
    <path d="M 276.165197 322.649643 
L 285.525197 322.649643 
L 285.525197 319.009643 
L 276.165197 319.009643 
z
" style="fill: #e63946; opacity: 0.13"/>
   </g>
   <g id="text_49">
    <text style="font-size: 5.2px; font-family: 'SimSun', 'Times New Roman'; text-anchor: start" x="289.685197" y="322.649643" transform="rotate(-0 289.685197 322.649643)">P10-P90预测区间</text>
   </g>
   <g id="line2d_92">
    <path d="M 276.165197 326.517143 
L 280.845197 326.517143 
L 285.525197 326.517143 
" style="fill: none; stroke-dasharray: 1,0.5,2.5,0.5; stroke-dashoffset: 0; stroke: #b35806; stroke-width: 0.5"/>
   </g>
   <g id="text_50">
    <text style="font-size: 5.2px; font-family: 'SimSun', 'Times New Roman'; text-anchor: start" x="289.685197" y="328.337143" transform="rotate(-0 289.685197 328.337143)">+Optuna</text>
   </g>
  </g>
 </g>
 <defs>
  <clipPath id="pdef5cd13c6">
   <rect x="29.76378" y="23.811024" width="355.181102" height="108.560898"/>
  </clipPath>
  <clipPath id="p68a8ef8f33">
   <rect x="29.76378" y="170.368236" width="355.181102" height="108.560898"/>
  </clipPath>
 </defs>
</svg>
